<svg xmlns="http://www.w3.org/2000/svg" width=".9in" height=".9in" viewBox="0 0 64 64"><path fill="none" stroke="#2f1912" stroke-miterlimit="10" stroke-width=".26" d="M14.2 32.7s-2.1 24.1 4.3 28.1c0 0-18.4 1-18.5-14.8s14.2-13.3 14.2-13.3z"/><path fill="none" stroke="#2f1912" stroke-miterlimit="10" stroke-width=".18" d="M11.7 35.1s-1.8 18.8 2.5 21.5c0 0-11.9.1-11.9-10.6s9.4-10.9 9.4-10.9z"/><g fill="#2f1912"><path d="M12.5 33.6c-.1 1.4-.2 2.8-.4 4.2l1.3.2a10.1 10.1 0 0 1 .3-1.7 4 4 0 0 0 .1-1.9.7.7 0 0 0-1.2-.1 14.2 14.2 0 0 1-.8 1.8 3.7 3.7 0 0 0-.2 1.8.7.7 0 0 0 .8.5.7.7 0 0 0 .5-.8c-.1-.1-.1-.1-.1-.2s.1-.1.1-.2a1.4 1.4 0 0 1 .2-.7c.2-.5.5-1 .7-1.4l-1.2-.2v.2c0-.1-.1.1-.1.1v.2c-.1.2-.1.5-.2.8s-.1 1.2-.2 1.8a.6.6 0 0 0 .6.6.5.5 0 0 0 .7-.5 34.2 34.2 0 0 0 .4-4.5.6.6 0 0 0-.6-.6.7.7 0 0 0-.7.6z"/><path d="M11.7 33.6v4a.7.7 0 0 0 .7.6.6.6 0 0 0 .6-.6v-4a.7.7 0 0 0-.7-.6.6.6 0 0 0-.6.6z"/><path d="M12.2 37.1a.7.7 0 1 0 0-1.3.7.7 0 0 0 0 1.3z"/><path d="M12.3 36.7a.7.7 0 0 0 0-1.3.7.7 0 1 0 0 1.3zm-.5-2.1a.7.7 0 1 0 0-1.3.7.7 0 0 0 0 1.3z"/><path d="M11.7 34a.7.7 0 0 0 0-1.3.7.7 0 1 0 0 1.3z"/><path d="M12.4 33.9a.7.7 0 1 0 0-1.3.7.7 0 0 0 0 1.3z"/><path d="M12.1 33.9a.7.7 0 0 0 0-1.3.7.7 0 1 0 0 1.3z"/><path d="M12.9 33.9a.7.7 0 1 0 0-1.3.7.7 0 0 0 0 1.3z"/><path d="M13.4 33.9a.7.7 0 1 0 0-1.3.7.7 0 0 0 0 1.3z"/><path d="M13.4 34.5a.7.7 0 0 0 0-1.3.7.7 0 1 0 0 1.3z"/><path d="M13.3 35.3a.7.7 0 1 0 0-1.3.7.7 0 0 0 0 1.3zM11.7 33c.2 0 .2-.2 0-.2s-.2.2 0 .2z"/><path d="M13.9 34.4c.1 0 .1-.3 0-.3a.1.1 0 1 0 0 .3zm-6.8 1a27 27 0 0 1 4.7-1.2.4.4 0 0 0 0-.8 29.2 29.2 0 0 0-4.9 1.2c-.5.1-.2.9.2.8z"/><path d="M6.4 35.2a12 12 0 0 1 6.4-1.9c.5-.1.5-.8 0-.8a12.6 12.6 0 0 0-6.8 2 .4.4 0 0 0 .4.7z"/><path d="M7.3 35.1a5.6 5.6 0 0 0 2.2-.3l2.1-.6c.5-.1.3-.9-.2-.8l-2.1.6a6.5 6.5 0 0 1-2 .4c-.5-.1-.5.7 0 .7z"/><path d="M7.7 34.8a24.2 24.2 0 0 1 3.6-1 .4.4 0 0 0 .4-.4c0-.1-.2-.4-.4-.3a17.5 17.5 0 0 0-3.8.9c-.5.2-.3 1 .2.8z"/><path d="M4.8 35.7a9.2 9.2 0 0 1 5.6-1.9c.5-.1.5-.8 0-.8a10.2 10.2 0 0 0-6.2 2.2c-.4.3.2.8.6.5z"/><path d="M6.6 34.5l1.5-.5a11.3 11.3 0 0 1 1.8-.3.4.4 0 0 0 .4-.4.4.4 0 0 0-.4-.4l-2 .3a6.1 6.1 0 0 0-1.7.7c-.5.2-.1.9.4.6z"/><path d="M8.9 33.8h1.7a.4.4 0 1 0 0-.8H9.3c.1 0 .1-.1 0 0h-.4c-.2-.1-.4.2-.4.4s.2.3.4.4zm-3.4 2.9a15.1 15.1 0 0 0 1.8-.9l1.9-.6a8.6 8.6 0 0 1 3.9-.4c.5.1.7-.7.2-.8a9.7 9.7 0 0 0-4.1.4l-1.9.6-2 1c-.5.1-.3.9.2.7z"/><path d="M7 36.4a8.7 8.7 0 0 1 5-1.3.4.4 0 0 0 0-.8 10.1 10.1 0 0 0-5.4 1.4c-.5.2-.1.9.4.7z"/><path d="M8.8 35.6a.4.4 0 0 0 0-.8.4.4 0 0 0 0 .8z"/><path d="M8.6 35.7a.4.4 0 0 0 0-.8.4.4 0 1 0 0 .8z"/><path d="M8.4 35.7a.4.4 0 0 0 0-.8.4.4 0 0 0 0 .8zm.9-.2a.4.4 0 0 0 0-.8.4.4 0 1 0 0 .8z"/><path d="M9.8 35.4a.4.4 0 0 0 0-.8.4.4 0 0 0 0 .8z"/><path d="M10.2 35.3a.4.4 0 0 0 0-.8.4.4 0 0 0 0 .8z"/><path d="M10.6 35.2a.4.4 0 0 0 0-.8.4.4 0 0 0 0 .8zm-8 4.3a12.2 12.2 0 0 1 4.7-4.6c.4-.3 0-1-.4-.7a13.8 13.8 0 0 0-5 4.9c-.3.4.4.8.7.4z"/><path d="M2.5 40.2A8.1 8.1 0 0 1 5 37.5a12.1 12.1 0 0 1 3-2 .4.4 0 0 0-.4-.7 17.7 17.7 0 0 0-3.2 2.1 10.2 10.2 0 0 0-2.6 2.9.4.4 0 0 0 .7.4z"/><path d="M1.5 40.8a5.5 5.5 0 0 1 .8-1.5l1.1-1.2A17.8 17.8 0 0 1 6.1 36a.5.5 0 0 0 .1-.6.4.4 0 0 0-.5-.1 20.9 20.9 0 0 0-2.9 2.3l-1.2 1.3a5.3 5.3 0 0 0-.8 1.7c-.1.5.6.7.7.2z"/><path d="M1.7 40.6a3.7 3.7 0 0 1 .9-1.9 16.7 16.7 0 0 1 1.2-1.6 5 5 0 0 1 3.6-1.6.4.4 0 0 0 0-.8 5.5 5.5 0 0 0-4.1 1.9 13 13 0 0 0-1.5 1.8 4.7 4.7 0 0 0-.9 2.2c.1.5.9.5.8 0z"/><path d="M1.8 40c.1-.1 0 .1.1 0s.1-.2.1-.4l.5-.7-.8-.2c0 .1-.1.1-.1.2l-.4.3a.6.6 0 0 0 0 .6c.2.1.4.2.6 0l.4-.4c.1-.1.1-.2.2-.2a.8.8 0 0 0 .1-.4c0-.2-.1-.4-.3-.4s-.3 0-.4.2l-.5.8a3.2 3.2 0 0 0-.3.6.4.4 0 0 0 .4.4.4.4 0 0 0 .4-.4z"/><path d="M1.9 38.9a.4.4 0 0 0 0-.8.4.4 0 0 0 0 .8z"/><path d="M2.2 38.4a.4.4 0 0 0 0-.8.4.4 0 0 0 0 .8z"/><path d="M2.5 37.9c.6 0 .6-.7 0-.7a.4.4 0 1 0 0 .7z"/><path d="M2.4 38a.4.4 0 0 0 0-.8.4.4 0 0 0 0 .8z"/><path d="M2.1 38.5a.4.4 0 0 0 0-.8.4.4 0 1 0 0 .8zm.7-1.1a.4.4 0 1 0 0-.7.4.4 0 1 0 0 .7z"/><path d="M2.7 37.5a.4.4 0 0 0 0-.8.4.4 0 0 0 0 .8z"/><path d="M3.2 37a.4.4 0 0 0 0-.8.4.4 0 0 0 0 .8z"/><path d="M3.4 36.6c.6 0 .6-.7 0-.7a.4.4 0 1 0 0 .7z"/><path d="M3.8 36.5a.4.4 0 0 0 0-.8.4.4 0 0 0 0 .8z"/><path d="M4 36.1a.4.4 0 0 0 0-.8.4.4 0 0 0 0 .8z"/><path d="M4.4 35.9a.4.4 0 0 0 0-.8.4.4 0 0 0 0 .8zm1.9.9a.4.4 0 0 0 0-.8.4.4 0 1 0 0 .8z"/><path d="M6.6 36.6a.4.4 0 0 0 0-.8.4.4 0 0 0 0 .8z"/><path d="M6.8 36.4a.4.4 0 0 0 0-.8.4.4 0 0 0 0 .8z"/><path d="M7.1 36.3a.4.4 0 1 0 0-.8.4.4 0 0 0 0 .8zm-4.7 5a6.3 6.3 0 0 1 2.6-4l-.5-.6a16.1 16.1 0 0 0-2.4 2.8c-.6 1-.9 2.2-1.6 3.3l.7.2a5.6 5.6 0 0 1 1-2.8c.3-.4-.4-.8-.7-.4A6.8 6.8 0 0 0 .4 43c0 .4.6.5.8.2s1-2.2 1.6-3.2A15.1 15.1 0 0 1 5 37.2c.3-.3-.1-.8-.4-.6a7.7 7.7 0 0 0-3 4.5c-.1.5.7.7.8.2z"/><path d="M1 43v-.6c0-.2 0-.3.1-.4v-.2a4.2 4.2 0 0 1 .4-1.2c.1-.1 0-.4-.2-.5a.4.4 0 0 0-.5.1A5.7 5.7 0 0 0 .2 43a.4.4 0 0 0 .4.4.4.4 0 0 0 .4-.4zm1.3-1.5l.6-1.5.8-1.3a9.4 9.4 0 0 1 1.2-.9 5.1 5.1 0 0 1 1.3-.9l-.4-.7A9.1 9.1 0 0 0 3.7 38a5.4 5.4 0 0 0-1.6 2.4c0 .4.4.7.7.4a23.1 23.1 0 0 0 1.4-1.9 8.5 8.5 0 0 1 1.7-1.6.4.4 0 0 0 .1-.6.4.4 0 0 0-.5-.1 7.3 7.3 0 0 0-1.8 1.7l-.7.9-.8 1 .7.4a4.9 4.9 0 0 1 1.4-2.1 9.5 9.5 0 0 1 1.9-1.6c.5-.3.1-.9-.4-.7l-1.4.9-1.3 1.1a6.7 6.7 0 0 0-.9 1.4c-.2.6-.5 1.1-.7 1.7a.4.4 0 0 0 .8.2z"/><path d="M6.3 36.1h-.1a.1.1 0 0 0-.1.1H6v.2a.1.1 0 0 0 .1.1h.7v-.2c.1 0 .1-.1 0-.1V36h-.1a.1.1 0 0 1-.1-.1h-.1c-.1 0-.2 0-.2.1zm-3.2 1.2a.4.4 0 0 0 0-.8.4.4 0 0 0 0 .8z"/><path d="M2.8 36.6v.2h-.2c0 .1.1.1.1.2a.1.1 0 0 0 .1.1h.6V37a.1.1 0 0 0 .1-.1c0-.1 0-.1-.1-.2h-.6zm-1.5 8c.4-.1.4-.7.4-1l.3-1.1a14.7 14.7 0 0 1 1-2.2l-.7-.4a12.5 12.5 0 0 0-.9 2.5 5.9 5.9 0 0 0-.2 1.3 1.7 1.7 0 0 0 0 1.2c.2.3.6.3.7-.1l.7-2.7a3.7 3.7 0 0 1 .9-2l-.6-.5a12.4 12.4 0 0 0-1 2 3.7 3.7 0 0 0-.3 2.1c.1.4.7.4.7 0l.8-2.6c.2-.4-.5-.7-.7-.2a25.8 25.8 0 0 0-.8 2.6h.7c0-.3.1-.6.1-.9l.3-.9a8.9 8.9 0 0 1 .8-1.7c.3-.4-.3-.8-.6-.5a4.4 4.4 0 0 0-1 2.2c-.2 1-.5 1.9-.7 2.9h.7c-.1-.1 0-.3 0-.4a.7.7 0 0 1 .1-.5 3.6 3.6 0 0 1 .2-1.1 8.3 8.3 0 0 1 .8-2.3c.2-.4-.5-.8-.7-.4a20 20 0 0 0-1 2.1L1 43a3.6 3.6 0 0 1-.2 1.1v-.2c-.2.1-.2.4-.1.6s.3.2.5.1z"/><path d="M1 46.2a8 8 0 0 1 .2-3.1H.4a8.6 8.6 0 0 1 .1 1.6v1.1h.2c0-.2.1-.3.1-.5v-.8a2.2 2.2 0 0 0 .1-.8c.1-.2.1-.4.2-.6L.4 43c.1.7.1 1.4.2 2.1a4.3 4.3 0 0 1 .2 1.1 1.4 1.4 0 0 0 .5.8.4.4 0 0 0 .6-.3 20.9 20.9 0 0 0 0-2.5c0-.5-.7-.6-.8-.2a6.1 6.1 0 0 0 .4 2.7c0 .2.2.3.4.3s.4-.2.3-.4a6.2 6.2 0 0 1 .1-2.7h-.8a12.2 12.2 0 0 0 0 2.7.4.4 0 0 0 .4.4c.2 0 .4-.2.3-.4a24.4 24.4 0 0 1 .1-2.7c0-.4-.7-.5-.8-.1a7.1 7.1 0 0 0-.1 2.9h.8a5.6 5.6 0 0 1-.3-2.2h-.8a17.6 17.6 0 0 1 0 2.3l.6-.2v-.2c0-.2 0-.3-.1-.4s-.1-.6-.1-.9-.1-1.2-.2-1.8a.4.4 0 0 0-.7-.2 1.6 1.6 0 0 0-.3.9c-.1.4-.1.7-.2 1.1a3.7 3.7 0 0 1-.1 1.1c0 .4.2.7.6.7a.8.8 0 0 0 .8-.5 3.4 3.4 0 0 0 0-1 7.9 7.9 0 0 0-.1-2.2.4.4 0 0 0-.8 0 10.2 10.2 0 0 0-.2 3.5.5.5 0 0 0 .5.3c.3-.1.3-.3.3-.5z"/><path d="M.1 46.5c0 1.5-.1 3.1.8 4.4s.8.3.8-.2l-.3-2.3a7.4 7.4 0 0 1 0-2.1H.6c.2.9.3 1.8.5 2.7a5.5 5.5 0 0 0 1 2.2.4.4 0 0 0 .7-.3l-.6-2.2a3.6 3.6 0 0 1-.2-1.1 4.3 4.3 0 0 1-.1-.5v-.3l-.7-.2c.4 1.7.5 3.5 1.6 4.9a.4.4 0 0 0 .7-.3A5.4 5.4 0 0 0 3 50a3 3 0 0 1-.4-1 4.6 4.6 0 0 1-.3-2.3.4.4 0 0 0-.8 0 5 5 0 0 0 .3 2.4c.1.4.3.8.4 1.2a1.9 1.9 0 0 1 .5 1l.7-.3c-1-1.3-1-3.1-1.4-4.7a.4.4 0 0 0-.6-.2c-.4.3-.3.8-.2 1.2a6.9 6.9 0 0 0 .2 1.3 22.7 22.7 0 0 1 .6 2.5l.7-.3a4.9 4.9 0 0 1-.8-2.1c-.2-.9-.3-1.7-.5-2.6s-.6-.3-.8 0a8.1 8.1 0 0 0 0 2.2l.3 2.4.7-.2c-.8-1.1-.7-2.7-.7-4a.4.4 0 0 0-.8 0z"/><path d="M2.2 49.6a.4.4 0 0 0 0-.8.4.4 0 0 0 0 .8zM11.7 38v2.6h.8a8.1 8.1 0 0 1 0-3.1h-.8c-.1 1-.2 2-.2 3s.7.6.8.1l.5-2.3H12c.1 1.1.1 2.1.2 3.2s.2.4.4.4.4-.1.4-.3a16.6 16.6 0 0 0 .3-3.2h-.8l.2 2.7c0 .4.7.6.8.1s-.1-3.4.3-5H13l-.3 4.4a.4.4 0 0 0 .4.4c.2 0 .3-.2.4-.4l.3-4.4c0-.4-.7-.5-.8-.1s-.1 3.3-.4 5h.8l-.2-2.7c0-.5-.7-.5-.8 0s-.1 2-.2 3h.7c-.1-1.1-.1-2.1-.2-3.2s-.7-.5-.8-.1l-.5 2.3h.8c0-1 .1-2 .2-3a.4.4 0 0 0-.4-.4.4.4 0 0 0-.4.4 8.1 8.1 0 0 0 0 3.1c0 .5.7.5.8 0V38c.1-.5-.7-.5-.8 0z"/><path d="M11.7 40.3l-.2 3.9h.8a15.3 15.3 0 0 1-.1-3.7h-.8a9.7 9.7 0 0 1 .3 2.3 9.7 9.7 0 0 0 .1 2.4c.1.3.7.4.7 0a39.3 39.3 0 0 0 .6-4.8h-.8a33.9 33.9 0 0 0 .2 4.5.8.8 0 0 0 .4.4c.1 0 .4-.1.4-.3a22.6 22.6 0 0 0 .1-4.5.4.4 0 0 0-.8 0 15.5 15.5 0 0 1-.1 4.3h.8a33.9 33.9 0 0 1-.2-4.5.4.4 0 0 0-.8 0c-.1 1.5-.3 3-.5 4.5h.7a8.1 8.1 0 0 1 0-2.2 9.9 9.9 0 0 0-.3-2.4c-.1-.5-.8-.3-.8.1a17 17 0 0 0 .1 3.9c.1.4.8.3.8-.1l.2-3.9a.4.4 0 0 0-.8 0z"/><path d="M11.5 47.6v.5h.8v-2.6a10.1 10.1 0 0 0-.2-2.5c-.1-.5-.7-.4-.7.1v3.6h.7a10.5 10.5 0 0 1 0-2.5h-.7a16.2 16.2 0 0 1 .1 2.2v2.3c.1.4.7.6.8.1a31.3 31.3 0 0 0 .4-4.4h-.8a40.7 40.7 0 0 0 .5 4.9.4.4 0 0 0 .7-.1 26.9 26.9 0 0 0 .1-4.9c0-.5-.7-.5-.8 0a38.1 38.1 0 0 0 .4 5.9c.1.5.8.3.8-.2a36.4 36.4 0 0 1-.4-5.7h-.8a40 40 0 0 1 0 4.9h.7a37.3 37.3 0 0 1-.4-4.7.4.4 0 0 0-.8 0 29.8 29.8 0 0 1-.4 4.2h.8v-2.5a9.7 9.7 0 0 0-.2-2.4c0-.3-.7-.3-.7 0a8.1 8.1 0 0 0 0 3.1c0 .4.8.3.7-.2v-3.6h-.8a9.5 9.5 0 0 1 .1 2.4V48a.4.4 0 0 0 .8 0v-.5c.1-.5-.7-.5-.7 0z"/><path d="M13.3 53.6c-.4-1.8-.7-3.5-1-5.3s-.8-.3-.7.1a17.7 17.7 0 0 0 1.1 6 .3.3 0 0 0 .4.2c.2 0 .4-.1.3-.3a49.3 49.3 0 0 1-.5-5.4h-.7a29.9 29.9 0 0 0 1.2 5.8c.2.4.9.3.8-.2l-.9-5c0-.5-.8-.4-.7.1a20.7 20.7 0 0 0 1.2 4.9c.2.4.9.2.8-.2s-.7-3.2-1-4.8-.7-.3-.7.1v.4a.4.4 0 0 0 .8 0v-.4H13a40.5 40.5 0 0 0 .9 4.8l.8-.2a20.3 20.3 0 0 1-1.2-4.7h-.8l.8 5 .8-.2a26.8 26.8 0 0 1-1.3-5.6c0-.5-.7-.6-.7 0a24.7 24.7 0 0 0 .5 5.4h.7a19.1 19.1 0 0 1-1-5.8h-.8l.9 5.3c.1.5.9.3.8-.2z"/><path d="M12.7 54.2a4.5 4.5 0 0 0 1.1 1.9.4.4 0 0 0 .6 0 .5.5 0 0 0 0-.5l-.6-.8a4.1 4.1 0 0 1-.5-.9l-.7.4c.5 1 .9 2.1 2 2.6a.3.3 0 0 0 .4 0c.1-.1.2-.3.1-.4l-.9-2.4-.7.3.6 1.3a4.1 4.1 0 0 0 .7 1.1c.1.2.3.3.4.2s.4-.3.3-.5l-1-2.4c-.1-.2-.3-.4-.5-.3a.4.4 0 0 0-.3.5l1 2.4.7-.3-.6-1.1-.6-1.3c-.2-.4-.9-.1-.7.3l.9 2.4.6-.5h-.3c-.1-.1 0 0-.1 0h-.2l-.4-.6c-.2-.4-.5-.9-.7-1.4a.3.3 0 0 0-.5-.1.4.4 0 0 0-.2.5 5.7 5.7 0 0 0 1.2 1.8l.6-.5a7 7 0 0 1-1-1.6.3.3 0 0 0-.5-.3c-.1.1-.3.3-.2.5zm-.1 4.6a2 2 0 0 0 .1-.7v-.3c.1-.1.1-.1.1-.2v-.2h-.3c.1.1.2.1.2.2h.1c0 .1-.1 0 0 0s0 .1.1.2a.4.4 0 0 0 .5.1.3.3 0 0 0 .2-.4 2 2 0 0 0-.4-.8l-.6.4a.1.1 0 0 0 .1.1v.2l.2.4.3.4.2.2c.1 0 .1 0 0-.1v-.2h-.9a.2.2 0 0 1 .2.2h.3v-.2c0-.2.1-.3.1-.5h-.6c.1.1.1.1.1.2s.1.2.2.2a1 1 0 0 0 .8.5l-.2-.7a.3.3 0 0 0-.5.3c-.1.2.1.4.3.4a2 2 0 0 0 1.1.2c.2 0 .4-.1.3-.4s-.1-.3-.3-.4h-.9l-.2.7a.5.5 0 0 0 .6-.1.5.5 0 0 0 .2-.4c-.1-.2-.2-.3-.4-.3h-.2a1 1 0 0 0-.4-.5.3.3 0 0 0-.6.2c-.1.1-.1.3-.2.5s-.1.4 0 .6.3.4.5.4h1.4a.6.6 0 0 0 .2-.5.9.9 0 0 0-.3-.5h-.1a.1.1 0 0 1-.1-.1 3.5 3.5 0 0 0-.6-.9.5.5 0 0 0-.6-.1 1.1 1.1 0 0 0-.1.5c.1.2.2.3.2.4a.1.1 0 0 0 .1.1l.7-.3a1.5 1.5 0 0 0-.5-.6c-.1-.2-.3-.2-.5-.2a.8.8 0 0 0-.4.4 2.2 2.2 0 0 0-.1.8.3.3 0 0 0-.1.2.9.9 0 0 1-.1.5c0 .2.1.4.3.4s.5 0 .5-.2z"/><path d="M14.1 58.4l.4.3h.1c.1-.1.1-.1 0-.2l-.3-.3a.1.1 0 0 0-.2 0v.2l.8.5v-.2H14c0 .1.1.1.1.2h.9a.1.1 0 0 0 .1-.1H15a.5.5 0 0 0-.4-.2l-.3-.3-.2.2.4.3v-.2l-.3-.2H14z"/><path d="M14.7 58.7h-.9l.9.2h.1c0-.1 0-.2-.1-.2zm-8.4-4.5a10.6 10.6 0 0 1-2-1.7.9.9 0 0 0-1.3 1.3l.9 1.1a.9.9 0 0 0 1.5-1.1 5.3 5.3 0 0 0-1-1.2 1 1 0 0 0-1.3 0 1.1 1.1 0 0 0 0 1.3l1.1 1.5c.6 1 2.2 0 1.6-1l-1.4-1.8-1.3 1.3.7.8 1.5-1.1-1-1.1L3 53.8a11.6 11.6 0 0 0 2.4 2 .9.9 0 0 0 .9-1.6z"/><path d="M5.7 56.5c2.9 1.3 5.6 2.7 8.8 2.4 1.2-.2 1.2-2 0-1.9-2.9.3-5.3-.9-7.8-2.1s-2 1.1-1 1.6z"/><path d="M5.7 54.6h-.1l-1.3 1.2 1.4.9c.9.5 1.9-.7 1.1-1.4l-1.1-.8c-1.1-.5-2 1-.9 1.6a6.3 6.3 0 0 0 2 1c.9.1 1.7-1.2.7-1.7l-1.3-.7a.9.9 0 0 0-1.1 1.4A9 9 0 0 0 9 57.7a.9.9 0 0 0 .7-1.6 2.4 2.4 0 0 0-1.6-.5c-1.1.1-1.1 2 0 1.9s.4 0 .7.1l.7-1.6-1.6-.5a4.1 4.1 0 0 1-1.5-.7l-1.1 1.5 1.3.7.7-1.7a4.8 4.8 0 0 1-1.6-.8l-.9 1.6.7.5 1.1-1.5-1-.6c-.9-.8-2.2.4-1.3 1.3h.1a.9.9 0 1 0 1.3-1.3zm8.1 2.8l-.2-.4-.3-.2h-.9l-.3.3v.3a.3.3 0 0 0 0 .4v.2c0 .1.1.2.2.3l.2.2h.4c.1.1.2.1.4 0h.2l.3-.3v-.7z"/><path d="M12.9 58.4a.9.9 0 1 0 0-1.8.9.9 0 0 0 0 1.8z"/><path d="M12.7 57.7a.4.4 0 0 0 .1.3c0 .1.1.2.2.3l.3.2h.6l.4-.2v-.2a.8.8 0 0 0 .2-.4c0-.1-.1-.2-.1-.3l-.2-.3-.3-.2h-.6l-.4.3-.2.2a.6.6 0 0 0-.1.4zm-2.2-.2v-.4a19903286476637.9 19903286476637.9 0 0 0-.2-.2l-.2-.2h-1l-.2.2h-.2v.4s0 .3.1.3v.4l.2.2h.2c0 .1.2.1.2.1h.6l.3-.2c.1-.1.2-.2.2-.3a.4.4 0 0 0 .1-.3v-.3l-.3-.4H10l-.4-.2h.6v1.6H8.9v-.7.4l.2.3.3.2h.6a.5.5 0 0 0 .4-.2l.2-.2a.7.7 0 0 0 .1-.5z"/><path d="M9.8 56.4h-.2a.1.1 0 0 0-.1.1c-.1 0-.2 0-.2.1h-.2l-.2.2v.5a.6.6 0 0 0 .1.4c0 .1.1.2.1.3l.3.2h.6l.4-.2.2-.2a.9.9 0 0 0 .1-.5v.7l-.2.2h-.1l.3-.2.2-.3c.1-.1.1-.2.1-.4v-.2a.5.5 0 0 0-.2-.4h-.2l-.4-.2z"/><path d="M10.1 58.4a1 1 0 0 0 0-1.9 1 1 0 0 0 0 1.9z"/><path d="M9.2 56.4h-.4l-.3.2-.2.3c0 .1-.1.3-.1.4v.2a.5.5 0 0 0 .2.4l.2.2h.9l.3-.2c.1 0 .1-.1.2-.3V57a.8.8 0 0 0-.2-.4h-.6z"/><ellipse cx="37.1" cy="32.7" rx="25.3" ry="7.8"/></g><ellipse cx="36.9" cy="33.3" fill="#dfb78c" rx="21.6" ry="6"/><path fill="#2f1912" d="M.8 51.1l1 1.6 1.4-1.1a3.6 3.6 0 0 1-.7-1 .9.9 0 0 0-1.6 1c.5.9 1.1 1.8 1.7 2.7L4 53.2 3.1 52a1 1 0 0 0-1.3-.3.8.8 0 0 0-.3 1.2l1.2 1.6c.7.7 2.1-.3 1.5-1.1a26.1 26.1 0 0 1-1.7-2.8l-1.6 1a11.3 11.3 0 0 0 1 1.3c.7.8 2-.2 1.5-1.1l-1-1.6c-.6-1-2.2-.1-1.6.9z"/><path fill="#2f1912" d="M1.9 52.6H2a.3.3 0 0 1 .1.2.1.1 0 0 1 .1.1c-.1-.2-.1-.2-.1-.1a.3.3 0 0 1 .1.2 1 1 0 0 0 1.1.7 1 1 0 0 0 .7-1.1 2.6 2.6 0 0 0-.8-1.3 1 1 0 0 0-1.3 0 1 1 0 0 0 0 1.3z"/><path fill="#2f1912" d="M3.4 55.1h.1l.9-1.6-.3-.2a.9.9 0 0 0-1.3 1.3 10.7 10.7 0 0 0 6.6 3.7c1.1.1 1.6-1.7.5-1.8a8.7 8.7 0 0 1-5.8-3.2l-1.3 1.4a1.5 1.5 0 0 0 .7.5.9.9 0 1 0 .9-1.6h-.1c-1-.6-1.9 1-.9 1.6z"/><path fill="#2f1912" d="M2.1 52.6a13.8 13.8 0 0 0 4.1 3.9c.7.5 1.8-.5 1.2-1.2s-.3-.4-.5-.6l-1.1 1.4 2.7 1.3c1.1.4 1.6-1.4.5-1.8a12 12 0 0 1-2.3-1.1c-.8-.5-1.9.8-1.1 1.5l.2.2 1.3-1.3a10.7 10.7 0 0 1-3.4-3.3c-.6-.9-2.2 0-1.6 1zm12.3 4.1h-.6c-.3-.1-.1.1.5.3l-.5 1.3c-.2.1.1.1 0 0v-1.6h-.6l-.2 1.7c-.1.1-.2 0-.2-.1a.9.9 0 0 0 1.3-1.3 2.5 2.5 0 0 0-1.1-.4.9.9 0 0 0-.9.8.8.8 0 0 0 .6 1 1.9 1.9 0 0 0 1.5 0 .9.9 0 0 0 0-1.7 1.4 1.4 0 0 0-.9 0 .9.9 0 0 0-.6 1.3c.4.7 1 .6 1.7.5a1 1 0 0 0 .9-.9c0-.4-.4-1-.9-.9z"/><path fill="#2f1912" d="M9.3 58.1l1.1.5.5-1.8H10a.9.9 0 1 0-.4 1.7l.9.2c1.1.1 1.1-1.8 0-1.9h-.8c-1-.1-1.2 1.5-.2 1.8a8.7 8.7 0 0 0 3.2.2c1.1-.2.8-1.8-.2-1.8h-1.3c-1 0-1.3 1.6-.2 1.8h1c1.2.2 1.7-1.5.5-1.7a4.7 4.7 0 0 1-1.5-.6l-.6-.4c-.3-.1-.6 0-.8-.2l-.7 1.7 3.3.9a.9.9 0 0 0 .7-1.7 2.5 2.5 0 0 0-1.7-.4l-2-.6a.9.9 0 0 0-1.1.6 1 1 0 0 0 .6 1.2l1.8.5c.4.1 1.1 0 1.5.3l.7-1.7a20.2 20.2 0 0 1-3.3-.9.9.9 0 0 0-.7 1.7l.8.3.7.4a6.4 6.4 0 0 0 1.8.6l.5-1.7-1.1-.2-.2 1.8h1.3l-.3-1.8a5.5 5.5 0 0 1-2.2-.2l-.3 1.8h.8v-1.8H10l-.4 1.7.8.2a.9.9 0 0 0 .5-1.8l-.6-.3c-1-.6-2 1-1 1.6zm-6.5-7.2h-.4a.2.2 0 0 0-.2.2c-.1.1-.2.2-.2.3a.4.4 0 0 0-.1.3v.3c.1.1.1.3.3.4h.1l.5.2h.4l.3-.2.2-.3c0-.1.1-.2.1-.4v-.2a.5.5 0 0 0-.2-.4l-.3-.1z"/><path fill="#2f1912" d="M12.4 56.4H12l-.3.2c-.1.1-.2.2-.2.3a.4.4 0 0 0-.1.3v.3a.8.8 0 0 0 .2.4h1.1l.3-.2.2-.3v-.6a.5.5 0 0 0-.2-.4l-.2-.2z"/><path fill="#2f1912" d="M11.1 58.1a1 1 0 0 0 0-1.9 1 1 0 0 0 0 1.9z"/><path fill="#2f1912" d="M12.8 58c0-.2-.1-.3-.1-.4l-.2-.3-.3-.2h-.6l-.4.2-.2.2a4.3 4.3 0 0 0-.1.5.8.8 0 0 0 .1.4.2.2 0 0 0 .2.2l.3.2h.6c.1-.1.3-.1.4-.3h.1c.1-.2.2-.3.2-.5zm2.2-1.2h-.4l-.3.2-.2.3c0 .1-.1.2-.1.4v.2a.5.5 0 0 0 .2.4l.2.2h.9l.3-.2.2-.3c0-.1.1-.2 0-.3v-.3a.8.8 0 0 0-.2-.4H15z"/><path fill="#2f1912" d="M14.4 56.7h-.1c0 .1-.1.2-.1.3a.4.4 0 0 0-.1.3.6.6 0 0 0 .1.4c0 .1.1.2.1.3h.9a.5.5 0 0 0 .4-.2h.1c.1 0 .1-.1.2-.3s.1-.2 0-.3 0-.3 0-.4l-.2-.3h-.9a.5.5 0 0 0-.4.2z"/><path fill="#2f1912" d="M14.3 57.4l-.2.3a.4.4 0 0 0-.1.3.6.6 0 0 0 .1.4c0 .1.1.2.2.3h.9l.4-.2c.1 0 .2-.1.2-.3a.4.4 0 0 0 .1-.3.6.6 0 0 0-.1-.4c0-.1-.1-.2-.2-.3h-.9z"/><path fill="#2f1912" d="M15.3 59h.4l.3-.2c.1-.1.2-.2.2-.3s.1-.2.1-.3v-.3a.8.8 0 0 0-.2-.4h-.2l-.5-.2H15c-.2.1-.3.1-.3.2s-.2.2-.2.3-.1.2-.1.4v.2c.1.2.1.3.3.4v.2zm-1.6-23.4v.9h.2v-.8a.3.3 0 0 0-.1-.2.2.2 0 0 0-.2.2v.8c0 .1 0 .2.1.2s.1-.1.1-.2a1.4 1.4 0 0 0 0-.9c0-.1 0-.1-.1-.1s-.1 0-.1.1z"/><path fill="#2f1912" d="M13.6 39.8v-2h-.3a13.7 13.7 0 0 0 .2 1.9c0 .1.2.2.2 0a1.3 1.3 0 0 0 .1-.6v-2.4c0-.2-.2-.2-.2 0a5.7 5.7 0 0 0 .1 1.3c0 .2.2.1.2 0a12.1 12.1 0 0 0 0-1.9c-.1-.1-.3-.1-.3 0v.2c0 .1.3.1.3 0v-.2h-.3a10.9 10.9 0 0 1 .1 1.8h.2c0-.5-.1-.9-.1-1.3h-.2V39c0 .2.1.4 0 .6h.2a12.8 12.8 0 0 1-.1-1.9.2.2 0 0 0-.3 0 14.1 14.1 0 0 0 .1 2c0 .1.3.1.2 0z"/><path fill="#2f1912" d="M13.6 42.4v-.9h-.3a2 2 0 0 1 .1.7c0 .2.3.1.3 0v-1.4h-.3a7.7 7.7 0 0 1 .2 1.5c0 .1.2.1.2 0a22.6 22.6 0 0 0 0-2.6c-.1-.1-.3-.2-.3 0a4.7 4.7 0 0 0-.1 1.7c0 .1.2.1.3 0v-1.3a.1.1 0 1 0-.3 0V44c0 .2.2.2.3 0v-2.1h-.3l.2 2.3h.2v-.8c0-.1-.1-.2-.2-.1h-.1c-.2.1 0 .4.1.3h-.1v.8h.2v-2.5c0-.2-.2-.2-.3 0V44h.3a25.4 25.4 0 0 1 0-3.9h-.3a5.6 5.6 0 0 1 0 1.3h.3a4.3 4.3 0 0 1 0-1.6h-.2a22.6 22.6 0 0 1 .1 2.6h.2a8.1 8.1 0 0 0-.1-1.6c-.1-.1-.3-.1-.3.1v1.4h.3a1.3 1.3 0 0 1-.1-.6c0-.1-.3-.1-.3 0v.9c0 .2.3.2.2 0z"/><path fill="#2f1912" d="M13.6 45.3c-.1-.1-.3-.1-.3.1l.2.7c0 .1 0 .1.1.1s.1-.1.1-.2l-.2-1.1h-.2l.2 1c0 .2.3.1.2 0v-1.2h-.2l.3 1c0 .2.3.1.3 0l-.2-1.1h-.2v.6h.1c.1 0 .1-.1.1-.2v-1c0-.1-.3-.1-.3 0v.7h.3l-.2-.8c0-.2-.2-.1-.2 0v.7h.3v-.4c0-.2-.3-.1-.2 0v.9c.1.2.3.1.3-.1l-.2-.8h-.2v.4c.1.2.3.1.3 0V44h-.2v.7c.1.2.3.2.3 0V44h-.3l.2 1h.2v-.6c0-.1-.2-.1-.2.1v1.1h.2l-.3-1c0-.1-.2-.1-.2.1v1.2h.2l-.2-1h-.1c-.1.1-.1.1-.1.2l.2 1.1h.2v-.7h-.3c.1.2.3.1.3-.1z"/><path fill="#2f1912" d="M13.4 46.4a.4.4 0 0 1-.1-.3h-.2a7.5 7.5 0 0 0 .4 1.6h.2l-.2-1.9a.1.1 0 0 0-.3 0l.3 1.6c.1.1.3.1.3-.1s-.1-1-.1-1.5h-.3l.2 1.2c0 .1.2.1.2 0v-1.1h-.3a5.1 5.1 0 0 0 .2 1.3c.1.2.3.2.3 0l-.2-1.7a.2.2 0 1 0-.3 0l.2 1.7h.3a5.1 5.1 0 0 1-.2-1.3c0-.1-.3-.1-.3 0V47h.2v-1.2a.1.1 0 1 0-.3 0 7.6 7.6 0 0 1 .1 1.5h.3l-.3-1.5h-.3l.3 1.9h.2c-.1-.5-.3-1-.4-1.5s-.2-.1-.2 0a.9.9 0 0 0 .1.5c0 .1.3 0 .2-.2z"/><path fill="#2f1912" d="M13.7 48.8l-.2-.9c0-.2-.2-.1-.2 0l.3 1.9h.2a15 15 0 0 1-.2-2.2c0-.1-.3-.1-.3 0a6.4 6.4 0 0 0 .3 2c0 .2.3.1.3 0l-.2-2.1c0-.1-.3-.2-.3 0l.3 1.9c0 .1.3.1.2-.1l-.2-2.3h-.2a25.1 25.1 0 0 0 .4 2.7c0 .2.3.1.2 0l-.4-4.5a.2.2 0 0 0-.3 0l.5 4.5h.2c-.1-.9-.3-1.8-.4-2.7s-.3-.1-.2 0l.2 2.3h.2a11 11 0 0 1-.2-1.8h-.3l.2 2.1h.3a6.9 6.9 0 0 1-.3-2h-.3l.3 2.3c0 .2.3.1.2-.1l-.3-1.8h-.2l.2.9c0 .2.2.1.2 0z"/><path fill="#2f1912" d="M13.7 45.4l.3 2.4c0 .2.2.2.2 0a9.9 9.9 0 0 0-.3-2.4c0-.2-.2-.1-.2 0zm.1 4.2h-.1c0-.2-.3-.1-.2.1l.3 1.6h.2a3.4 3.4 0 0 1-.1-1.4h-.3l.3 1.3c0 .2.3.1.3 0v-1.7h-.3l.2 1.1c0 .2.3.1.3 0v-1H14c.1.6.1 1.2.2 1.7a.3.3 0 0 0 .1.2.2.2 0 0 0 .2-.2l-.3-1.7c0-.2-.2-.2-.2 0v1h.3l-.2-1.1c-.1-.1-.3-.1-.3 0V51h.2l-.2-1.4c0-.1-.3-.1-.3.1a7.7 7.7 0 0 0 .2 1.5c0 .2.3.1.2-.1a4.5 4.5 0 0 0-.3-1.6h-.2c.1.2.4.1.3-.1z"/><path fill="#2f1912" d="M13.9 50.9l.3 1.6h.2l-.3-1.7h-.2l.2 1.7h.3l-.3-1.5h-.3l.4 1.6c0 .2.3.1.3 0v-1.3h-.3l.2.9c0 .2.3.1.3 0v-.5a.1.1 0 0 0-.3 0c.1.9.3 1.9.5 2.9h.2l-.6-2.3c-.1-.2-.3-.1-.3 0a19.6 19.6 0 0 0 1.7 4.8c0 .2.3 0 .2-.1a20.1 20.1 0 0 1-1.6-4.7H14l.7 2.4c0 .1.3.1.2-.1a27 27 0 0 1-.4-2.8h-.3v.5h.3l-.2-1c0-.2-.3-.1-.3 0v1.4h.3l-.2-1.7c0-.2-.3-.1-.3.1l.3 1.4c.1.2.3.1.3 0l-.3-1.8c0-.1-.3-.1-.3.1a11.6 11.6 0 0 0 .4 1.8c0 .1.2.1.2-.1a5.1 5.1 0 0 0-.3-1.7c0-.2-.3-.1-.2.1z"/><path fill="#2f1912" d="M14.9 54.1h-.3a5 5 0 0 1 .5 1.3l.3-.2h-.2a.1.1 0 0 0-.2 0v.2h.2s.1.1.1 0a.1.1 0 0 0 .1-.1l-.5-1.4h-.2a.1.1 0 0 0-.1.1c0 .1 0 .2.1.2h.1a.3.3 0 0 0 .1-.2zm-.4 4.3a4.2 4.2 0 0 0 .9 1.4c.1.1.3 0 .2-.2l-.6-1.1a.2.2 0 0 0-.3.1 3.8 3.8 0 0 0 .9 1.5c.1.1.2 0 .2-.1s-.1-.4-.2-.6l-.4-.8c0-.1-.3 0-.2.1a5.3 5.3 0 0 0 .8 1.5h.2c.1-.1.1-.2 0-.2s-.1-.3-.1-.5l-.3-.8h-.3l.8 1.4a.2.2 0 0 0 .3-.1l-.5-1.5h-.3a6.1 6.1 0 0 1 .7 1.4c.1.1.3 0 .3-.2a6.9 6.9 0 0 1-.5-1.3h-.2l.8 1.3c.1.1.2 0 .2-.2a6.9 6.9 0 0 1-.7-1.5H16l.8 1.3c0 .1.3 0 .2-.1l-.6-1.2-.2.2a8.8 8.8 0 0 0 1.2 1.7c.1.1.3-.1.2-.2a6.6 6.6 0 0 1-1.2-1.7c-.1-.1-.3 0-.2.2l.6 1.1h.2l-.8-1.3c0-.1-.3-.1-.2.1a11.1 11.1 0 0 0 .7 1.6l.2-.2a5.7 5.7 0 0 1-.8-1.3.2.2 0 0 0-.3.1c.2.5.3 1 .5 1.5l.3-.2-.7-1.3c-.1-.1-.3-.1-.3.1l.5 1.4h.2l-.7-1.3c-.1-.2-.3-.1-.3.1l.3.6v.5s.1.2.1.1h.3l-.8-1.3H15l.3.6c.1.2.3.4.3.6h.2a3.2 3.2 0 0 1-.8-1.4h-.2l.6 1.2.2-.2a3.5 3.5 0 0 1-.8-1.3c-.1-.1-.3-.1-.3.1z"/><path fill="#2f1912" d="M15.6 59.6a2 2 0 0 0 .9.9c0 .1.2 0 .1-.1a1 1 0 0 0-.4-.7c-.1-.1-.3.1-.2.2a2.7 2.7 0 0 0 .8.7c.1 0 .3-.1.2-.2a1 1 0 0 0-.4-.5c-.1 0-.3.1-.2.2a.7.7 0 0 0 .6.4c.1 0 .2-.1.1-.2a1.8 1.8 0 0 0-.5-.7h-.1l.4.5c.1.1.3.2.4 0a.1.1 0 0 0 .1-.1l-.5-.6c-.1-.1-.3.1-.2.2a1.3 1.3 0 0 0 .7.6c.1.1.3 0 .2-.1a2.3 2.3 0 0 0-.7-.7c-.1-.1-.2 0-.2.1a1 1 0 0 0 .4.5l.4.4h.1l-1.5-.3c-.1-.1-.2.1-.1.2a2 2 0 0 0 1.5.4c.1 0 .2-.2 0-.3h-.8a.2.2 0 0 0-.1.3c.4.3.9.1 1.4.1s.2-.1.1-.2l-1.2-.7-.2.2.7.4v-.2l-.6-.2h-.4c-.2.2 0 .3.1.2h.5a.4.4 0 0 0 .5.1c.1 0 .1-.2 0-.2l-.6-.4c-.2-.1-.3.1-.2.2l1.3.7v-.2a1.6 1.6 0 0 0-.7 0 .7.7 0 0 1-.6-.2v.3h.8v-.3a1.2 1.2 0 0 1-1.3-.3v.2a4 4 0 0 0 1.5.3.1.1 0 0 0 .1-.1 1 1 0 0 0-.4-.5.9.9 0 0 1-.3-.5l-.2.2.6.6.2-.2a1.8 1.8 0 0 1-.7-.5h-.2l.4.5-.2-.2-.3-.2c-.1-.2-.2 0-.1.1s.3.5.4.8v-.2l-.4-.3-.2.2c.2 0 .3.2.4.3l.2-.2a1.3 1.3 0 0 1-.7-.5H16l.4.5h.2a3 3 0 0 1-.8-.8c-.1-.1-.3 0-.2.1z"/><path fill="#2f1912" d="M15.2 59.1c0-.1-.1-.1-.2-.2s-.3.1-.2.2a4.9 4.9 0 0 0 1.2 1.3h.1a.3.3 0 0 0 0-.4l-.4-.4-.9-.6h-.1c-.2.2.1.5.2.7l.6.6h.2a1 1 0 0 0-.4-.8l-.8-.5c-.1-.1-.3 0-.2.1a2.1 2.1 0 0 0 1 1.3c.1.1.2-.1.2-.2a4.7 4.7 0 0 0-1.5-1.4c-.1 0-.2.1-.1.2a2 2 0 0 0 1.1 1.1.2.2 0 0 0 .2-.2 2.3 2.3 0 0 0-1.4-1c-.1-.1-.2 0-.2.1a1.4 1.4 0 0 0 .9.9.2.2 0 0 0 .2-.2l-.6-.7a1.5 1.5 0 0 0-.7-.3c-.3 0-.3.3-.2.5a.6.6 0 0 0 .5.6c.1.1.2-.1.1-.2l-.4-.4V59c0-.1.2 0 .2 0a1.5 1.5 0 0 1 .8.8l.2-.2a1.1 1.1 0 0 1-.8-.7v.2a1.9 1.9 0 0 1 1.2.9l.2-.2a1.8 1.8 0 0 1-1-.9H14a3.7 3.7 0 0 1 1.3 1.2h.2a2.7 2.7 0 0 1-.9-1.2l-.2.2.7.4a1.8 1.8 0 0 1 .5.7l.2-.2a1 1 0 0 1-.5-.4c-.1 0-.1-.1-.2-.2a.1.1 0 0 0-.1-.1h-.2l.7.5.3.2c0 .1.1.1.1.2h.3A3.8 3.8 0 0 1 15 59v.2c.1.1.3 0 .2-.2z"/><path fill="#2f1912" d="M12 59.3l-.7-.4c-.2 0-.3.2-.1.3a5.4 5.4 0 0 0 1.9.7c.1.1.2-.2 0-.2L11 59c-.1-.1-.2.2 0 .3a13.2 13.2 0 0 0 3 .7h.1c0-.5-.7-.6-1-.7l-1.8-.6a.2.2 0 0 0-.1.3l2.1.7c.6.1 1.3.4 1.8.1s.1-.1.1-.2-1.1-.4-1.5-.5l-2.2-.2c-.1 0-.1.2 0 .2a8.4 8.4 0 0 0 2.7.8c.1 0 .2-.2 0-.2l-3.7-1.2c-.2-.1-.3.2-.1.2a13.9 13.9 0 0 0 3.6 1.1c.1.1.2-.2 0-.2a20.1 20.1 0 0 0-3.5-1c-.2 0-.2.3-.1.3l2.4.6 1.1.3a.6.6 0 0 0 .7-.1c.1 0 .1-.2 0-.2a11.7 11.7 0 0 0-2.6-1c-.1 0-.2.2 0 .3l2.6.7v-.3a11.1 11.1 0 0 1-3.6-.4.2.2 0 0 0-.1.3l2.9.8v-.3a9.5 9.5 0 0 1-3.7-.8v.3l3.4 1c.1 0 .2-.2 0-.3l-3.3-.9c-.2 0-.3.2-.1.3l3.3 1v-.3l-3.6-1c-.2 0-.3.2-.1.3l3.4 1v-.3a12.6 12.6 0 0 1-3.8-1v.3a32 32 0 0 0 4.2 1v-.3a11.1 11.1 0 0 1-4.4-.8c-.2 0-.3.2-.1.3a11.6 11.6 0 0 0 4.5.8c.1 0 .2-.2 0-.3a20.4 20.4 0 0 1-4.1-1 .2.2 0 0 0-.1.3 16.4 16.4 0 0 0 3.8 1c.2 0 .2-.2.1-.3l-3.4-1v.3l3.6 1a.2.2 0 0 0 .1-.3l-3.3-1v.3l3.4.9v-.3a20.7 20.7 0 0 1-3.3-1c-.2 0-.2.2-.1.3a16.1 16.1 0 0 0 3.8.8c.1 0 .2-.3 0-.3a10.5 10.5 0 0 1-2.9-.8v.3a15.5 15.5 0 0 0 3.7.4c.1 0 .2-.2 0-.2l-2.8-.8v.3a12.5 12.5 0 0 1 2.5.9v-.2c-.3.2-.7 0-1-.1l-1-.2-2-.6v.3a23.7 23.7 0 0 1 3.6.9v-.2a14.5 14.5 0 0 1-3.5-1.2v.2l3.8 1.2v-.2l-2.6-.8v.2l1.8.2.9.2c.2 0 .6 0 .7.2H15a3.4 3.4 0 0 1-1 0l-.9-.3-1.8-.6v.3l1.4.4.6.3c.1 0 .6.1.6.3l.2-.2a16.3 16.3 0 0 1-3-.7v.3l2.1.6v-.2a7.1 7.1 0 0 1-1.8-.8v.3l.6.3c.2.1.3-.1.2-.2z"/><path fill="#2f1912" d="M13.9 59.8H13c-.1 0-.1.2 0 .3a6.5 6.5 0 0 0 2.1.4.2.2 0 0 0 0-.3l-.8-.2h-1l1.3.2h1c.2-.1.1-.2 0-.3a12.9 12.9 0 0 1-1.9-.4v.3a3.4 3.4 0 0 1 1.4.2v-.3h-2.6c-.2 0-.2.2-.1.2a9.1 9.1 0 0 0 2.3.3v-.3h-1.5v.2l2.4.3c.2 0 .2-.3.1-.3a16 16 0 0 1-2.3-.3v.3c1 .2 2.1.9 3.2.4s.1-.2 0-.2l-1.9-.3v.2l1.7.2c.1 0 .2-.2 0-.3l-1.3-.4v.3l1 .2c.1 0 .2-.2.1-.2l-.2-.2a.1.1 0 1 0-.2.1l.2.2V60l-.9-.2c-.2 0-.3.3-.1.3l1.3.4v-.3h-1.8c-.1 0-.2.2 0 .2l1.8.3v-.2c-1 .4-2-.3-3-.5s-.3.2-.1.3a16 16 0 0 0 2.3.3v-.3l-2.4-.3c-.1-.1-.2.2 0 .2l1.6.2c.1 0 .1-.3 0-.3a7.8 7.8 0 0 1-2.2-.2v.3H15c.2 0 .2-.3.1-.3l-1.5-.2c-.1 0-.2.2-.1.2s1.4.2 2 .5V60c-.1.1-.4 0-.5 0h-1.7c-.1-.1-.2.2 0 .2l.9.2h.8v-.2a4.5 4.5 0 0 1-2-.4v.2h.9c.1 0 .2-.3 0-.3z"/><path fill="#2f1912" d="M16 60.4h.5v-.2h-2c-.2 0-.2.2-.1.2s1.7 0 2.6.2v-.3a.7.7 0 0 1-1-.4c0-.2-.3-.1-.2 0a.9.9 0 0 0 1.4.7.2.2 0 0 0-.1-.3h-2.6v.2h2c.2 0 .2-.2.1-.3l-.5-.2a.2.2 0 0 0-.1.3zm.5-1.1h-.3a.1.1 0 0 1-.1.1.1.1 0 0 0 .1.1.8.8 0 0 0 .4.4c.1 0 .1 0 .1-.1s.1-.1 0-.2h-.3a.1.1 0 0 0 .1-.1c.1 0 0-.1 0-.1zm-5.1-1h-.9c-.1 0-.2.2-.1.2a2.8 2.8 0 0 0 1.1.8h.1c.1-.1.1-.1 0-.2a3.5 3.5 0 0 0-1.3-.8h-.2a.1.1 0 0 0 .1.1l.5.4h.2a.3.3 0 0 0-.1-.2l-.5-.3v.2a3.6 3.6 0 0 1 1.2.8l.2-.2-1-.7v.2h.9a.2.2 0 0 0 .2-.2z"/><path fill="#2f1912" d="M8.6 58.3h-.2v.2l1.2.3c.1 0 .1-.2 0-.3L8 58c-.2 0-.2.2-.1.3l2.3.7c.1.1.2-.1.1-.2l-1.8-.7c-.2-.1-.3.2-.1.2l2.5 1.1a.2.2 0 0 0 .1-.3L8.9 58v.2l2.1.8a.2.2 0 0 0 .1-.3l-1.4-.6v.2l1.9.6c.1.1.2-.1.1-.2l-1.2-.8v.3l1.8 1v-.3a5.4 5.4 0 0 1-2.2-.4v.3l1.2.3v-.2a6.5 6.5 0 0 1-2-.5v.3a2.3 2.3 0 0 1 .7.3v-.3l-1.8-.4v.2l1.1.5v-.3l-1.4-.5c-.1-.1-.2.2-.1.2a6.1 6.1 0 0 1 1.4.7l.2-.2-1.5-.6c-.1-.1-.2.2-.1.2l1.6.7c.2.1.3-.1.2-.2L8 58.4c-.1 0-.2.2-.1.2l1.6.7v-.2L8 58.5v.2l1.6.5V59a10.6 10.6 0 0 1-2.1-1.1v.3l2.8.7c.2 0 .2-.2.1-.2a15.1 15.1 0 0 0-1.8-.9.2.2 0 0 0-.1.3l2.3.8c.1 0 .2-.2 0-.3l-2.1-.7-.2.2 1.8.8v-.2l-2.8-.8a.2.2 0 0 0-.1.3 15.1 15.1 0 0 0 2.2 1.1.2.2 0 0 0 .1-.3L8 58.4c-.2 0-.3.2-.1.3a12.7 12.7 0 0 0 1.8.6c.1.1.2-.1.1-.2l-1.5-.7v.3l1.4.5.2-.2-1.6-.7v.2l1.4.6c.1.1.2-.2.1-.2l-1.5-.7v.2l1.4.6c.2 0 .3-.2.1-.3l-1.2-.4c-.1-.1-.2.2 0 .2l1.4.5c.2 0 .2-.2.1-.3L9 58.4c-.2 0-.3.2-.1.3l2.1.5a.2.2 0 0 0 .1-.3l-1.2-.4c-.2 0-.2.2-.1.3a6.2 6.2 0 0 0 2.3.4.2.2 0 0 0 .1-.3l-1.9-1c-.1-.1-.3.2-.1.3l1.1.7v-.2L9.5 58a.2.2 0 0 0-.1.3l1.4.6.2-.2-2.1-.7c-.2-.1-.3.2-.1.2l2 1.1v-.2l-2.4-1v.2l1.7.7.2-.2L8 58v.3l1.5.5v-.3a2 2 0 0 1-1.1-.3c-.2 0-.3.2-.1.3h.2c.2 0 .3-.2.1-.3z"/><path fill="#2f1912" d="M2.9 53.9l-.5-.2c-.1 0-.2.1-.1.2l.4.6c.1.1.3-.1.2-.2l-.5-.6c-.2-.1-.3.1-.2.2l.5.6.2-.2-.5-.5c-.1-.1-.3.1-.2.2l.6.6c.1.2.3 0 .2-.2l-.3-.2v.2a10 10 0 0 1 1.5 1.4l.2-.2-1-.8c-.1-.1-.3.1-.2.2l1.7 1.7.2-.3a5.7 5.7 0 0 1-1.5-1.2l-.2.2a21.1 21.1 0 0 0 2.3 1.9v-.2l-.9-.8-.2.2a11.5 11.5 0 0 0 3.3 2.1.1.1 0 1 0 .1-.2l-2.3-1.5c-.1-.1-.2.1-.1.2A9 9 0 0 0 8 58.3c.2 0 .3-.2.2-.3l-1.8-.8c-.1-.1-.3.1-.2.2a5 5 0 0 0 1.7 1.1v-.3a3.3 3.3 0 0 1-1.3-.7v.3l1 .7v-.3a1.4 1.4 0 0 1-.9-.8l-.2.2a8.4 8.4 0 0 0 4 1.4c.1 0 .2-.2 0-.2a4.8 4.8 0 0 1-1.6-.8l-1.4-.7-1.5-.6-1.4-1.1c-.1-.1-.3.1-.2.2a6.6 6.6 0 0 0 2.8 1.6l1.7 1a3.8 3.8 0 0 0 1.6.6v-.2a7.5 7.5 0 0 1-3.8-1.5c-.2 0-.3.1-.2.2a1.7 1.7 0 0 0 1 1c.2.1.2-.2.1-.2l-1-.8c-.1-.1-.3.2-.1.3a3.1 3.1 0 0 0 1.4.7c.1 0 .2-.2 0-.3a3.1 3.1 0 0 1-1.5-1v.2l1.7.8V58a8.6 8.6 0 0 1-2.4-1.1v.2L8 58.6v-.2a11.1 11.1 0 0 1-3.2-2.1c-.1-.1-.3.1-.2.2a3.9 3.9 0 0 0 1 .8c.1.1.2-.1.1-.2l-2.2-1.9c-.1-.1-.3.1-.2.2l1.5 1.3c.2.1.3-.1.2-.2l-1.7-1.7-.2.2 1 .8c.2.1.4-.1.2-.2a10.7 10.7 0 0 0-1.6-1.4c-.1-.1-.2.1-.1.2l.2.2.2-.2-.6-.6-.2.2.5.5c.1.1.3-.1.2-.2l-.5-.6-.2.2.5.6.2-.2-.4-.5-.2.2.4.2c.2 0 .3-.2.2-.3zm10.7 1.6c-.1-.2-.3-.1-.3.1a8.4 8.4 0 0 0 .6 1.4h.2a9.1 9.1 0 0 1-.7-1.4.2.2 0 0 0-.3.1 4.5 4.5 0 0 0 1.4 1.9c0 .1.1.1.2 0v-.2a3.1 3.1 0 0 1-1.3-1.7h-.3l.8 1.3c.1.1.3 0 .2-.1a7.8 7.8 0 0 1-.5-1.4h-.2c0 .2.3.1.2-.1zM2.3 46a8 8 0 0 1 2.2-6.9A8.5 8.5 0 0 1 7.9 37a6.4 6.4 0 0 1 4.3-.4c.2.1.3-.1.2-.2s-2.9-.2-4.2.2a10.3 10.3 0 0 0-3.8 2.2A8.4 8.4 0 0 0 2 46c.1.2.3.1.3 0z"/><path fill="#2f1912" d="M4.5 37.7a2.4 2.4 0 0 0-.2.8c0 .1.1.2.2.1a3.4 3.4 0 0 0 .9-.8h-.3l-.2.6a.2.2 0 0 0 .2.2l.8-.9h-.3v.4c0 .1.1.2.2.1s.5-.4.6-.7h-.2v.2c-.1.2.1.3.2.2l.4-.6c.1-.1 0-.2-.1-.2a5.7 5.7 0 0 0-1.3.8c-.1.1.1.3.2.2a2.1 2.1 0 0 0 .8-.6c0-.1-.1-.3-.3-.2l-.6.7c-.1.1 0 .2.1.2a1.8 1.8 0 0 0 .7-.5c.1-.1 0-.3-.2-.2l-1.9 1 .2.2c.7-1 2-1.2 2.9-2s0-.2-.1-.2l-.6.4c-.2.1-.1.3.1.2a1.2 1.2 0 0 0 .5-.5c.1-.1 0-.2-.1-.2a.8.8 0 0 0-.8.7c0 .1.2.1.2.1a3.9 3.9 0 0 0 1-.8c0-.1-.1-.3-.2-.2a.6.6 0 0 0-.3.6.1.1 0 0 0 .1.1.8.8 0 0 0 .7-.5.3.3 0 0 0-.1-.2c-.3 0-.5.2-.4.4s0 .2.1.1a.6.6 0 0 0 .6-.5c.1-.1-.1-.1-.1-.1a.9.9 0 0 0-.7.3c-.1.1 0 .2.1.3a.8.8 0 0 0 .8-.9h-.2c-.2.1-.4.2-.4.4a.5.5 0 0 0 .2.4c.5.1.9-.6 1-.9a.2.2 0 0 0-.2-.2c-.3.1-.7.4-.3.7s.8-.1 1-.4-.2-.3-.3-.2a1.4 1.4 0 0 0-.2.7c0 .1 0 .2.1.1a.8.8 0 0 0 .8-.6.2.2 0 0 0-.2-.2.5.5 0 0 0-.3.5c0 .1 0 .2.1.2a1.1 1.1 0 0 0 1.1-.7c.1-.1 0-.2-.1-.2s-.5.3-.4.6 0 .1.1.1 1-.1 1.1-.5-.4-.4-.6-.2a.5.5 0 0 0 .1.8c.5.1.8-.4.8-.8s0-.2-.1-.2a.3.3 0 0 0-.2.6c.4.3.7-.2.8-.5s-.2-.2-.2-.1a.6.6 0 0 0-.1.7h.2c.2-.2.3-.6 0-.6s-.3.3-.2.4h.2l.2-.3c0-.2-.2-.3-.3-.2v.3h.2v.2h.2a.4.4 0 0 1 0-.5h-.3a.3.3 0 0 1-.3.3v-.2c-.1.1-.1.3-.2.5s-.6 0-.3-.2-.1.2-.2.2h-.3c-.1-.1-.1-.2.1-.2v-.2a.8.8 0 0 1-.9.5h.1l.2-.2-.2-.2a.5.5 0 0 1-.5.5h.1l.3-.5-.3-.2a.8.8 0 0 1-.2.4h-.7c0-.1 0-.2.2-.2l-.2-.2c0 .2-.1.3-.3.5H8c-.1-.1-.1-.1 0-.2h-.2c.1.3-.2.5-.5.5v.2l.5-.3c-.1.2-.2.2-.4.3h.3l-.2-.2c0 .2-.2.3-.4.3v.2a.5.5 0 0 1 .2-.4l-.2-.2a1.6 1.6 0 0 1-.8.8h.2a.5.5 0 0 1 .5-.5v-.2a.7.7 0 0 1-.4.5v.2l.6-.3-.2-.2c-.9.7-2.2.9-2.9 2s.1.2.2.2l1.8-1.4-.1.1a.7.7 0 0 1-.5.4v.3l.6-.7H6l-.6.5v.2a2.6 2.6 0 0 1 1.1-.7V37l-.4.5.2.2v-.3a.1.1 0 1 0-.2-.1 1.7 1.7 0 0 1-.6.6h.2v-.4a.2.2 0 0 0-.3-.1 1.2 1.2 0 0 1-.6.8l.2.2.2-.7c.1-.1-.2-.2-.2-.1a6 6 0 0 1-.8.8h.2a.7.7 0 0 1 .2-.6c0-.2-.2-.3-.3-.2z"/><path fill="#2f1912" d="M2.6 41.6v.2c0 .1.2.2.2 0 .5-2.1 2.1-3.6 3.7-4.9s0-.3-.2-.2a9.6 9.6 0 0 0-3.7 5.1h.2v-.2c0-.1-.2-.1-.2 0z"/><path fill="#2f1912" d="M2.8 41.8a23.6 23.6 0 0 1 2.6-3.6L7 36.9l.9-.5.4-.2.5-.2c.2.1.2-.2 0-.2h-.4L8 36l-1 .5-1.6 1.4a17.8 17.8 0 0 0-2.8 3.8.1.1 0 1 0 .2.1z"/><path fill="#2f1912" d="M2.3 44a20.7 20.7 0 0 1 1.8-4.7c.1-.2-.2-.3-.3-.1A20.7 20.7 0 0 0 2 43.9c0 .2.3.3.3.1z"/><path fill="#2f1912" d="M2.4 44a12.7 12.7 0 0 1 2.9-6.2c.1-.2-.1-.4-.2-.2a13.7 13.7 0 0 0-3 6.3c0 .2.2.2.3.1zm3.7-7c0 .2 0 .4.2.4s.4-.3.6-.4 0-.3-.1-.2a.8.8 0 0 0-.4.4.2.2 0 0 0 .2.2 1.1 1.1 0 0 0 .7-.6c.1-.1 0-.2-.1-.2s-.4.2-.4.4l.2.2a1.2 1.2 0 0 0 .7-.7c.1-.1 0-.3-.1-.2a.5.5 0 0 0-.3.5c0 .1.1.2.1.1a.8.8 0 0 0 .7-.7c.1 0 0-.1-.1-.1a.4.4 0 0 0-.4.6h.2c.3-.1.4-.4.6-.6s-.1-.3-.2-.2a.9.9 0 0 0-.3.6c0 .1.1.2.2.1a.9.9 0 0 0 .6-.6.2.2 0 0 0-.2-.2.9.9 0 0 0-.3.6.2.2 0 0 0 .2.2.9.9 0 0 0 .5-.7c.1-.1-.1-.2-.2-.1a.5.5 0 0 0-.3.5c0 .1.1.1.2.1a.5.5 0 0 0 .4-.3h-.3c-.1.3-.5.4-.8.5l-.6.3c-.2.2 0 .3.1.3a7.1 7.1 0 0 0 1.5-.8.8.8 0 0 0 .2-1h-.3c-.1.2-.4.9.1.9s.6-.5.7-.7-.1-.3-.2-.2a1 1 0 0 0-.5.6c0 .1.1.2.2.1a2.7 2.7 0 0 0 .7-.8h-.2a1.4 1.4 0 0 0-.2.6c0 .2.2.2.3.1a1.6 1.6 0 0 0 .4-.7c.1-.2-.2-.3-.2-.1a1.4 1.4 0 0 0-.2.6c-.1.1.1.2.2.1l.4-.6c.1-.2-.2-.2-.2-.1a.9.9 0 0 0-.3.7c.1.1.2.2.2.1a.9.9 0 0 0 .6-.6c.1-.1-.1-.2-.2-.1a1.4 1.4 0 0 0-.2.6c0 .1.1.2.2.1a2.1 2.1 0 0 0 .4-.6c0-.2-.2-.2-.3-.1s-.3.6-.1.8.2.1.2 0a1.2 1.2 0 0 0 .6-.8.2.2 0 0 0-.3-.1 1.3 1.3 0 0 0-.1.6.1.1 0 0 0 .1.1c.4-.1.5-.3.6-.7s-.2-.1-.3 0a.7.7 0 0 0-.1.6c0 .1 0 .2.1.1a.5.5 0 0 0 .2-.8c0-.1-.1-.1-.2 0a.9.9 0 0 0-.1.7c0 .1.2.1.2.1a1.1 1.1 0 0 0 .2-.7c-.1-.2-.3-.1-.3 0v.5h.2l.2-.2h-.3l.3.5v-.2a2.5 2.5 0 0 0-1.2-.2 1.5 1.5 0 0 0-1.1.4c-.1.2.1.3.3.3l.6-.2.7-.3v-.2a5.4 5.4 0 0 1-2.1.5c-.2 0-.2.2-.1.2a2.5 2.5 0 0 0 1.7-.1c.2-.1.1-.3-.1-.3s-1.4.2-2 .6-.1.3.1.2a4.2 4.2 0 0 0 1.5-.4V36l-.8.3v.2a12.4 12.4 0 0 1 2.7-.3.2.2 0 0 0 .1-.3.9.9 0 0 0-1 0c-.1 0-.1.1 0 .2a.6.6 0 0 0 .7.1.3.3 0 0 0 .1-.2.9.9 0 0 0-.6-.3v.2h.5c.1 0 .1-.2 0-.3l-1-.2c-.1 0-.3.2-.1.2a.8.8 0 0 0 .9-.1c.1 0 0-.1 0-.2h-.8c-.2.1-.1.3 0 .3a.6.6 0 0 1 .6 0v-.2a.5.5 0 0 1-.6.1v.2l1 .3v-.3l-.5.2c-.1 0-.1.2 0 .2l.5.2v-.2a.5.5 0 0 1-.5 0v.2a.8.8 0 0 1 .7 0v-.2a12.6 12.6 0 0 0-2.7.4c-.2 0-.1.3 0 .2a1.7 1.7 0 0 0 1-.3c.1 0 0-.3-.1-.2l-1.6.4v.2c.6-.4 1.4-.3 2-.5V36a2 2 0 0 1-1.5.2v.2a4.2 4.2 0 0 0 2.2-.5c.1 0 0-.3-.1-.2l-.9.3c-.1.1-.4.1-.3.2h.4a2.2 2.2 0 0 1 1.6 0c.1.1.2-.1.1-.2l-.2-.4h-.1c0-.1-.1-.2 0-.4h-.3a.7.7 0 0 1-.1.5h.3a.6.6 0 0 1 0-.6h-.2c.2.1.1.3 0 .4h.1c0-.2.1-.3.1-.5h-.2a.5.5 0 0 1-.3.5c0-.2.1-.3.1-.5h-.2a1.6 1.6 0 0 1-.4.7h.1c-.1-.1.1-.3.1-.5h-.2l-.2.4h.2a.9.9 0 0 1 .1-.5h-.2l-.5.5h.2a1.4 1.4 0 0 1 .2-.6H10a.9.9 0 0 1-.3.5h.2l.2-.5h-.2a1.6 1.6 0 0 1-.4.7h.2a1.1 1.1 0 0 1 .1-.5c.1-.2-.1-.3-.2-.1a4.6 4.6 0 0 1-.7.7l.3.2a.5.5 0 0 1 .3-.5h-.2a.7.7 0 0 1-.3.5c-.2.1 0-.3.1-.4h-.3c.3.4-.1.7-.4.8l-1.1.5v.1c.5-.4 1.3-.3 1.6-.9s-.2-.3-.3-.1-.1.1-.2.1l.2.2c0-.2 0-.2.2-.3h-.1a.8.8 0 0 1-.4.4h.2a.4.4 0 0 1 .1-.3l-.2-.2a1 1 0 0 1-.4.5h.2c0-.2 0-.3.1-.4l-.2-.2a.9.9 0 0 1-.4.6h.2c-.1-.1 0-.2.1-.3h-.1a1.2 1.2 0 0 1-.5.5h.1l.2-.3h-.2a1 1 0 0 1-.6.5h.3v-.2c-.1.3-.3.4-.6.5h.2l.2-.3-.2-.2h-.4c0-.1-.2-.3-.3-.1z"/><path fill="#2f1912" d="M2.5 43.5a6.4 6.4 0 0 1 2.2-4.8c.1-.1 0-.3-.2-.2a6.5 6.5 0 0 0-2.2 5c0 .2.2.2.2 0z"/><path fill="#2f1912" d="M5.7 37.7a12.9 12.9 0 0 0-2.8 3.8 9.2 9.2 0 0 0-.9 2.3 24.3 24.3 0 0 0 0 2.7.1.1 0 1 0 .3 0 8.2 8.2 0 0 1 0-2.7 9.2 9.2 0 0 1 .9-2.3 13.6 13.6 0 0 1 2.7-3.6c.1-.1 0-.3-.2-.2z"/><path fill="#2f1912" d="M3.7 39.6A22.8 22.8 0 0 0 2.2 44a5.7 5.7 0 0 0-.2 2.2 5.8 5.8 0 0 0 .3 2.3c0 .1.3.1.2-.1a8.5 8.5 0 0 1-.3-2.3 7.8 7.8 0 0 1 .3-2.2A21 21 0 0 1 4 39.7c.1-.1-.2-.3-.3-.1z"/><path fill="#2f1912" d="M3.3 40.6a11.5 11.5 0 0 0-1.2 8.5c0 .2.2.1.2-.1a12 12 0 0 1 1.2-8.3c.1-.1-.2-.3-.2-.1z"/><path fill="#2f1912" d="M3.3 40.6A12.8 12.8 0 0 0 2 44.5a11.1 11.1 0 0 0-.2 1.9v2.4c0 .1.3.1.3 0a30.5 30.5 0 0 1 .1-4.3 13.4 13.4 0 0 1 1.4-3.8c.1-.1-.2-.3-.3-.1z"/><path fill="#2f1912" d="M11.5 36.4a7.4 7.4 0 0 0-3.6.6 8.3 8.3 0 0 0-5.1 5.4c-1.2 3.1-1.4 7 .5 9.9a10 10 0 0 0 5.9 4.1 16.5 16.5 0 0 0 3.2.6h1s.2 0 .2.1 0-.1.2.1.3 0 .2-.2a12.5 12.5 0 0 1-1.9-7.3.1.1 0 0 0-.3 0 13.4 13.4 0 0 0 2 7.5l.2-.2c-.3-.3-.6-.2-1-.2l-2.4-.3a12.2 12.2 0 0 1-6.2-3.1c-2.4-2.5-2.5-6.1-1.9-9.3a9 9 0 0 1 4.9-6.6 7.2 7.2 0 0 1 4.1-.8.1.1 0 0 0 0-.3z"/><path fill="#2f1912" d="M5.8 38a.5.5 0 0 0-.5.3c-.1.1-.1.2 0 .2h.2l.3-.5.5-.2v-.2l-.4.3c-.2 0-.1.3.1.2l.4-.2c.1-.1-.1-.3-.2-.2l-.5.3v.2l.9-.7a.1.1 0 0 0 .1-.1h-.2l-.9.7a.1.1 0 1 0 .1.2c.2 0 .4-.2.6-.3l-.2-.2-.3.2v.2l.5-.4c.1 0 0-.2-.2-.2l-.5.3-.4.5.2.2c.1-.2.2-.3.4-.3s.1-.1 0-.1 0-.1-.1-.1z"/><path fill="#dfb78c" d="M35.1 30s-3.8-1.2.5-10.2-2.9-16.2-7.9-17.5c0 0 6.9 5.4 6 12.2S32.3 27.7 35.1 30zm4.8-4.3s-2.6-.9.3-7.9-2-12.5-5.4-13.5c0 0 4.8 4.1 4.2 9.4s-1 10.2.9 12z"/><path fill="#2f1912" d="M64 52s-3.3 9.8-13.4 9.3c0 0 11.4-4 13.4-9.3z"/></svg>