<svg id="Layer_1" data-name="Layer 1" xmlns="http://www.w3.org/2000/svg" width="0.4in" height="0.4in" viewBox="0 0 32 32"><path d="M17.1,0A10.1,10.1,0,0,0,6.9,10.3C6.9,15.9,17.1,32,17.1,32S27.4,15.9,27.4,10.3A10.3,10.3,0,0,0,17.1,0Zm0,14.3a4.9,4.9,0,0,1-4.8-4.9,4.9,4.9,0,0,1,9.7,0A4.9,4.9,0,0,1,17.1,14.3Z" fill="#dfb78c"/><path d="M17.2,4.2a5.4,5.4,0,0,0-5.5,5.2,5.4,5.4,0,0,0,5.5,5.3,5.3,5.3,0,0,0,5.5-5.3A5.3,5.3,0,0,0,17.2,4.2Zm0,10.3a5.2,5.2,0,0,1-5.3-5.1,5.1,5.1,0,0,1,5.3-5,5.1,5.1,0,0,1,5.3,5A5.2,5.2,0,0,1,17.2,14.5Z" fill="#dfb78c"/></svg>