<svg xmlns="http://www.w3.org/2000/svg"><symbol id="artboard-2" viewBox="0 0 256 256"><path fill="none" stroke="#2f1912" stroke-miterlimit="10" stroke-width="1.04" d="M58.7 123.8s-8.2 95 16.8 110.7c0 0-72.5 4.2-72.9-58.3s56.1-52.4 56.1-52.4z"/><path fill="none" stroke="#2f1912" stroke-miterlimit="10" stroke-width=".7" d="M48.7 133.2s-7 74.2 10 84.7c0 0-46.9.4-47.1-41.9s37.1-42.8 37.1-42.8z"/><g fill="#2f1912"><path d="M52.1 127.4c-.3 5.4-.8 11-1.5 16.4l5.1.6a50.7 50.7 0 0 1 .9-6.5c.4-2.4 1.2-4.8.7-7.3s-3.8-2.7-4.7-.7-2.2 4.6-3.2 7a12.1 12.1 0 0 0-.9 7.5 2.6 2.6 0 0 0 3.1 1.8 2.6 2.6 0 0 0 1.9-3.2c-.1-.3-.1-.2-.1-.4v-.8a4.1 4.1 0 0 1 .1-1 18.4 18.4 0 0 1 .9-2.5c.9-1.9 1.8-3.8 2.6-5.7l-4.7-.7c.2.9 0-.1 0 .4v.7c0-.2-.1.6-.1.6a1.3 1.3 0 0 0-.1.6c-.3 1.1-.5 2.2-.7 3.3s-.7 4.6-.9 6.9a2.7 2.7 0 0 0 2.2 2.6 2.6 2.6 0 0 0 2.9-1.9c.8-5.9 1.4-11.8 1.7-17.7a2.6 2.6 0 0 0-2.6-2.6 2.5 2.5 0 0 0-2.6 2.6z"/><path d="M48.7 127.4l.2 15.4a2.6 2.6 0 0 0 2.6 2.6 2.6 2.6 0 0 0 2.6-2.6l-.2-15.4a2.5 2.5 0 0 0-2.6-2.6 2.6 2.6 0 0 0-2.6 2.6z"/><path d="M50.9 141.1c3.3 0 3.3-5.2 0-5.2s-3.4 5.2 0 5.2z"/><path d="M51.1 139.6c3.4 0 3.4-5.2 0-5.2s-3.3 5.2 0 5.2zm-1.8-8.4c3.4 0 3.4-5.2 0-5.2s-3.3 5.2 0 5.2z"/><path d="M48.7 128.7c3.3 0 3.3-5.2 0-5.2s-3.4 5.2 0 5.2z"/><path d="M51.8 128.6c3.4 0 3.4-5.2 0-5.2s-3.3 5.2 0 5.2z"/><path d="M50.4 128.6c3.3 0 3.3-5.2 0-5.2s-3.4 5.2 0 5.2z"/><path d="M53.6 128.4c3.4 0 3.4-5.2 0-5.2s-3.3 5.2 0 5.2z"/><path d="M55.7 128.4c3.3 0 3.4-5.2 0-5.2s-3.3 5.2 0 5.2z"/><path d="M55.4 130.8c3.4 0 3.4-5.2 0-5.2s-3.3 5.2 0 5.2z"/><path d="M55.3 134c3.4 0 3.4-5.2 0-5.2s-3.3 5.2 0 5.2zm-6.5-9a.5.5 0 1 0 0-1 .5.5 0 1 0 0 1z"/><path d="M57.4 130.4a.5.5 0 1 0 0-1 .5.5 0 1 0 0 1zm-26.5 3.8c6.1-1.5 11.9-4.3 18.2-4.5 2-.1 2-3.2 0-3.1-6.6.2-12.7 3.1-19 4.6-2 .4-1.2 3.4.8 3z"/><path d="M28 133.5a49.2 49.2 0 0 1 25.2-7.6c2-.1 2-3.2 0-3.1a53.1 53.1 0 0 0-26.8 8 1.6 1.6 0 0 0 1.6 2.7z"/><path d="M31.5 133.3a30.9 30.9 0 0 0 8.5-1.4l8.5-2.3a1.6 1.6 0 0 0-.8-3l-8.2 2.2a26.9 26.9 0 0 1-8 1.4c-2-.1-2 3.1 0 3.1z"/><path d="M33.1 132c4.7-1.5 9.4-3.2 14.3-3.8a1.7 1.7 0 0 0 1.6-1.6 1.6 1.6 0 0 0-1.6-1.5c-5.2.6-10.1 2.3-15.1 3.9-1.9.6-1.1 3.6.8 3z"/><path d="M21.5 135.5c6.2-4.9 14.3-7.1 22.1-7.6 2-.1 2-3.2 0-3.1-8.7.5-17.4 3-24.3 8.5-1.6 1.3.7 3.5 2.2 2.2z"/><path d="M28.7 130.9a22.5 22.5 0 0 1 6.1-2.3l7.1-.9a1.5 1.5 0 0 0 1.5-1.5c0-.8-.7-1.7-1.5-1.6-2.7.3-5.3.5-7.9 1a25.1 25.1 0 0 0-6.9 2.6 1.6 1.6 0 0 0 1.6 2.7z"/><path d="M37.8 127.8a14.6 14.6 0 0 0 3.6-.3l1.7-.3c.1 0 .5-.1.1 0h1.3a1.7 1.7 0 0 0 1.6-1.6 1.6 1.6 0 0 0-1.6-1.5 16.1 16.1 0 0 0-3.7.4l-.8.2h-2.2a1.6 1.6 0 0 0-1.6 1.6 1.6 1.6 0 0 0 1.6 1.5zm-13.3 11.7c2.2-.9 4.3-2.2 6.5-3.2a61.8 61.8 0 0 1 7.6-2.6c5.1-1.5 10.5-2.8 15.9-1.8 1.9.4 2.8-2.6.8-3-5.6-1-11.2 0-16.7 1.6a58.8 58.8 0 0 0-7.8 2.5c-2.4 1-4.7 2.5-7.2 3.5s-1 3.8.9 3z"/><path d="M30.2 138.1c6.1-3.2 12.8-5.5 19.8-5.1 2 .1 2-3 0-3.1-7.5-.4-14.8 2.1-21.4 5.5a1.6 1.6 0 0 0 1.6 2.7z"/><path d="M37.5 135.2a1.6 1.6 0 0 0 0-3.1 1.6 1.6 0 0 0 0 3.1z"/><path d="M36.5 135.4a1.6 1.6 0 0 0 0-3.1 1.6 1.6 0 0 0 0 3.1z"/><path d="M36 135.4a1.6 1.6 0 0 0 0-3.1 1.6 1.6 0 0 0 0 3.1zm3.2-.7c2 0 2-3.2 0-3.2s-2 3.2 0 3.2z"/><path d="M41.3 134.3a1.6 1.6 0 0 0 0-3.1 1.6 1.6 0 0 0 0 3.1z"/><path d="M43 134c2 0 2-3.2 0-3.2s-2 3.2 0 3.2z"/><path d="M44.5 133.6a1.6 1.6 0 0 0 0-3.1 1.6 1.6 0 0 0 0 3.1zm-31.7 16.9a52.3 52.3 0 0 1 18.6-18.2 1.6 1.6 0 0 0-1.6-2.7 54.4 54.4 0 0 0-19.7 19.3c-1.1 1.7 1.6 3.3 2.7 1.6z"/><path d="M12.5 153.2c2.2-4.2 6.1-7.7 9.7-10.8a68.6 68.6 0 0 1 12-7.8c1.8-.9.2-3.6-1.6-2.7a70.4 70.4 0 0 0-12.6 8.3c-3.8 3.2-7.8 7-10.2 11.5a1.5 1.5 0 0 0 2.7 1.5z"/><path d="M8.7 155.7c.4-2.2 1.8-4.1 3.1-5.9a41.4 41.4 0 0 1 4.4-5 105.5 105.5 0 0 1 10.5-8.2 1.6 1.6 0 0 0 .5-2.2 1.6 1.6 0 0 0-2.1-.5 96.9 96.9 0 0 0-11.3 9 39.6 39.6 0 0 0-4.7 5.3 17 17 0 0 0-3.4 6.7c-.4 2 2.6 2.8 3 .8z"/><path d="M9.5 155c-.1-2.9 1.7-5.3 3.3-7.6a43.9 43.9 0 0 1 5.1-6.3c3.7-3.8 8.6-6.6 14.1-6.4 2 .1 2-3 0-3.1-6.3-.3-12 2.9-16.3 7.3a45.4 45.4 0 0 0-5.8 7.3c-1.8 2.6-3.6 5.5-3.5 8.8s3.2 2 3.1 0z"/><path d="M9.8 152.5v-.2s0-.3.1-.3a.6.6 0 0 1 .1-.4l.7-1.5 1.7-2.9-2.9-.8v-.2c.1-.2.1-.2 0-.1s-.1.1-.1.2.2-.2.1-.1l-.6.7-1.3 1.3a1.5 1.5 0 0 0 0 2.2 1.5 1.5 0 0 0 2.2 0l1.5-1.6.8-.9a4.4 4.4 0 0 0 .5-1.5 1.5 1.5 0 0 0-1.2-1.5 1.5 1.5 0 0 0-1.7.7l-1.8 3.2a7.7 7.7 0 0 0-1.2 3.6 1.6 1.6 0 0 0 1.6 1.6 1.6 1.6 0 0 0 1.5-1.6z"/><path d="M10.2 148a1.6 1.6 0 0 0 0-3.1 1.6 1.6 0 0 0 0 3.1z"/><path d="M11.4 146.1c2 0 2-3.2 0-3.2s-2 3.2 0 3.2z"/><path d="M12.8 144.3a1.6 1.6 0 0 0 0-3.1 1.6 1.6 0 1 0 0 3.1z"/><path d="M12.3 144.5a1.6 1.6 0 0 0 0-3.1 1.6 1.6 0 0 0 0 3.1z"/><path d="M10.8 146.7c2 0 2-3.2 0-3.2s-2 3.2 0 3.2zm3-4.3a1.6 1.6 0 1 0 0-3.1 1.6 1.6 0 0 0 0 3.1z"/><path d="M13.2 142.8c2 0 2-3.2 0-3.2s-2 3.2 0 3.2z"/><path d="M15.2 140.7a1.6 1.6 0 0 0 0-3.1 1.6 1.6 0 0 0 0 3.1z"/><path d="M16.3 139.2a1.6 1.6 0 0 0 0-3.1 1.6 1.6 0 0 0 0 3.1z"/><path d="M17.7 138.5a1.6 1.6 0 0 0 0-3.1 1.6 1.6 0 0 0 0 3.1z"/><path d="M18.6 137.2c2 0 2-3.2 0-3.2s-2 3.2 0 3.2z"/><path d="M19.9 136.2a1.6 1.6 0 0 0 0-3.1 1.6 1.6 0 0 0 0 3.1zm7.5 3.8c2 0 2-3.2 0-3.2s-2.1 3.2 0 3.2z"/><path d="M28.6 139a1.6 1.6 0 0 0 0-3.1 1.6 1.6 0 0 0 0 3.1z"/><path d="M29.7 138.4a1.6 1.6 0 0 0 0-3.1 1.6 1.6 0 0 0 0 3.1z"/><path d="M30.9 137.9a1.6 1.6 0 0 0 0-3.1 1.6 1.6 0 0 0 0 3.1zm-18.7 19.9a25.5 25.5 0 0 1 10-15.9l-1.9-2.5c-3.3 3.4-6.7 6.9-9.1 11s-3.9 8.9-6.5 13l2.9.8a20.9 20.9 0 0 1 3.7-10.9c1.2-1.6-1.5-3.2-2.6-1.6a23.4 23.4 0 0 0-4.2 12.5c-.1 1.6 2.1 2 2.9.7 2.6-3.9 3.9-8.5 6.2-12.5s5.7-7.5 8.9-10.8c1.2-1.2-.4-3.5-1.8-2.4a29 29 0 0 0-11.5 17.7c-.4 2 2.6 2.8 3 .9z"/><path d="M6.7 164.3a20.9 20.9 0 0 1 .1-2.5 6.6 6.6 0 0 1 .1-1.4 2.2 2.2 0 0 1 .1-.9 11.4 11.4 0 0 1 1.5-4.5 1.5 1.5 0 0 0-.5-2.1 1.7 1.7 0 0 0-2.2.5c-2 3.3-2.2 7.2-2.2 10.9a1.6 1.6 0 0 0 1.5 1.6 1.6 1.6 0 0 0 1.6-1.6zm5.1-5.8a42.9 42.9 0 0 1 2.4-5.9 18.4 18.4 0 0 1 3.1-5.2 42.2 42.2 0 0 1 4.6-3.8 37.7 37.7 0 0 1 5.4-3.4l-1.6-2.7a48.5 48.5 0 0 0-8.6 7.1c-2.4 2.7-5.3 5.9-5.9 9.5a1.6 1.6 0 0 0 2.6 1.5c2.1-2.2 3.5-5.1 5.4-7.5a37.4 37.4 0 0 1 6.8-6.4 1.5 1.5 0 0 0 .5-2.1 1.5 1.5 0 0 0-2.1-.6 40.9 40.9 0 0 0-7.2 6.6 27.6 27.6 0 0 0-2.8 3.9 27.6 27.6 0 0 1-2.8 3.9l2.6 1.5c.5-3.2 3.2-6 5.3-8.3a37 37 0 0 1 7.8-6.4 1.6 1.6 0 0 0-1.6-2.7 53.5 53.5 0 0 0-5.6 3.6 31.1 31.1 0 0 0-5.2 4.4 21 21 0 0 0-3.4 5.5 45.8 45.8 0 0 0-2.7 6.6c-.7 1.9 2.4 2.7 3 .9z"/><path d="M27.4 137h-.2l-.4.4-.3.6a.6.6 0 0 0 0 .6 1.4 1.4 0 0 0 .2.6l.2.3.7.4h.4a1.1 1.1 0 0 0 .8-.3h.2l.4-.4.3-.6v-.6a1.4 1.4 0 0 0-.2-.6l-.2-.3-.7-.4h-.4a1.1 1.1 0 0 0-.8.2zm-12.6 4.7a1.6 1.6 0 0 0 0-3.1 1.6 1.6 0 0 0 0 3.1z"/><path d="M13.7 139v.2a.5.5 0 0 0-.3.5 1 1 0 0 0 0 1.2.5.5 0 0 0 .3.5l.3.2a1.3 1.3 0 0 0 .8.3h.4l.7-.4h.1l.3-.6c.1-.1.1-.3.1-.6a1.3 1.3 0 0 0-.1-.6l-.3-.7-.4-.2-.7-.2h-.5zm-5.8 31.7c1.4-.7 1.3-2.8 1.6-4.1s.7-2.9 1.1-4.4a46 46 0 0 1 3.8-8.5l-2.7-1.5a47.6 47.6 0 0 0-3.5 9.8 45.4 45.4 0 0 0-.9 5.1c-.2 1.6-.7 3.4.2 4.8a1.5 1.5 0 0 0 2.8-.3l2.7-10.9c.7-2.8 1.3-5.9 3.4-7.9l-2.4-1.9a36.4 36.4 0 0 0-3.7 7.7c-.9 2.6-2 5.7-1.4 8.4a1.6 1.6 0 0 0 3 0 91 91 0 0 1 3.2-10.1c.7-1.8-2.3-2.7-3-.8a91 91 0 0 0-3.2 10.1h3a8.9 8.9 0 0 1 .4-3.6c.3-1.2.7-2.3 1.1-3.5a40.7 40.7 0 0 1 3.3-6.6 1.6 1.6 0 0 0-2.5-1.9c-2.4 2.3-3.2 5.4-4 8.5s-1.9 7.8-2.9 11.6l2.8-.3c-.2-.4.1-1.3.1-1.7l.3-2.2a29.8 29.8 0 0 1 .9-4.3 45.3 45.3 0 0 1 3-8.5c.8-1.7-1.7-3.3-2.7-1.5a44.8 44.8 0 0 0-3.7 8 33.1 33.1 0 0 0-1.2 4.2 28.4 28.4 0 0 1-.9 4.2l.4-.7a1.5 1.5 0 0 0-.6 2.1 1.7 1.7 0 0 0 2.2.6z"/><path d="M6.7 176.8a30.8 30.8 0 0 1 .6-12.1h-3a26.8 26.8 0 0 1 .5 6.3c-.1 1-.1 2-.1 3.1v1.3c0 .6-.2 0 .1.1l.5.2c.2.5.3.6.3.2v-.3c0-.5.1-1.1.1-1.6l.3-3.4c.1-1.1.2-2.1.4-3.2a4.9 4.9 0 0 1 .8-2.4l-2.9-.8c.3 2.8.5 5.6.9 8.5.2 1.3.5 2.7.8 4.1s.6 2.4 1.8 3.1a1.6 1.6 0 0 0 2.3-.9c.7-3.4-.3-6.7 0-10.1.1-1.8-2.9-2.2-3.1-.5-.5 3.7.4 7.1 1.4 10.5a1.5 1.5 0 0 0 1.8 1.1 1.5 1.5 0 0 0 1.3-1.5c-.5-3.5-.9-7.1.1-10.5l-3-.4a93.8 93.8 0 0 0-.2 10.6 1.6 1.6 0 1 0 3.2 0 75 75 0 0 1 .1-10.6c.1-1.9-2.6-2.1-3.1-.5-1.1 3.7-.7 7.6-.2 11.4l3.1-.4c-.9-2.8-1.9-5.8-1.5-8.8l-3.1-.4c-.2 3 .8 6.2.2 9.3l2.3-1c-.2-.1-.2-.5-.3-.7a7.5 7.5 0 0 0-.4-1.6l-.6-3.6c-.3-2.4-.5-4.8-.7-7.1a1.6 1.6 0 0 0-2.9-.8 8.5 8.5 0 0 0-1.2 3.8c-.2 1.4-.3 2.8-.5 4.2s-.3 3-.4 4.5a2.5 2.5 0 0 0 2.4 2.7 2.9 2.9 0 0 0 2.9-2.2 17.7 17.7 0 0 0 .1-4 30.4 30.4 0 0 0-.5-8.5 1.6 1.6 0 0 0-3 0 35.1 35.1 0 0 0-.6 13.7 1.5 1.5 0 0 0 1.9 1.1 1.6 1.6 0 0 0 1.1-1.9z"/><path d="M3 178c.1 5.9-.2 12.5 3.3 17.6.8 1.2 3 .9 2.9-.7s-.5-6.1-.8-9.2-1-5.6-.1-8.3H5.2c.7 3.5 1.2 7.1 2 10.5a23.2 23.2 0 0 0 3.6 8.9 1.6 1.6 0 0 0 2.9-1.2c-.6-3-1.5-5.8-2.2-8.8-.4-1.4-.7-2.8-1-4.2s-.1-1.4-.2-2v-1.8c0-.1 0-.1-.1.1l-2.6-.7c1.6 6.6 1.8 13.8 6 19.4a1.5 1.5 0 0 0 2.8-1.2 13.6 13.6 0 0 0-1.8-4.3 30 30 0 0 1-1.8-4.1 28.8 28.8 0 0 1-1.2-9.2c.1-2-3.1-2-3.1 0a27 27 0 0 0 1.2 9.7 35.2 35.2 0 0 0 1.8 4.5c.7 1.4 1.7 2.7 1.9 4.2l2.9-1.2c-4.1-5.4-4.2-12.3-5.7-18.6a1.6 1.6 0 0 0-2.6-.7c-1.2 1-.9 3.2-.7 4.6a28.9 28.9 0 0 0 .8 5c.8 3.4 1.9 6.7 2.6 10.1l2.8-1.2a21.3 21.3 0 0 1-3.4-8.4q-1-5.1-1.8-10.2c-.3-1.6-2.6-1.3-3.1 0-.9 2.9-.3 5.8 0 8.8s.7 6.3.9 9.5l2.9-.8c-3.2-4.7-2.8-10.7-2.9-16.1a1.6 1.6 0 0 0-3.1 0z"/><path d="M11.4 190.2a1.6 1.6 0 0 0 0-3.1 1.6 1.6 0 0 0 0 3.1zM49 144.7l-.7 10h3.2a49 49 0 0 1 0-12.1h-3.1c-.3 3.9-.5 7.9-.6 11.9a1.5 1.5 0 0 0 3 .4l2-9-3-.4c.1 4.2.4 8.3.8 12.5a1.6 1.6 0 0 0 1.4 1.5 1.5 1.5 0 0 0 1.7-1.1c.6-4.1 1-8.3 1.2-12.5h-3.1l.7 10.5c.1 1.6 2.7 2.3 3 .4 1.1-6.5-.4-13.3 1.4-19.6l-3-.5c-.2 5.8-.5 11.6-1.2 17.3-.1.8.8 1.5 1.6 1.5a1.5 1.5 0 0 0 1.5-1.5 165.7 165.7 0 0 0 1.2-17.3 1.6 1.6 0 0 0-3.1-.4c-1.8 6.5-.3 13.2-1.4 19.7l3.1.4-.7-10.5c-.2-2-3.1-2-3.1 0-.2 3.9-.6 7.8-1.1 11.7l3 .4c-.4-4.2-.6-8.3-.8-12.5-.1-1.7-2.7-2.2-3.1-.4l-2 9 3.1.4c.1-4 .3-8 .6-11.9A1.5 1.5 0 0 0 50 141a1.6 1.6 0 0 0-1.6 1.6 49 49 0 0 0-.1 12.1 1.6 1.6 0 0 0 3.2 0l.6-10c.2-2-2.9-2-3.1 0z"/><path d="M48.9 153.8l-.7 15.1 3-.4a63.1 63.1 0 0 1-.4-14.4l-3 .4a40.5 40.5 0 0 1 1 9.2c0 3.1-.4 6.1.4 9.1.3 1.4 2.7 1.6 3 0a167.3 167.3 0 0 0 2.2-18.7h-3.1a128.9 128.9 0 0 0 .8 17.6 1.6 1.6 0 0 0 1.4 1.6 1.6 1.6 0 0 0 1.7-1.1 88.3 88.3 0 0 0 .4-17.8c0-2-3.2-2-3.1 0a86.8 86.8 0 0 1-.3 16.9l3 .4a128.9 128.9 0 0 1-.8-17.6 1.6 1.6 0 0 0-3.1 0 178.3 178.3 0 0 1-2.1 17.9h3c-.8-2.9-.2-6-.3-9a41.5 41.5 0 0 0-1.1-9.3c-.4-1.8-2.9-1.3-3.1.4a70.1 70.1 0 0 0 .5 15.2c.3 1.8 3 1.3 3.1-.4l.7-15.1c.1-2-3-2-3.1 0z"/><path d="M47.9 182.5v1.8H51l.2-10.3c0-3.3.3-6.7-.5-9.9a1.5 1.5 0 0 0-3 .4l.3 14.6 3.1-.4a29.1 29.1 0 0 1 0-10.2H48a52.1 52.1 0 0 1 .6 8.8l.4 9.2c.1 1.6 2.7 2.2 3 .4a113.8 113.8 0 0 0 1.5-17.5h-3.1a140.1 140.1 0 0 0 1.9 19.3c.3 1.8 2.9 1.2 3.1-.5a153.5 153.5 0 0 0 .3-19.2 1.6 1.6 0 0 0-3.1 0 140.1 140.1 0 0 0 1.4 23.4 1.5 1.5 0 0 0 1.9 1.1 1.6 1.6 0 0 0 1.1-1.9 131.3 131.3 0 0 1-1.3-22.6h-3.1a136.5 136.5 0 0 1-.4 19.2l3.1-.4a141.5 141.5 0 0 1-1.8-18.4 1.6 1.6 0 0 0-3.1 0A113.8 113.8 0 0 1 49 186l3.1.5-.4-9.7a55.8 55.8 0 0 0-.7-9.1c-.4-1.5-2.8-1.6-3 0a35.9 35.9 0 0 0-.1 11.8c.3 1.8 3.1 1.3 3.1-.4l-.3-14.6-3.1.4c.8 3.1.4 6.4.3 9.6v9.8a1.6 1.6 0 0 0 3.1 0v-1.8c.1-2-3-2-3.1 0z"/><path d="M55.1 206c-1.4-6.9-2.6-13.8-3.7-20.8-.3-1.7-3.2-1.3-3.1.4.7 8 1.5 16 4.4 23.5a1.6 1.6 0 0 0 1.7 1.2 1.5 1.5 0 0 0 1.3-1.6c-.8-7-2.1-14.1-1.9-21.3h-3.1a89.4 89.4 0 0 0 5.1 22.9 1.6 1.6 0 0 0 3-.8l-3.5-19.6c-.3-1.7-3.2-1.4-3 .4.6 6.6 2.7 12.9 4.9 19.2a1.6 1.6 0 0 0 3-.8c-1.5-6.2-2.8-12.5-3.7-18.8-.3-1.8-3-1.3-3.1.4v1.5c-.1 2 3 2 3.1 0v-1.5l-3 .4c.9 6.3 2.2 12.6 3.7 18.8l3-.8c-2-6-4.2-12.1-4.8-18.4l-3.1.4 3.5 19.6 3-.8a87.5 87.5 0 0 1-5-22.1c-.2-1.9-3.1-2-3.1 0-.2 7.2 1 14.3 1.9 21.3l3.1-.4c-2.8-7.2-3.6-15-4.2-22.7l-3.1.5c1.1 6.9 2.3 13.9 3.7 20.8.4 1.9 3.4 1.1 3-.9z"/><path d="M52.7 208.4a20.4 20.4 0 0 0 4.6 7.6 1.5 1.5 0 0 0 2.2 0 1.7 1.7 0 0 0 0-2.2 17.6 17.6 0 0 1-2.4-3 23.7 23.7 0 0 1-1.9-3.5l-2.7 1.6c1.8 3.8 3.6 8.4 7.6 10.4a1.7 1.7 0 0 0 1.8-.2 1.5 1.5 0 0 0 .5-1.6l-3.5-9.4-2.9 1.2 2.4 5a39.6 39.6 0 0 0 2.5 4.5 1.6 1.6 0 0 0 2.9-1.2l-3.9-9.6a1.6 1.6 0 0 0-2-1.1 1.5 1.5 0 0 0-1 1.9l3.9 9.7 2.8-1.2a52 52 0 0 1-2.5-4.6l-2.4-5c-.7-1.6-3.5-.4-2.8 1.2l3.5 9.4 2.3-1.7-1.2-.7h-.1l-.2-.2-.5-.4a11.2 11.2 0 0 1-1.6-2.2 61 61 0 0 1-2.9-5.7 1.6 1.6 0 0 0-2.2-.5 1.5 1.5 0 0 0-.5 2.1 26.1 26.1 0 0 0 4.8 7.1l2.2-2.2a17.3 17.3 0 0 1-3.8-6.2 1.6 1.6 0 0 0-1.9-1.1 1.5 1.5 0 0 0-1.1 1.9zm-.3 18.1a25.6 25.6 0 0 0 .5-2.7c0-.4.1-.8.1-1.2v-.6a.4.4 0 0 0 .1-.3c0-.2-.1.4 0 0s.1-.4.1-.6.1-.6.2-.6-.2.3 0 .1l-.2.2-1 .2h-.3l.2.2a3 3 0 0 1 .8.8l.2.2c.2.2-.1-.2 0 0l.4.5a1.5 1.5 0 0 0 1.9.6 1.4 1.4 0 0 0 .9-1.8 30.9 30.9 0 0 0-1.4-3.2l-2.5 1.9.4.3c0 .1.2.4 0 .1l.5.7a10.9 10.9 0 0 1 .8 1.5l1 1.5.7.9.3.3c.1.2.1.1-.1-.4l.3-.7h-.1l.6-.5h-.2l-.6.2-1 .2-1 .3h-1.2c.4 0 .7.2.9.8a.2.2 0 0 1 0 .3v-.4c0-.2.1-.4.1-.6l.6-2.2-2.6.7.3.2c.1.1 0 .1 0 0l.3.6.7 1.1a4 4 0 0 0 3.1 1.8l-.8-2.9a1.6 1.6 0 0 0-2 1.1 1.6 1.6 0 0 0 1.1 1.9 16.3 16.3 0 0 0 4.3.8 1.7 1.7 0 0 0 1.6-1.6 1.6 1.6 0 0 0-1.6-1.5h-1.5l-1.8-.5-.9 3a3.1 3.1 0 0 0 2.5-.4 1.8 1.8 0 0 0 .7-1.8 1.6 1.6 0 0 0-1.5-1.1h.1c0 .1-.4-.2-.2 0h-.1c0-.1-.1-.1-.2-.2h-.1c.1.2 0-.1 0-.1l-.2-.3a10.4 10.4 0 0 0-1.5-2 1.5 1.5 0 0 0-2.6.7 11.7 11.7 0 0 0-.5 2 5.4 5.4 0 0 0-.3 2.5A2.2 2.2 0 0 0 53 228l2.3-.3a13.9 13.9 0 0 0 1.9-.6l1.1-.4a1.8 1.8 0 0 0 .8-2 5 5 0 0 0-1.3-1.9l-.2-.2h.1l-.3-.4a2.5 2.5 0 0 1-.4-.7 14.5 14.5 0 0 0-2.4-3.5 1.5 1.5 0 0 0-2-.2 1.5 1.5 0 0 0-.4 2l.6 1.4.3.6.2.4 2.9-1.2a11.5 11.5 0 0 0-2.1-2.3 2.5 2.5 0 0 0-2.2-.7 2.6 2.6 0 0 0-1.5 1.6 11.3 11.3 0 0 0-.5 3.2 1.9 1.9 0 0 0-.1.8c0 .1-.1.2-.1.4v.2l-.3 1.6a1.7 1.7 0 0 0 1.1 1.9 1.5 1.5 0 0 0 1.9-1.1z"/><path d="M58.5 225.2l1.2 1.1c.3.1.6.2.8 0a.6.6 0 0 0 0-.8l-1.3-1.2a.5.5 0 0 0-.7.7 11.9 11.9 0 0 0 2.9 2.1l.3-1-1.5-.2-1.5-.4c-.2-.1-.5.1-.6.4s.1.5.4.6l3.2.7a.7.7 0 0 0 .5-.4c0-.2 0-.5-.3-.6a6.7 6.7 0 0 1-1.4-.9l-1.3-1-.7.7a7.4 7.4 0 0 1 1.2 1.3l.8-.8-1.3-1a.5.5 0 0 0-.7 0c-.2.2-.2.6 0 .7z"/><path d="M60.8 226.3l-3.2-.5a.5.5 0 0 0-.7.3.7.7 0 0 0 .4.7l3.2.5c.3 0 .6-.1.6-.4s0-.6-.3-.6zm-33.1-17.9a39.2 39.2 0 0 1-8.1-6.5c-3.3-3.4-8.3 1.7-5.2 5.1l3.9 4.3c2.8 3.2 7.6-.8 5.7-4.4a23.8 23.8 0 0 0-3.8-4.7 3.8 3.8 0 0 0-5.1 0 3.8 3.8 0 0 0 0 5.2 61.3 61.3 0 0 1 4.2 5.8c2.5 3.9 8.8.2 6.2-3.7a90 90 0 0 0-5.3-7.3l-5.1 5.2a15.9 15.9 0 0 1 2.6 3.2l5.7-4.4-3.8-4.3-5.2 5.1a45.1 45.1 0 0 0 9.7 7.7c4 2.4 7.6-3.9 3.6-6.3z"/><path d="M25.4 217.6c11.1 5.2 21.9 10.5 34.5 9.3 4.6-.5 4.7-7.8 0-7.3-11.3 1.1-20.8-3.6-30.9-8.3-4.2-1.9-7.9 4.4-3.6 6.3z"/><path d="M25.4 210.2l-.7-.7-5.2 5.2a42.4 42.4 0 0 0 5.6 3.8c3.5 1.9 7.6-2.9 4.4-5.8a15.5 15.5 0 0 0-4.3-2.9c-4.2-2.1-7.7 3.8-3.7 6.2s5 3.3 8 3.8 6.8-4.7 2.8-6.6a52.9 52.9 0 0 1-5.2-2.9c-3.4-2.1-7.5 3-4.4 5.8s10.4 5.2 15.4 6.4 6.1-4.3 2.8-6.7a9.3 9.3 0 0 0-6.1-1.7c-4.6.4-4.6 7.6 0 7.3a2.6 2.6 0 0 1 2.4.7l2.8-6.7c-2.1-.5-4.2-1.2-6.3-1.9s-4.3-1.2-5.8-2.6l-4.4 5.7a52.9 52.9 0 0 0 5.2 2.9l2.8-6.7c-2.4-.4-4.3-1.8-6.3-3l-3.7 6.2a14.5 14.5 0 0 1 2.9 1.9l4.4-5.7a22.3 22.3 0 0 1-4.1-2.7c-3.6-2.8-8.6 1.7-5.2 5.2l.7.7c3.3 3.3 8.5-1.8 5.2-5.2zm31.7 10.9v-.5a2.4 2.4 0 0 0-.7-1.3 2.2 2.2 0 0 0-1-.9 2 2 0 0 0-1.4-.4h-1.5l-.8.4a4.4 4.4 0 0 0-1.4 1.3l-.3.9a3.1 3.1 0 0 0 0 1.9v.5a1.9 1.9 0 0 0 .7 1.2 3.2 3.2 0 0 0 1 1 3.3 3.3 0 0 0 1.3.4 2.6 2.6 0 0 0 1.5-.1l.9-.3a8 8 0 0 0 1.3-1.3l.3-.9a3.1 3.1 0 0 0 0-1.9z"/><path d="M53.5 225.2c4.7 0 4.7-7.3 0-7.3s-4.7 7.3 0 7.3z"/><path d="M52.8 222.4a3.2 3.2 0 0 0 .3 1.4 2.5 2.5 0 0 0 .8 1.2 2.4 2.4 0 0 0 1.2.7 2.3 2.3 0 0 0 1.4.4l.9-.2a3.2 3.2 0 0 0 1.6-.9l.6-.7a4.1 4.1 0 0 0 .5-1.9 3.8 3.8 0 0 0-1.1-2.6 2.6 2.6 0 0 0-1.1-.7 1.8 1.8 0 0 0-1.4-.3h-1a4.2 4.2 0 0 0-1.6.9l-.6.8a3.5 3.5 0 0 0-.5 1.8zm-8.7-.7c0-.2-.1-.9 0-.5s0-.4-.1-.5l-.4-.9a4.4 4.4 0 0 0-1.3-1.4 4.1 4.1 0 0 0-1.9-.5c.8 0-.7.1-1 .2l-.9.3-.7.6a2.8 2.8 0 0 0-.8 1.2 2.9 2.9 0 0 0-.3 1.4 3.8 3.8 0 0 0 .5 1.9 3.5 3.5 0 0 0 1.3 1.4h.1l.8.3 1 .2a3.2 3.2 0 0 0 1.4-.3 3.7 3.7 0 0 0 2-2 3.2 3.2 0 0 0 .3-1.4l-.2-.9a2.6 2.6 0 0 0-.9-1.6l-.7-.6a4.1 4.1 0 0 0-1.9-.5h1l.8.4.7.6.6.8.3.9.2 1-.2 1-.3.8-.6.8-.7.5-.9.4h-1.8l-.9-.4-.7-.5-.6-.8h.1l-.4-.9v-1a3.5 3.5 0 0 0 .3 1.4 2.6 2.6 0 0 0 .7 1.1 4.2 4.2 0 0 0 1.2.8 3.2 3.2 0 0 0 1.4.3h1a3.9 3.9 0 0 0 1.6-1l.5-.7a3.1 3.1 0 0 0 .5-1.8z"/><path d="M41.2 217.3h-1.1l-.9.4-.7.6h-.1l-.6.8-.4.9c0 .4-.1.7-.1 1a3.5 3.5 0 0 0 .3 1.4 4.4 4.4 0 0 0 1.9 1.9 3.5 3.5 0 0 0 1.4.3h1a3.4 3.4 0 0 0 1.6-1l.6-.7a4.1 4.1 0 0 0 .5-1.8l-.2 1h.1l-.4.9-.5.8-.7.6-.9.3h.1l-1 .2h.1a2.5 2.5 0 0 0 1.4-.4 3.7 3.7 0 0 0 1.2-.7 2.4 2.4 0 0 0 .7-1.2 3.2 3.2 0 0 0 .3-1.4V220a4.6 4.6 0 0 0-.9-1.7l-.8-.5a3.1 3.1 0 0 0-1.8-.5z"/><path d="M42.4 225c4.7 0 4.7-7.2 0-7.2s-4.7 7.2 0 7.2z"/><path d="M39.1 217h-.3a3.5 3.5 0 0 0-1.4.3 2.8 2.8 0 0 0-1.1.8 2.5 2.5 0 0 0-.8 1.2 3.2 3.2 0 0 0-.3 1.4v.9a2.9 2.9 0 0 0 1 1.6l.7.6a4.1 4.1 0 0 0 1.8.5h.3a3.5 3.5 0 0 0 1.4-.3 4.2 4.2 0 0 0 1.2-.8 2.6 2.6 0 0 0 .7-1.1 3.5 3.5 0 0 0 .3-1.4v-1a4.2 4.2 0 0 0-.9-1.6l-.8-.6a3.7 3.7 0 0 0-1.8-.5z"/><ellipse cx="149.2" cy="123.8" rx="99.7" ry="30.6"/></g><ellipse cx="148.3" cy="126.1" fill="#dfb78c" rx="85.4" ry="23.6"/><path fill="#2f1912" d="M6 196.4c1.3 2.1 2.4 4.2 3.6 6.3l5.7-4.5a38 38 0 0 1-2.9-3.8c-2.6-3.8-8.7-.4-6.3 3.7s4.5 7.2 6.8 10.8l5.7-4.5a58.1 58.1 0 0 1-3.8-4.6 3.8 3.8 0 0 0-5-1.3c-1.5.9-2.5 3.4-1.3 5s3.2 4.1 5 6.1 8-1 5.7-4.4-4.6-7.1-6.8-10.8l-6.3 3.7c1.3 1.8 2.6 3.6 4.1 5.3s7.7-.9 5.7-4.4l-3.6-6.2c-2.4-4.1-8.6-.4-6.3 3.6z"/><path fill="#2f1912" d="M10.4 202.3l.3.3c.2.3.2.3-.2-.2l.5.8.2.4c-.2-.5-.2-.6-.1-.2l.3.9a3.6 3.6 0 0 0 4.4 2.5 3.7 3.7 0 0 0 2.6-4.4 10.4 10.4 0 0 0-2.9-5.2 3.6 3.6 0 1 0-5.1 5.1z"/><path fill="#2f1912" d="M16 212.1l.5.4 3.7-6.3-1.3-.7c-3.4-3.2-8.2 1.6-5.1 5.1a41.1 41.1 0 0 0 25.9 14.3c4.6.6 6.6-6.4 2-7a36.3 36.3 0 0 1-22.8-12.4l-5.1 5.1a8.3 8.3 0 0 0 2.7 1.9c4.3 1.8 7.7-3.6 3.7-6.3l-.6-.4c-3.9-2.5-7.5 3.7-3.6 6.3z"/><path fill="#2f1912" d="M11.1 202a57 57 0 0 0 16 15.7c2.9 1.9 7.1-2 5-5a15.1 15.1 0 0 0-2.1-2.3l-4.4 5.7a69.5 69.5 0 0 0 10.7 5c4.4 1.5 6.3-5.5 1.9-7.1a51.5 51.5 0 0 1-8.9-4.2c-3.5-1.9-7.7 3-4.4 5.8l.9.8 4.9-5a49.8 49.8 0 0 1-13.3-13c-2.6-3.9-8.9-.2-6.3 3.6zm48.3 16.3l-1.6.2h-.6c-1.1-.1-.5.4 1.9 1.3l-2.2 5.3c-.4.1.5.2 0 0v-7l-.7.2h-.4l-.9-.3-1 7.2h.2a1.4 1.4 0 0 1-1-.5c1.5 1.2 3.7 1.6 5.1 0s1.7-3.9 0-5.2a6.7 6.7 0 0 0-4.3-1.6 3.6 3.6 0 0 0-1 7.1 9.5 9.5 0 0 0 6 .1c3.3-1 3.6-6.1 0-7a8.6 8.6 0 0 0-3.9 0c-2.4.5-3.2 3.4-2.2 5.3s4.1 2.4 6.6 2.1 3.7-1.5 3.6-3.7-1.6-3.9-3.6-3.6z"/><path fill="#2f1912" d="M39.6 223.9a21.7 21.7 0 0 0 4.1 1.9l2-7-3.4-.6c-4.5-.8-6.5 5.7-1.9 7a10.7 10.7 0 0 0 3.5.6c4.7.3 4.7-6.9 0-7.2l-2.7-.3c-4.2-.3-4.9 6.1-1 7.2a30.3 30.3 0 0 0 12.7.7c4.2-.6 3.1-7.1-.9-7.2h-5.1c-4 0-5.1 6.5-1 7.1l4.2.7c4.6.7 6.6-6.1 2-7a16.7 16.7 0 0 1-6.1-2.3 17.6 17.6 0 0 0-2.3-1.4c-1.1-.4-2.2-.3-3.2-.8l-2.8 6.6a116.1 116.1 0 0 0 13.2 3.4 3.6 3.6 0 0 0 2.8-6.6c-2.1-1.5-4.4-1.4-6.8-1.7a30.4 30.4 0 0 1-7.8-2.3c-1.8-.7-4 .9-4.5 2.6s.7 3.7 2.6 4.5a32.2 32.2 0 0 0 6.9 2c1.7.4 4.4.1 5.9 1.2l2.8-6.7a121.7 121.7 0 0 1-13.2-3.4c-3.8-1.2-6.5 4.8-2.8 6.7a24.8 24.8 0 0 0 3.5 1.3 10.2 10.2 0 0 1 2.8 1.3 22.8 22.8 0 0 0 7 2.6l2-7-4.2-.7-1 7.2H52l-1-7.1a22.3 22.3 0 0 1-8.9-.7l-.9 7.1 2.7.2v-7.2l-1.6-.4-1.9 7 3.3.6a3.6 3.6 0 0 0 2-7 11.5 11.5 0 0 1-2.5-1.2c-4-2.4-7.7 3.9-3.6 6.3zm-25.7-28.4h-.1a3.2 3.2 0 0 0-1.4.3 2.5 2.5 0 0 0-1.2.8 2.5 2.5 0 0 0-.8 1.2 3.2 3.2 0 0 0-.3 1.4v.9a2.9 2.9 0 0 0 1 1.6l.7.6a4.1 4.1 0 0 0 1.9.5h.1a3.5 3.5 0 0 0 1.4-.3 4.2 4.2 0 0 0 1.2-.8 2.6 2.6 0 0 0 .7-1.1 3.5 3.5 0 0 0 .3-1.4v-1a5.1 5.1 0 0 0-.9-1.6l-.8-.6a4.1 4.1 0 0 0-1.8-.5z"/><path fill="#2f1912" d="M51.7 217.2h-.3a3.2 3.2 0 0 0-1.4.3 4.2 4.2 0 0 0-1.2.8 2.6 2.6 0 0 0-.7 1.1 2.4 2.4 0 0 0-.3 1.4v1a5.1 5.1 0 0 0 .9 1.6l.8.6a3.5 3.5 0 0 0 1.8.5h.3a3.5 3.5 0 0 0 1.4-.3 2.8 2.8 0 0 0 1.1-.8 2.5 2.5 0 0 0 .8-1.2 3.2 3.2 0 0 0 .3-1.4v-.9a2.9 2.9 0 0 0-1-1.6l-.7-.6a4.1 4.1 0 0 0-1.8-.5z"/><path fill="#2f1912" d="M46.4 223.7c4.6 0 4.7-7.3 0-7.3s-4.7 7.3 0 7.3z"/><path fill="#2f1912" d="M53 223.5v-.2a3.5 3.5 0 0 0-.3-1.4 2.6 2.6 0 0 0-.7-1.1 4.2 4.2 0 0 0-1.2-.8 3.2 3.2 0 0 0-1.4-.3h-1a3.9 3.9 0 0 0-1.6 1l-.6.7a3.9 3.9 0 0 0-.4 1.8v.2a1.8 1.8 0 0 0 .3 1.4 2.6 2.6 0 0 0 .7 1.1 2 2 0 0 0 1.2.8 3.2 3.2 0 0 0 1.4.3h1a3.9 3.9 0 0 0 1.6-1l.5-.7a3.1 3.1 0 0 0 .5-1.8zm9-4.9h-.3a3.5 3.5 0 0 0-1.4.3 2.6 2.6 0 0 0-1.1.7 4.2 4.2 0 0 0-.8 1.2 3.2 3.2 0 0 0-.3 1.4v1a3.9 3.9 0 0 0 1 1.6l.7.6a4.1 4.1 0 0 0 1.8.5h.4a2.5 2.5 0 0 0 1.4-.4 3.7 3.7 0 0 0 1.2-.7 2.4 2.4 0 0 0 .7-1.2 3.2 3.2 0 0 0 .3-1.4v-1a5.1 5.1 0 0 0-.9-1.6l-.8-.5a3.1 3.1 0 0 0-1.8-.5z"/><path fill="#2f1912" d="M59.4 218.5h-.1a4.2 4.2 0 0 0-.8 1.2 3.4 3.4 0 0 0 0 2.8 2.5 2.5 0 0 0 .8 1.2l.7.5a3.2 3.2 0 0 0 1.9.5h.9a4.2 4.2 0 0 0 1.6-.9h.2a3.7 3.7 0 0 0 .7-1.2 3.4 3.4 0 0 0 0-2.8 2.4 2.4 0 0 0-.7-1.2l-.8-.6a4.1 4.1 0 0 0-1.8-.5l-1 .2a3.7 3.7 0 0 0-1.6.9z"/><path fill="#2f1912" d="M59.2 221.3H59a2.4 2.4 0 0 0-.7 1.2 2.2 2.2 0 0 0-.3 1.5 2.4 2.4 0 0 0 .3 1.4 3.7 3.7 0 0 0 .7 1.2l.8.5a3.5 3.5 0 0 0 1.8.5h1a5.1 5.1 0 0 0 1.6-.9v-.2a2.8 2.8 0 0 0 .8-1.1 3.5 3.5 0 0 0 .3-1.4 3.2 3.2 0 0 0-.3-1.4 2.5 2.5 0 0 0-.8-1.2l-.7-.6a4.1 4.1 0 0 0-1.9-.5h-.9a2.9 2.9 0 0 0-1.6 1z"/><path fill="#2f1912" d="M63.1 227.4h.1a3.2 3.2 0 0 0 1.4-.3 3.7 3.7 0 0 0 2-2 3.2 3.2 0 0 0 .3-1.4l-.2-.9a2.4 2.4 0 0 0-.9-1.6l-.7-.6a4.1 4.1 0 0 0-1.9-.5h-.1a3.2 3.2 0 0 0-1.4.3 2.8 2.8 0 0 0-1.2.8 2.6 2.6 0 0 0-.7 1.1 3.5 3.5 0 0 0-.3 1.4v1a5.1 5.1 0 0 0 .9 1.6l.8.6a3.7 3.7 0 0 0 1.8.5z"/><path fill="#dfb78c" d="M62.7 183.9v-6.2a2 2 0 0 0 .9.5c2 .5 3.6-1.2 3.6-3.8a16.7 16.7 0 0 0-1.8-5.9 18.6 18.6 0 0 1-2.2-8c-.1-6.3 3-9.3 8-8.1h.2c0 2.3 0 3.5.1 6.1h-.2c-1.8-.4-3.1 1.1-3.1 3.5a14.1 14.1 0 0 0 1.6 4.6 21.8 21.8 0 0 1 2.5 9c0 6.9-3.4 10-8.6 8.7zm16.2 3.6c-.1-9.4-.1-16.2-.1-26.7l-4.4-1c-.1-2.7-.1-3.9-.1-6.2l14.2 3.1v6.1l-4.5-.9v26.6zm13.2 2.5c0-10.8.3-21.7.3-32.5l14.4 2.5c0 2.3-.1 3.6-.1 6.1l-9-1.5c0 2.6-.1 3.9-.1 6.6 3.5.7 5.3 1 8.9 1.5-.1 2.6-.2 4-.3 6.6l-8.8-1.4c0 2.8-.1 4.2-.1 6.9l8.7 1.3c0 2.5-.1 3.8-.1 6.1-5.5-.8-8.3-1.2-13.8-2.2zm15.2 2.4c3.8-10.6 7.6-21.1 11.6-31.6 3.2 11.2 5.9 22.5 9 33.8l-5.5-.5c-.3-1-.5-1.5-.8-2.6l-7.9-.8-.9 2.4zm7.9-6l5.2.5c-.9-3.4-1.3-5.2-2.2-8.7zm15.3 8.3c.4-10.9 1.1-21.7 1.3-32.6 3.7 5.2 5.4 8.2 8.9 13.9 4-5.6 5.9-8.4 9.6-13.4-.1 10.8-.7 21.5-.9 32.3h-5.1c.1-5.4.2-8.5.5-14.7-1.8 2.7-2.8 4-4.6 6.5l-4-6.6c-.3 6.2-.5 9.3-.6 14.7zm34.5-.7c.1-10.4.4-20.7.4-31l6.2-.4c4.1-.3 7.5 3.3 7.4 8.5a8.8 8.8 0 0 1-2.2 6.1c1.9 1.3 2.9 3.7 2.9 6.5 0 5.1-3.5 9.3-7.7 9.7zm5.3-19.1h1.2c1.4-.1 2.5-1.6 2.6-3.4s-1.2-3-2.5-2.9h-1.3zm-.2 12.7h1.9c1.5-.1 2.6-1.6 2.6-3.4s-1.1-3.2-2.5-3.1l-1.9.2c0 2.5 0 3.8-.1 6.3zm14.1 4.7v-30.6A108.3 108.3 0 0 0 198 160v5.9a85.1 85.1 0 0 1-8.6 1.3v6.2a80.9 80.9 0 0 0 8.6-1.2c.1 2.5.1 3.8.1 6.3a86.2 86.2 0 0 1-8.7 1.1v6.4c3.5-.3 5.2-.5 8.7-1v5.9c-5.5.8-8.3.9-13.9 1.4zm15.3-1.6c3.7-11.4 6.5-22.9 10-34.3 3.6 9.9 6.9 20 10.6 30l-5.5 1.3-.8-2.2-7.9 1.6c-.3 1.1-.5 1.6-.8 2.6zm7.7-8.2l5.1-1.2c-1-3-1.6-4.6-2.6-7.8zm31.5-.2a157.3 157.3 0 0 1-11.3-13.2c.2 6.5.3 9.9.4 15.3l-5.2 1.4c-.2-11.2-.5-22.3-.7-33.4A135.5 135.5 0 0 1 233 165c-.3-6.6-.5-10.1-.5-15.6l5-1.7c.4 11.5.9 23 1.2 34.6zm4.5-1.8c0-2.3-.1-3.6-.2-6.3a1.6 1.6 0 0 0 1-.1c2-.5 3.5-3.1 3.4-5.9a10.7 10.7 0 0 0-2-5.2 13.9 13.9 0 0 1-2.4-7.1c-.3-6.5 2.8-11.4 7.7-12.7h.2c0 2.3 0 3.5.1 6.2h-.2c-1.7.5-2.9 2.8-2.8 5.3a7.9 7.9 0 0 0 1.7 4 15.7 15.7 0 0 1 2.8 8.2c.3 7.3-3.1 12.1-8.3 13.5a1.8 1.8 0 0 1-1 .1z"/><path fill="#2f1912" d="M63.2 199.1c-.1-4.7 3.5-7.7 8.2-6.7a10.7 10.7 0 0 1 6.1 3.6l-2.2 1.9a6.6 6.6 0 0 0-3.8-2.3 4 4 0 0 0-5.1 4.2 7.1 7.1 0 0 0 5.4 6.4 4.5 4.5 0 0 0 3.7-.8l2.4 2.7a7.1 7.1 0 0 1-6 1.3 11.4 11.4 0 0 1-8.7-10.3zm15.1 3.1c-.2-4.7 3.5-7.9 8.2-7.1a10.6 10.6 0 0 1 8.8 9.8 6.8 6.8 0 0 1-8.2 7.2 10.6 10.6 0 0 1-8.8-9.9zm13.7 2.2a6.6 6.6 0 0 0-5.4-6 4.2 4.2 0 0 0-5.1 4.4 6.9 6.9 0 0 0 5.5 6.1 4.3 4.3 0 0 0 5-4.5zm6.3 9l-.5-16.4 8.8 1.1v3.2l-5.5-.6v3.3l5.5.6v3.2l-5.5-.6c.1 2.6.1 4 .2 6.6zm11.9 1.3l-.5-16.3 8.8.7v3.3l-5.5-.5c0 1.3 0 2 .1 3.3l5.5.4c0 1.3 0 2 .1 3.3l-5.5-.5c0 2.7.1 4 .2 6.6zm11.9 1l-.5-16.4c3.5.3 5.3.4 8.8.5 0 1.3.1 2 .1 3.3l-5.5-.3v3.3l5.5.2c0 1.3.1 2 .1 3.3l-5.5-.3v3.4l5.5.2c0 1.3.1 2 .1 3.3zm11.9.6l-.5-16.4 8.8.2c.1 1.3.1 2 .1 3.3h-5.5c0 1.3.1 1.9.1 3.2h5.5c.1 1.3.1 2 .1 3.3h-5.5c0 1.3.1 2 .1 3.3h5.5c.1 1.3.1 2 .1 3.3zm16.9-8a8.7 8.7 0 0 1 14.5-6.5l-2.3 2.4a5.1 5.1 0 0 0-3.8-1.4 5.3 5.3 0 1 0 .3 10.6 5.8 5.8 0 0 0 3.8-1.7l2.3 2.2a8.6 8.6 0 0 1-6 2.7 8.5 8.5 0 0 1-8.8-8.3zm15.3-.5a8.9 8.9 0 0 1 8.3-9.1 8.1 8.1 0 0 1 8.8 7.8 9.2 9.2 0 0 1-8.3 9.3 8.2 8.2 0 0 1-8.8-8zm13.8-1a4.9 4.9 0 0 0-5.4-4.8 5.7 5.7 0 0 0-5.2 5.6 5.1 5.1 0 0 0 5.5 4.9 5.6 5.6 0 0 0 5.1-5.7zm6.3 7.6l-.5-16.8 6.2 6.4c2.4-3.1 3.5-4.7 5.8-7.9.3 6.8.4 10.1.6 16.9l-3.3.4c-.1-3.1-.1-4.6-.2-7.6l-2.7 3.6-2.9-3c.1 3.1.2 4.6.3 7.7zm15.9-2l-.5-16.4 4.1-.6a5.2 5.2 0 0 1 6.2 5.1 7.1 7.1 0 0 1-5.8 7l-.9.2c0 1.7.1 2.5.1 4.2zm3-8h.9a3.3 3.3 0 0 0 2.7-3.3 2.3 2.3 0 0 0-2.9-2.3h-.9c.1 2.3.1 3.4.2 5.6zm6.7 6.4l6-18c2.8 6.2 4.1 9.3 6.9 15.6l-3.4.7a7.5 7.5 0 0 1-.6-1.3l-4.9 1-.5 1.4zm4.8-4.5l3.2-.7c-.7-1.5-1.1-2.3-1.7-3.9zm19.8-.1l-7.1-6.5c.1 3 .1 4.6.2 7.6l-3.2.7-.5-16.8 7.1 6.6-.2-7.7 3.2-.8zm7-2.3c-.1-2.8-.1-4.3-.2-7.1l-5.8-7.8 3.8-1 3.5 4.8 3.1-6.6 3.8-1-5.2 10.7c.1 2.9.1 4.3.2 7.2zM56.7 135.2a21.7 21.7 0 0 1-.1 3.6h1.1l-.2-3.5a.5.5 0 0 0-.5-.5.6.6 0 0 0-.6.5l.2 3.5a.6.6 0 0 0 .5.6c.3 0 .5-.3.6-.6a21.6 21.6 0 0 0 0-3.6.6.6 0 0 0-.5-.6.5.5 0 0 0-.5.6z"/><path fill="#2f1912" d="M56.5 151.6a71.2 71.2 0 0 1-.1-8h-1.1a63.3 63.3 0 0 0 .5 7.6.5.5 0 0 0 1 .1 5.7 5.7 0 0 0 .4-2.6c-.1-1.1-.1-2.1-.1-3.1l-.2-6.2a.5.5 0 1 0-1 0 45.8 45.8 0 0 0 .3 5.3c.1.6 1 .4 1.1-.1a47.1 47.1 0 0 0-.3-7.5c-.1-.6-1-.4-1.1.1v.6a.6.6 0 0 0 1.1 0v-.6l-1 .2a34.7 34.7 0 0 1 .2 7.2h1a43.6 43.6 0 0 1-.3-5.1h-1v8.9a6.7 6.7 0 0 1-.3 2.8h1.1a47.7 47.7 0 0 1-.5-7.6c0-.6-1-.6-1.1 0 0 2.7 0 5.3.2 8 0 .6 1.1.6 1 0z"/><path fill="#2f1912" d="M56.5 162.1l-.2-3.6h-1l.3 2.7c.1.6 1.1.4 1.1-.2v-5.5l-1.1.2a27.6 27.6 0 0 1 .6 5.7c0 .6 1 .6 1.1 0a83.5 83.5 0 0 0-.3-10 .6.6 0 0 0-1.1-.1 20.4 20.4 0 0 0-.4 6.5.6.6 0 0 0 1.1 0 43.5 43.5 0 0 0 .2-5.1c-.1-.7-1.1-.7-1.1 0-.2 5.2-.3 10.5-.2 15.7 0 .7 1 .7 1.1 0l.2-8.6h-1l.4 9.1h1l-.2-3a.5.5 0 0 0-.8-.5l-.3.2c-.6.4-.1 1.3.5.9l.3-.2-.8-.4.3 3a.5.5 0 1 0 1 0l-.4-9.1a.5.5 0 1 0-1 0l-.3 8.6h1.1c-.1-5.2-.1-10.5.2-15.7h-1.1a29 29 0 0 1-.2 5.1h1.1a16.1 16.1 0 0 1 .3-6.2l-1-.2a55.7 55.7 0 0 1 .3 10h1.1a40.9 40.9 0 0 0-.7-6c-.1-.6-1-.4-1 .1v5.5h1l-.3-2.4a.5.5 0 1 0-1 0l.2 3.6c0 .6 1.1.6 1 0z"/><path fill="#2f1912" d="M56.3 173.5v-.4c-.1-.6-1.1-.4-1 .3l.6 2.8c0 .2.4.4.6.3s.4-.3.4-.6l-.7-4.4-1 .3.8 4c.1.6 1.1.4 1-.1l-.4-4.8-1 .2 1.2 3.9c.2.6 1.1.5 1-.1l-.4-4.4h-1l.4 2.4c0 .2.4.4.6.3s.4-.3.4-.6l-.6-4c-.1-.6-1-.4-1 .1v2.6h1l-.6-3.1c-.1-.6-1.1-.5-1 .1l.2 2.7h1l-.3-1.6c-.1-.6-1.1-.3-1 .3l.7 3.4c.2.7 1.2.4 1-.2l-.7-3.5-1 .3.3 1.6a.6.6 0 0 0 1.1-.2l-.3-2.7-1 .2.6 3.1c.1.6 1 .4 1-.2v-2.6l-1 .2.6 4 1-.3-.4-2.4c-.1-.5-1.1-.4-1.1.2l.5 4.4 1-.2-1.2-3.9c-.2-.5-1.1-.5-1 .1l.4 4.8 1-.2-.8-4c0-.3-.4-.4-.6-.3s-.4.3-.4.6l.7 4.4 1-.3-.6-2.8-1 .3v.4a.5.5 0 1 0 1-.3z"/><path fill="#2f1912" d="M55.5 177.9a3.4 3.4 0 0 1-.2-1.4h-1q.6 3.2 1.5 6.3a.6.6 0 0 0 1.1-.2l-.9-7.3c-.1-.6-1.1-.7-1 0a41 41 0 0 0 1.1 6.1.5.5 0 0 0 1-.1c-.1-2-.2-4-.5-6h-1l.6 4.6c.1.6 1.1.7 1 0l-.2-4.1h-1a23.6 23.6 0 0 0 .9 5.2c.1.5 1.1.4 1-.2l-.8-6.7c-.1-.7-1.1-.7-1.1 0l.8 6.7h1.1a38.6 38.6 0 0 1-.9-4.9c0-.6-1-.7-1 0l.2 4.1h1l-.6-4.6c0-.6-1.1-.6-1 0s.4 4 .5 6l1-.2a37.1 37.1 0 0 1-1.1-5.8h-1l.8 7.3h1c-.6-2.1-1.1-4.1-1.5-6.2s-1-.4-1 .1a3.1 3.1 0 0 0 .3 1.9c.3.6 1.2.1.9-.5z"/><path fill="#2f1912" d="M56.8 187l-.7-3.5c-.1-.7-1.1-.4-1 .3l1.2 7.3 1-.3a61.1 61.1 0 0 1-.9-8.6c-.1-.6-1.1-.6-1.1 0a33.4 33.4 0 0 0 1.1 7.8c.1.6 1.1.5 1-.1l-.7-8.2c-.1-.6-1.1-.6-1 0a45.4 45.4 0 0 0 1 7.4c.1.6 1.1.4 1-.1l-.9-9.2h-1c.4 3.6 1 7.1 1.7 10.7.1.5 1 .4 1-.2l-1.7-17.9c-.1-.6-1.1-.6-1.1 0l1.7 17.9h1.1c-.7-3.5-1.3-6.9-1.7-10.4-.1-.6-1.1-.7-1 0l.9 9.2 1-.2a55.2 55.2 0 0 1-1-7.1h-1l.7 8.2h1a27.8 27.8 0 0 1-1-7.6h-1.1a86.5 86.5 0 0 0 1 8.9c.1.7 1.1.4 1-.3l-1.2-7.3-1 .3.7 3.5c.1.6 1.1.4 1-.3z"/><path fill="#2f1912" d="M56.7 174c.5 3.1.8 6.3 1.1 9.4.1.7 1.1.7 1.1 0-.3-3.2-.7-6.5-1.2-9.7-.1-.7-1.1-.4-1 .3zm.4 16.5l-.2-.5c-.2-.6-1.2-.4-1 .2.4 2.2.9 4.3 1.2 6.4l1-.3a18.5 18.5 0 0 1-.6-5.7h-1l1 5.3c.1.6 1.1.5 1-.1l-.3-5.8h-1l.8 4.5a.5.5 0 0 0 1-.1v-3.9h-1.2c.4 2.3.7 4.5 1 6.7a.6.6 0 0 0 .5.6.5.5 0 0 0 .5-.6c-.3-2.3-.6-4.6-1-6.9a.5.5 0 0 0-1 .1v3.9l1.1-.2-.8-4.5c-.1-.5-1.1-.4-1 .2l.3 5.8 1-.2-1-5.3c-.1-.6-1-.4-1 .2a20.4 20.4 0 0 0 .6 6c.1.7 1.1.4 1-.3s-.7-4.2-1.2-6.3l-1 .2.2.6c.3.6 1.3.3 1-.3z"/><path fill="#2f1912" d="M57.4 195.4c.5 2.1.9 4.3 1.2 6.5h1a41.6 41.6 0 0 1-1.2-6.9l-1 .2 1 6.8 1-.3-1.1-5.7-1 .2 1.4 6.5a.6.6 0 0 0 1.1-.1l-.3-5.3h-1l.6 3.8c.1.6 1.1.5 1-.1l-.2-2c0-.7-1.1-.7-1 0a85.6 85.6 0 0 0 1.7 11.3l1-.3-2.6-9.2c-.2-.6-1.2-.3-1 .3a86.3 86.3 0 0 0 6.5 18.9c.3.6 1.1 0 .9-.6a85.2 85.2 0 0 1-6.4-18.6l-1 .3 2.6 9.2c.2.7 1.1.4 1-.3a100.7 100.7 0 0 1-1.7-11h-1l.2 2h1l-.6-3.9c-.1-.6-1.1-.4-1.1.2l.3 5.3h1l-1.4-6.5c-.2-.7-1.2-.4-1 .2l1.1 5.8c.2.7 1.1.4 1-.3l-1-6.8c-.1-.6-1.1-.4-1.1.1a60.5 60.5 0 0 0 1.3 7.2c.1.5 1.1.4 1-.2-.3-2.3-.7-4.6-1.2-6.8a.5.5 0 1 0-1 .3z"/><path fill="#2f1912" d="M61.5 208v-.2l-1 .2a34.7 34.7 0 0 1 2 5l.9-.5-.6-.5c-.2-.1-.5-.2-.7 0a.5.5 0 0 0 0 .8l.6.5a.7.7 0 0 0 .6.1c.2-.2.3-.4.2-.6a48.7 48.7 0 0 0-2.1-5.3.5.5 0 0 0-.6-.2c-.2 0-.3.2-.4.5a1.6 1.6 0 0 0 .3.8.5.5 0 0 0 .7.1.6.6 0 0 0 .2-.7zM60 225.1a17.3 17.3 0 0 0 3.5 5.4c.4.5 1-.1.8-.6a27.6 27.6 0 0 0-2.5-4.4c-.3-.4-1.1-.2-.9.4a17.9 17.9 0 0 0 3.4 6c.3.3.8 0 .8-.4a5.3 5.3 0 0 0-.8-2.7l-1.5-2.8a.5.5 0 0 0-1 .4 22.3 22.3 0 0 0 3.3 5.8c.1.2.5.2.7 0a.9.9 0 0 0 .2-1l-.6-1.6-1.3-3.3-.9.4 3.1 5.4c.3.5 1.2.1 1-.4l-2-5.8-1 .4a35 35 0 0 1 2.9 5.4c.2.6 1.1.1.9-.5a38.6 38.6 0 0 1-1.9-5.4l-.9.4a28 28 0 0 0 3.2 5.2c.4.5 1.1-.1.8-.6a38.2 38.2 0 0 1-2.5-6l-1 .4 3 4.9a.5.5 0 1 0 .9-.5l-2.3-4.4-.9.6a51.4 51.4 0 0 0 4.8 6.7c.4.5 1.2-.2.7-.7a59.9 59.9 0 0 1-4.6-6.6.5.5 0 0 0-.9.6l2.3 4.3.9-.5-3-5c-.3-.5-1.1-.1-.9.4a34.8 34.8 0 0 0 2.6 6.3l.8-.6a32.5 32.5 0 0 1-3-5.1c-.3-.5-1.1-.1-1 .4a27.5 27.5 0 0 0 2 5.7l.9-.5a35 35 0 0 0-2.9-5.4.5.5 0 0 0-.9.4l2 5.7.9-.4-3.1-5.4c-.3-.5-1.2-.1-1 .4l1 2.6.5 1.2.2.7c0 .1.1.6.3.4h.7a18.6 18.6 0 0 1-3-5.3l-.9.4 1.3 2.5a4.5 4.5 0 0 1 .9 2.5l.9-.4a16.2 16.2 0 0 1-3.1-5.4l-1 .4a23 23 0 0 1 2.5 4.3l.8-.6a15.8 15.8 0 0 1-3.2-5c-.2-.6-1.3-.4-1 .3z"/><path fill="#2f1912" d="M64.3 230a15.6 15.6 0 0 0 3.3 3.5.6.6 0 0 0 .8-.6 4.9 4.9 0 0 0-1.7-2.5.5.5 0 0 0-.8.6 7.4 7.4 0 0 0 3.2 2.6c.4.2 1-.2.7-.7a4.9 4.9 0 0 0-1.7-1.8.5.5 0 0 0-.7.7 3.5 3.5 0 0 0 2.3 1.6.6.6 0 0 0 .6-.8 26.1 26.1 0 0 0-2-3l-.7.8 1.8 1.7c.5.4 1.2.7 1.7.2a.9.9 0 0 0 .1-.7l-1.9-2.1c-.4-.4-1.2.2-.8.7a12 12 0 0 0 2.9 2.6c.5.2 1-.3.7-.7a7 7 0 0 0-2.6-2.8c-.4-.3-.9.2-.8.6a3.6 3.6 0 0 0 1.3 1.9 5.2 5.2 0 0 1 1.6 1.7l.5-.7a37.1 37.1 0 0 1-5.8-1.1c-.5-.2-.8.5-.5.8s3.9 1.8 5.9 1.6a.5.5 0 0 0 .2-1l-3.3-.5c-.6-.1-.6.7-.3 1s3.6.4 5.4.7 1-.7.4-.9a23.6 23.6 0 0 1-4.8-2.9l-.6.8 2.6 1.7v-1c-.8.2-1.6-.4-2.3-.5a2.2 2.2 0 0 0-1.9.5c-.5.4.3 1.2.7.7a1.7 1.7 0 0 1 1.7 0 3 3 0 0 0 2.1.3c.4 0 .4-.7.1-.9l-2.6-1.7c-.5-.3-1.1.5-.6.8a19.9 19.9 0 0 0 5 3.1l.4-1a12.2 12.2 0 0 0-2.7-.1 3.9 3.9 0 0 1-2.4-.5l-.3.9 3 .5v-1c-1.8.1-3.8.1-5.1-1.3l-.5.9a53.1 53.1 0 0 0 6 1.2.6.6 0 0 0 .5-.7 5.5 5.5 0 0 0-1.5-1.9 3 3 0 0 1-1.4-1.7l-.7.6a6.4 6.4 0 0 1 2.2 2.4l.7-.7a9 9 0 0 1-2.5-2.3l-.8.7a10.5 10.5 0 0 1 1.7 1.9v-.7h-.3l-.7-.6-1.1-1.1c-.4-.5-1.1.3-.7.8a13.4 13.4 0 0 1 1.8 2.8l.6-.8a2.1 2.1 0 0 1-1.7-1.1l-.7.7a4.4 4.4 0 0 1 1.3 1.4l.7-.7a6.7 6.7 0 0 1-2.8-2.2l-.8.6a4.8 4.8 0 0 1 1.4 2l.7-.5a14.2 14.2 0 0 1-2.9-3.1c-.4-.6-1.3-.1-.9.5z"/><path fill="#2f1912" d="M62.8 228a1.8 1.8 0 0 0-1.1-.8.6.6 0 0 0-.6.8 16.5 16.5 0 0 0 4.6 4.9.6.6 0 0 0 .6-.1c.5-.4.3-.9 0-1.3a7.5 7.5 0 0 0-1.6-1.5 21.8 21.8 0 0 0-3.4-2.6.6.6 0 0 0-.7.1c-.8.8.3 1.9.8 2.5a19.7 19.7 0 0 0 2.5 2.5.5.5 0 0 0 .8-.5 5 5 0 0 0-1.8-2.9 14 14 0 0 0-3.2-2.2.5.5 0 0 0-.8.6 8.8 8.8 0 0 0 4.1 5 .5.5 0 0 0 .7-.7 16.1 16.1 0 0 0-5.6-5.1c-.5-.2-1 .3-.7.7a8.4 8.4 0 0 0 4.6 4.3.6.6 0 0 0 .6-.8 9.1 9.1 0 0 0-5.6-4 .5.5 0 0 0-.7.6 5.1 5.1 0 0 0 3.7 3.3.6.6 0 0 0 .6-.8 10 10 0 0 0-2.2-2.4 4.9 4.9 0 0 0-2.7-1.3c-1.2-.1-1.3 1-1 1.9a3.5 3.5 0 0 0 1.9 2.4c.6.3 1.1-.6.5-.9a2.7 2.7 0 0 1-1.4-1.6 4.5 4.5 0 0 0-.2-.8c.2-.1.9.3 1 .3a8.4 8.4 0 0 1 3.2 3l.6-.8a4.2 4.2 0 0 1-3-2.6l-.6.7a8.1 8.1 0 0 1 5 3.5l.6-.7a7.4 7.4 0 0 1-4-3.8l-.8.7a13.4 13.4 0 0 1 5.3 4.7l.7-.7a7.5 7.5 0 0 1-3.6-4.4l-.7.6 2.7 1.8c.7.6 1.7 1.4 1.8 2.4l.8-.4a9.8 9.8 0 0 1-1.8-1.7l-.8-.9-.3-.4-.2-.3h-.7a17.4 17.4 0 0 1 2.6 1.9l1.2 1 .5.5.3.2c.1.2.1.3.3.1h.6a16.3 16.3 0 0 1-4.2-4.5l-.6.7c.2.1.4.1.5.3s1.2.1.9-.5z"/><path fill="#2f1912" d="M50 228.5l-2.8-1.3c-.6-.3-1.1.6-.5.9a25.1 25.1 0 0 0 7.6 3 .5.5 0 0 0 .2-1l-8.3-2.7c-.6-.2-.9.8-.3 1a61.9 61.9 0 0 0 11.8 3 .5.5 0 0 0 .5-.4c.2-.8-.4-1.3-1.1-1.7l-3-1-6.8-2.4c-.6-.2-.8.8-.2 1 2.6 1 5.2 1.9 7.9 2.7s2.6.7 3.9.9a4.9 4.9 0 0 0 3.4-.3.5.5 0 0 0 .2-.7 3.1 3.1 0 0 0-2.3-1.4l-3.9-.6-8.1-.9c-.6-.1-.7.8-.1 1a46.8 46.8 0 0 0 10.5 3c.6.1.9-.8.3-1L44 225a.5.5 0 0 0-.4 1c4.5 1.9 9.2 3.9 14.2 4.7a.5.5 0 0 0 .2-1 83.5 83.5 0 0 0-13.9-3.6c-.6-.2-.9.8-.3 1l8.9 2.3 4.4 1.1a3.6 3.6 0 0 0 3.2-.2.5.5 0 0 0 0-.9 48.7 48.7 0 0 0-10.2-3.9c-.6-.2-.9.8-.2 1a70.1 70.1 0 0 0 10.2 2.9l.2-1a47.8 47.8 0 0 1-14.1-1.7.5.5 0 0 0-.3 1 50.7 50.7 0 0 0 11.4 3.1l.2-1a42.9 42.9 0 0 1-14.6-3.1l-.3 1a126.8 126.8 0 0 0 13.3 4c.6.1.9-.9.2-1l-13.3-3.6c-.6-.1-.9.8-.3 1l13 3.9.3-1-14.2-3.8c-.6-.2-.9.8-.3 1l13.5 4 .3-1c-5.1-.9-10.2-1.8-14.8-4.1l-.4 1a114.3 114.3 0 0 0 16.3 4.1v-1a25.6 25.6 0 0 1-8.7-.9l-8.7-2.5c-.6-.2-.9.8-.3 1 3 .9 5.9 1.8 8.9 2.5a26.4 26.4 0 0 0 8.8.9c.6-.1.8-.9.2-1a111.1 111.1 0 0 1-16.3-4.1c-.6-.2-.9.7-.4.9 4.7 2.4 9.9 3.3 15 4.2.6.1.9-.8.3-1l-13.5-4-.3 1 14.3 3.8c.6.2.9-.8.3-1l-13-3.9-.3 1 13.4 3.6.2-1a118.3 118.3 0 0 1-13.2-4 .5.5 0 0 0-.3 1 44.7 44.7 0 0 0 14.9 3.2c.5 0 .7-1 .1-1.1a50.7 50.7 0 0 1-11.4-3.1l-.3 1a49.9 49.9 0 0 0 14.4 1.8.6.6 0 0 0 .1-1.1 75.2 75.2 0 0 1-10.3-2.9l-.2 1a51.8 51.8 0 0 1 9.9 3.8v-.9c-1 .7-2.4.1-3.4-.1l-4.1-1.1-8.2-2.1-.3 1a84.6 84.6 0 0 1 14 3.6l.2-1c-4.8-.8-9.4-2.7-13.9-4.6l-.4.9 14.9 4.6.3-1a55.7 55.7 0 0 1-10.6-3v1l7.3.8 3.7.6c.8.1 1.9.2 2.4 1l.2-.7a4.5 4.5 0 0 1-3.4 0l-3.8-.9c-2.5-.7-4.9-1.6-7.3-2.5l-.2 1 5.3 1.9 2.5.9c.4.1 2.4.6 2.3 1.1l.5-.4a59.1 59.1 0 0 1-11.5-3l-.3 1 8.4 2.7.2-1a24.2 24.2 0 0 1-7.3-2.9l-.5.9 2.7 1.3c.6.3 1.2-.6.6-.9z"/><path fill="#2f1912" d="M57.6 230.6a20.7 20.7 0 0 0-3.5-.3.5.5 0 0 0-.1 1 18.6 18.6 0 0 0 8.1 1.5.6.6 0 0 0 .3-1 9.4 9.4 0 0 0-3.2-.8l-3.9-.5-.2 1 5 .7 2.5.4a2.3 2.3 0 0 0 1.8-.2.5.5 0 0 0-.1-.9c-2.5-1-5.3-.4-7.7-1.6l-.3.9a34.3 34.3 0 0 1 5.6.8v-1c-3.3.3-6.7.3-10.1.3a.6.6 0 0 0-.1 1.1 43.1 43.1 0 0 0 8.8.9v-1.1a24.3 24.3 0 0 1-6-.5v1l9.4.9c.6.1.7-.9.2-1-3-.7-6.2 0-9.1-1.2l-.2 1c4.1.9 8.3 3.6 12.6 1.9.4-.2.6-.9 0-1l-7.4-1.2-.3 1a39.9 39.9 0 0 0 6.8.6.5.5 0 0 0 .2-1l-5.4-1.5-.3 1a32 32 0 0 0 4.1.7.5.5 0 0 0 .4-.9l-.9-.8a.5.5 0 0 0-.7.8l.9.7.3-.9-3.8-.6c-.6-.2-.9.8-.3 1l5.4 1.5v-1l-6.5-.6c-.6-.1-.9.9-.3 1l7.4 1.2v-1c-4 1.6-8.1-1.1-12.1-1.9a.5.5 0 0 0-.2 1c2.8 1.2 6 .5 9 1.2v-1l-9.4-1a.6.6 0 0 0-.2 1.1 33.6 33.6 0 0 0 6.3.6c.6-.1.6-1.1 0-1.1a35.3 35.3 0 0 1-8.4-.8v1c3.4 0 6.8-.1 10.1-.3.6-.1.8-.9.2-1.1a29.9 29.9 0 0 0-5.9-.8.6.6 0 0 0-.3 1c2.5 1.2 5.4.7 8 1.7v-1c-.5.3-1.5 0-2-.1l-2.3-.3-4.3-.6c-.6-.1-.9.9-.2 1l3.6.5c1 .2 2.2.1 3.1.7l.3-1a19.4 19.4 0 0 1-7.9-1.4v1a16.6 16.6 0 0 1 3.2.3c.7.1 1-.9.3-1z"/><path fill="#2f1912" d="M66 232.9l1.6.6.3-.9h-8.1c-.6-.1-.7.9-.2 1 3.3.5 6.7-.1 10 .5v-.9a2.7 2.7 0 0 1-4-1.9c-.1-.6-1.1-.3-1 .3A3.8 3.8 0 0 0 70 234a.5.5 0 0 0-.1-1c-3.3-.6-6.7 0-10-.5v1a73 73 0 0 0 8.1.1.5.5 0 0 0 .3-1l-1.9-.7a.5.5 0 0 0-.3 1zm1.6-4.4H67c-.2 0-.3.1-.5.3a.4.4 0 0 0-.1.3.4.4 0 0 0 .1.3 8 8 0 0 0 1.5 1.7.5.5 0 0 0 .4.2l.3-.2c.2-.2.3-.5 0-.7l-.7-.8a.8.8 0 0 1-.4-.4s.1.1 0 .1h-.1v.4a.6.6 0 0 0 .7-.4.6.6 0 0 0-.4-.6zm-19.8-3.8l-3.7-.3a.5.5 0 0 0-.4.8 14.8 14.8 0 0 0 4.3 3.1c.2.1.5.1.6-.1a.5.5 0 0 0 0-.7 14.3 14.3 0 0 0-5.4-3.3c-.2-.1-.5.1-.6.3a.5.5 0 0 0 .2.6l2.1 1.4a.5.5 0 0 0 .7-.1.8.8 0 0 0-.2-.8l-2-1.4-.4 1a13.8 13.8 0 0 1 4.9 3l.6-.8a14.6 14.6 0 0 1-4.1-2.9l-.3.9 3.7.4a.6.6 0 0 0 .5-.6.5.5 0 0 0-.5-.5z"/><path fill="#2f1912" d="M36.7 224.9l-.9-.4-.4.9a19.1 19.1 0 0 0 4.7 1.2c.6 0 .6-.9.1-1.1l-6-2a.5.5 0 0 0-.3 1 56.3 56.3 0 0 0 9 3.1c.5.1.9-.7.4-1-2.4-1.1-4.8-2-7.2-2.9a.5.5 0 0 0-.3 1l9.8 4.2c.5.2.9-.7.4-1l-8.2-4.4-.4 1a49.2 49.2 0 0 0 8.2 2.7.5.5 0 0 0 .4-.9l-5.6-2.6-.4 1 7.5 2.4a.5.5 0 0 0 .4-.9l-4.5-2.9-.5.9a61.7 61.7 0 0 0 7.2 3.8l.3-.9a21.4 21.4 0 0 1-8.6-1.5l-.3 1a20.6 20.6 0 0 1 4.4 1.4l.3-.9a32.8 32.8 0 0 1-8.2-2l-.3 1a31.7 31.7 0 0 1 4.4 1.2l.3-1c-2.3-.5-4.6-1.1-6.8-1.8l-.3 1a42.2 42.2 0 0 1 4.5 1.8l.4-1-5.5-2.2c-.6-.2-.9.8-.3 1a57.7 57.7 0 0 1 5.6 2.7l.4-.9-5.7-2.3c-.5-.2-.9.7-.4 1l6.4 2.7c.6.2 1.2-.6.6-.9a50.5 50.5 0 0 0-6.1-2.3c-.6-.2-1 .7-.4.9l6 2.7.4-.9a58.3 58.3 0 0 1-7-2.5l-.4 1a24.7 24.7 0 0 1 6.5 2.1l.4-1a33.8 33.8 0 0 1-8.3-4.1l-.4.9 11 2.9c.5.1.9-.7.4-1a37.7 37.7 0 0 0-7.1-3.2c-.5-.2-.9.7-.4.9a59.2 59.2 0 0 0 8.9 3.2.5.5 0 0 0 .3-1 64.1 64.1 0 0 1-8.7-3.1l-.4 1a38.2 38.2 0 0 1 6.8 3.1l.4-.9-10.9-2.9a.5.5 0 0 0-.4 1 37.4 37.4 0 0 0 8.5 4.2c.5.2.9-.7.4-.9a26.3 26.3 0 0 0-6.7-2.2c-.5-.2-1 .7-.4.9a69.3 69.3 0 0 0 7.2 2.6c.6.1 1-.8.4-1l-6-2.7-.4 1a40.7 40.7 0 0 1 5.8 2.2l.6-.9-6.4-2.7-.4.9 5.6 2.3c.6.2.9-.7.4-1a44.1 44.1 0 0 0-5.8-2.8l-.3 1 5.5 2.2c.5.2.9-.7.4-.9a27.2 27.2 0 0 0-4.7-1.9.5.5 0 0 0-.3 1c2.2.7 4.5 1.3 6.8 1.8a.5.5 0 0 0 .3-1 31.7 31.7 0 0 0-4.4-1.2c-.6-.1-.9.8-.3 1a31.9 31.9 0 0 0 8.5 2 .5.5 0 0 0 .2-1 17.7 17.7 0 0 0-4.6-1.5.5.5 0 0 0-.3 1 22.9 22.9 0 0 0 8.9 1.5.5.5 0 0 0 .3-1 72.4 72.4 0 0 1-7.3-3.8c-.6-.4-1.1.5-.5.9l4.5 2.9.4-1-7.5-2.4c-.5-.2-.9.7-.4.9l5.6 2.6.4-1a49.2 49.2 0 0 1-8.2-2.7c-.6-.3-.9.6-.4.9l8.2 4.4.4-.9-9.8-4.2-.3 1a71 71 0 0 1 6.9 2.8l.4-.9a58.7 58.7 0 0 1-8.9-3.1l-.3 1 6 2 .2-1a16.7 16.7 0 0 1-4.4-1.1c-.5-.2-.9.8-.4 1l.9.4c.6.2 1.2-.7.5-.9z"/><path fill="#2f1912" d="M13.9 207.5l-1.6-.9a.6.6 0 0 0-.7.9l1.7 2c.4.4 1.2-.2.9-.6l-2.1-2.3a.6.6 0 0 0-.8.8l2 2.2.7-.7-1.8-1.8a.5.5 0 0 0-.8.7l2.2 2.4a.5.5 0 1 0 .7-.7l-.8-1-.6.9a52.1 52.1 0 0 1 6.2 5.4l.7-.8-4.1-3.2a.5.5 0 0 0-.7.8l6.6 6.6.7-.8a39.3 39.3 0 0 1-5.8-5l-.7.8a89.4 89.4 0 0 0 8.8 7.5l.6-.9a14.3 14.3 0 0 1-3.5-3l-.7.7a47.6 47.6 0 0 0 12.8 8.5.5.5 0 1 0 .5-.9l-8.9-5.9c-.6-.4-1.1.5-.6.9a31 31 0 0 0 9.6 4.4c.6.1 1-.7.4-1l-6.9-3.2a.5.5 0 0 0-.6.8 17 17 0 0 0 6.4 4.2l.3-1a13.2 13.2 0 0 1-5.3-2.6l-.5.9 4 2.8.4-1a5.5 5.5 0 0 1-3.3-3.2l-.8.6c4.7 2.8 9.8 5.9 15.6 5.8a.6.6 0 0 0 .1-1.1 24.2 24.2 0 0 1-6.4-2.7 22.2 22.2 0 0 0-2.7-1.9 20.2 20.2 0 0 0-3-1.4c-2-.8-4.1-1.4-6.1-2.4a16.8 16.8 0 0 1-5.1-4.1c-.5-.5-1.2.3-.7.8a20.4 20.4 0 0 0 5.1 4.1 46.7 46.7 0 0 0 6.2 2.4 16.8 16.8 0 0 1 3 1.5l2.9 2a25.5 25.5 0 0 0 6.6 2.7v-1c-5.6.1-10.5-2.8-15.1-5.6-.3-.3-.9.1-.7.5a6.6 6.6 0 0 0 4 4c.6.3.9-.6.4-.9l-4-2.8c-.5-.4-1.1.5-.5.9a12.9 12.9 0 0 0 5.5 2.7.5.5 0 0 0 .3-1 16 16 0 0 1-6-3.9l-.6.8 6.9 3.2.4-.9a26.3 26.3 0 0 1-9.3-4.3l-.6.9 9 5.9.5-.9a43.7 43.7 0 0 1-12.6-8.3c-.4-.5-1.1.2-.7.7a15.6 15.6 0 0 0 3.6 3.2c.6.4 1.1-.5.6-.9a77.2 77.2 0 0 1-8.7-7.4.5.5 0 0 0-.7.8 58.4 58.4 0 0 0 5.9 5.1c.5.3 1.1-.4.7-.9l-6.7-6.6-.7.8 4.1 3.2a.5.5 0 0 0 .7-.8 56.2 56.2 0 0 0-6.4-5.5c-.5-.4-1 .4-.6.8l.8.9.7-.7-2.1-2.4-.8.7 1.9 1.8a.5.5 0 1 0 .7-.7l-1.9-2.3-.8.8a18.9 18.9 0 0 1 2 2l.8-.6-1.7-2.1-.7.8 1.7.9c.6.2 1.2-.7.5-.9zm42.5 6.3l-.2-.6a.5.5 0 0 0-1 .3 30 30 0 0 0 2.3 5.6l.9-.5a25 25 0 0 1-3-5.3c-.2-.5-1.2-.1-1 .4a16.3 16.3 0 0 0 5.4 7.5c.2.2.5.3.7 0a.4.4 0 0 0 0-.7 16.1 16.1 0 0 1-5.1-7l-.9.4a27 27 0 0 0 3 5.2c.4.5 1.2.1.9-.5a25.5 25.5 0 0 1-2.2-5.4l-1 .3.2.5c.2.7 1.2.4 1-.2zM11.8 176a31.3 31.3 0 0 1 4.4-21.7c4.5-7.3 11.8-12 19.8-14.4a40.3 40.3 0 0 1 7.7-1.5 13.9 13.9 0 0 1 7.3.8c.6.3 1.1-.6.5-.9-4.2-1.9-9.2-1-13.5 0a40.9 40.9 0 0 0-12.9 5.5A32.5 32.5 0 0 0 11.3 163a33.2 33.2 0 0 0-.6 13.3c.2.7 1.2.4 1.1-.3z"/><path fill="#2f1912" d="M20.6 143.5a5 5 0 0 0-.8 3.1c0 .3.4.7.7.4a16.1 16.1 0 0 0 3.5-3.4l-1-.4-.9 2.7c-.2.4.4.8.7.5a9 9 0 0 0 3.1-3.6l-1-.4-.2 1.7c-.1.4.3.9.7.6a7 7 0 0 0 2.6-2.8l-.9-.5-.4.9c-.2.6.6 1.1.9.5l1.5-2.2c.3-.3-.1-.9-.6-.7a10.2 10.2 0 0 0-4.7 3.2.6.6 0 0 0 .6.9 9.4 9.4 0 0 0 3-2.6c.3-.5-.4-1.1-.8-.7l-2.5 2.6c-.4.3 0 1 .5.8a4.9 4.9 0 0 0 2.6-1.9c.3-.4-.3-1-.7-.7l-7.1 5.2.7.7a12.7 12.7 0 0 1 5.5-4.2 32.9 32.9 0 0 0 6-3.6c.5-.4-.1-1.1-.6-.8l-2.4 1.3a.5.5 0 1 0 .5.9 4.1 4.1 0 0 0 2.1-2c.2-.4 0-.8-.4-.8a3 3 0 0 0-3.1 2.8.5.5 0 0 0 .8.4 7.7 7.7 0 0 0 3.6-3.3c.3-.4-.2-.9-.7-.7a2.3 2.3 0 0 0-1.2 2.4c0 .2.3.4.5.4a2.9 2.9 0 0 0 2.7-2.1c.1-.2-.1-.6-.3-.6a1.4 1.4 0 0 0-1.7 1.8c.1.2.4.4.6.3a3 3 0 0 0 2.3-2c.2-.4-.2-.7-.6-.6a3.5 3.5 0 0 0-2.5 1.4.5.5 0 0 0 .2.9 2.8 2.8 0 0 0 3.2-3.4.5.5 0 0 0-.7-.3c-.8.3-1.6.8-1.6 1.7a1.3 1.3 0 0 0 1.1 1.4 3.3 3.3 0 0 0 2.2-1.4 9.5 9.5 0 0 0 1.4-2.4c.1-.3-.3-.7-.7-.6a2.5 2.5 0 0 0-1.8 1.4 1.4 1.4 0 0 0 .7 1.6c1.6 1.1 3-.6 3.6-1.9a.5.5 0 1 0-.9-.5 5.8 5.8 0 0 0-.9 2.5.5.5 0 0 0 .5.7 3.2 3.2 0 0 0 3-2.7c.1-.5-.3-.8-.7-.6a2.2 2.2 0 0 0-1.3 2.1.5.5 0 0 0 .5.5 4.5 4.5 0 0 0 4.5-2.6.5.5 0 0 0-.4-.8 2 2 0 0 0-1.9 2.5.4.4 0 0 0 .4.3 4 4 0 0 0 4.3-1.8c.4-.6.5-1.5-.3-1.7a1.9 1.9 0 0 0-1.8.6 2.2 2.2 0 0 0-.8 2.1 1.8 1.8 0 0 0 1.6 1c1.9.2 2.5-1.7 2.8-3.2a.7.7 0 0 0-.4-.7 1.3 1.3 0 0 0-.8 2.4c1.4.9 2.6-.7 3-1.9a.5.5 0 0 0-.9-.5 2.5 2.5 0 0 0-.1 3 .6.6 0 0 0 .8.1c.6-.6 1-2.2-.2-2.3a.9.9 0 0 0-.5 1.7c.2.1.6.1.7-.2l.6-1.2c.2-.7-.7-1.2-.9-.6l-.6 1.3.7-.2c-.1-.1-.4.6-.5.7h.8a1.4 1.4 0 0 1 0-1.7l-.9-.5a1.5 1.5 0 0 1-.9 1.3h-.6c-.1-.1-.2-.5.1-.5l-.4-.6c-.1.8-.3 2.1-1.2 2.4s-1.6-.2-1-.9.8-.9 1-.7l-.8.9a3 3 0 0 1-2.6.6l.4.4a.9.9 0 0 1 .9-1.1l-.5-.8a3.5 3.5 0 0 1-3.6 2.1l.5.5a1.2 1.2 0 0 1 .8-1.2l-.8-.6a2.1 2.1 0 0 1-2 1.9l.5.7a6.3 6.3 0 0 1 .8-2.3l-.9-.5c-.3.6-.8 1.8-1.7 1.7s-.8-.3-.7-.7a2.4 2.4 0 0 1 1.1-.6l-.6-.6a7.8 7.8 0 0 1-1.6 2.4c-.3.2-1 .9-1 .3s.7-.8 1-.9l-.8-.3a1.8 1.8 0 0 1-1.9 2.1l.2.9A2.8 2.8 0 0 1 34 138l-.7-.7a1.8 1.8 0 0 1-1.5 1.3l.6.4c-.1-.2.1-.6.4-.5l-.4-.7a1.7 1.7 0 0 1-1.7 1.3l.5.4a1.2 1.2 0 0 1 .7-1.2l-.7-.7a6.9 6.9 0 0 1-3.2 2.9l.7.5a2.1 2.1 0 0 1 2.1-1.8l-.4-.8a3.3 3.3 0 0 1-1.8 1.7l.5.9 2.4-1.3-.6-.8c-3.7 3-8.9 3.8-11.7 8a.6.6 0 0 0 .8.7l7-5.2-.7-.7a3.5 3.5 0 0 1-2 1.4l.5.9 2.5-2.5-.8-.7a8.2 8.2 0 0 1-2.6 2.3l.6.8a9.9 9.9 0 0 1 4.3-3l-.6-.8-1.5 2.2.9.5.4-.9a.5.5 0 1 0-.9-.5 6.4 6.4 0 0 1-2.2 2.4l.8.6.2-1.7c.1-.5-.6-1-.9-.4a7.6 7.6 0 0 1-2.7 3.2l.8.6.9-2.6c.2-.6-.6-.8-.9-.4a12.6 12.6 0 0 1-3.1 3l.8.5a4.3 4.3 0 0 1 .7-2.5c.3-.6-.6-1.1-.9-.6z"/><path fill="#2f1912" d="M12.9 158.9v.7c0 .5.9.7 1 .1 2-8.2 8.1-14.5 14.5-19.6.6-.4-.2-1.1-.7-.7-6.6 5.2-12.8 11.6-14.8 20l1 .2v-.7a.5.5 0 0 0-1 0z"/><path fill="#2f1912" d="M13.8 159.6c4.5-7.6 9.7-15.1 17.3-19.8a21.9 21.9 0 0 1 3-1.6l1.7-.8.8-.3.9-.3c.6.1.6-.9 0-1s-1 .3-1.4.4l-1.5.6a15.9 15.9 0 0 0-2.9 1.5 28 28 0 0 0-5.3 3.7 49.8 49.8 0 0 0-9.1 10.3c-1.6 2.2-3 4.5-4.4 6.8-.3.5.6 1.1.9.5z"/><path fill="#2f1912" d="M11.8 168.3a68.3 68.3 0 0 1 6.9-18.6.5.5 0 1 0-.8-.5 66.9 66.9 0 0 0-7.1 18.8c-.2.6.8.9 1 .3z"/><path fill="#2f1912" d="M12.1 168.1a51.3 51.3 0 0 1 7.7-19.6 57.2 57.2 0 0 1 3.7-4.9.5.5 0 0 0-.8-.7 50.4 50.4 0 0 0-10.2 18.9 40.2 40.2 0 0 0-1.4 6c-.1.7.9.9 1 .3zm14.8-27.5a1.1 1.1 0 0 0 .9 1.7c1.2 0 1.5-1.2 2.2-1.8s-.2-1.2-.6-.8a2.6 2.6 0 0 0-1.3 1.9.5.5 0 0 0 .6.6 3.8 3.8 0 0 0 2.9-2.3.6.6 0 0 0-.5-.7 1.5 1.5 0 0 0-1.4 1.7.6.6 0 0 0 .7.4 5.3 5.3 0 0 0 2.8-2.7c.2-.4-.2-1-.7-.7a2.2 2.2 0 0 0-1.1 2 .5.5 0 0 0 .7.5 4.3 4.3 0 0 0 2.7-2.7c.2-.3-.1-.7-.5-.7a1.7 1.7 0 0 0-1.5 2.3.5.5 0 0 0 .7.3 6.8 6.8 0 0 0 2.2-2.6c.2-.5-.4-1.1-.8-.6a2.9 2.9 0 0 0-1 2.3c0 .4.4.6.8.4a4.1 4.1 0 0 0 2.2-2.3c.2-.4-.2-1-.7-.7a2.7 2.7 0 0 0-1.2 2.3.5.5 0 0 0 .7.5 3.5 3.5 0 0 0 2.2-2.5c.1-.3-.2-.8-.6-.6a2 2 0 0 0-1.5 2c0 .3.4.5.7.5a2.8 2.8 0 0 0 1.6-1.2l-1-.4c-.4 1.1-1.8 1.5-2.8 1.8a7.7 7.7 0 0 0-3 1.5c-.4.5.1 1.1.6.8l3.2-1.4a15.7 15.7 0 0 0 2.5-1.4c1.2-.9 1.9-2.7.8-4s-.6-.2-.7 0-1.9 3.3-.1 3.6 2.5-1.9 2.8-3a.5.5 0 0 0-.8-.6 4.2 4.2 0 0 0-1.8 2.3c-.1.5.6.9.9.5a21.6 21.6 0 0 0 2.7-3.3l-.9-.5a6.3 6.3 0 0 0-.6 2.7.5.5 0 0 0 .9.4 6.5 6.5 0 0 0 1.8-3.1c.2-.5-.7-.9-.9-.4a9.9 9.9 0 0 0-.9 2.4c-.2.5.4.8.8.5a4.6 4.6 0 0 0 1.7-2.4c.2-.6-.6-.8-.9-.4a4.7 4.7 0 0 0-.9 2.8.7.7 0 0 0 .8.5 4.3 4.3 0 0 0 2.3-2.5c.3-.5-.6-.8-.9-.4a4 4 0 0 0-.7 2.4.5.5 0 0 0 .8.4 3.5 3.5 0 0 0 1.4-2.5c0-.5-.7-.6-1-.3s-1.2 2.3-.3 3.2.4.2.6.1a5.5 5.5 0 0 0 2.2-3.2.5.5 0 0 0-.9-.4 3.1 3.1 0 0 0-.6 2.3c.1.3.3.6.7.5a2.9 2.9 0 0 0 2-2.7.5.5 0 0 0-.9-.3 4.5 4.5 0 0 0-.7 2.5c.1.3.3.6.7.5a1.9 1.9 0 0 0 .7-3.3c-.2-.3-.6-.2-.8.1a3.4 3.4 0 0 0-.4 2.8.5.5 0 0 0 .9.1 3.2 3.2 0 0 0 .5-2.7.5.5 0 0 0-1 .2 6.1 6.1 0 0 0 .1 1.9.5.5 0 0 0 .7.3.8.8 0 0 0 .7-.7h-.9l.9 1.7.6-.7a10.1 10.1 0 0 0-4.5-.7 11.1 11.1 0 0 0-4.3 1.2 1 1 0 0 0-.4 1.3c.4.5 1 .3 1.5.2l4.7-1.7-.5-.9a18.9 18.9 0 0 1-8.2 1.8.5.5 0 0 0-.1 1 9.7 9.7 0 0 0 6.7-.7c.6-.3.1-1.2-.5-.9-2.6 1.2-5.7.6-8.1 2.3a.5.5 0 0 0 .4.9 33.2 33.2 0 0 0 6.2-1.6l-.4-.9a20.4 20.4 0 0 1-3.5 1.1l.3 1a47.4 47.4 0 0 1 10.6-1.4c.4-.1.7-.6.4-.9a3.2 3.2 0 0 0-4-.3.6.6 0 0 0 0 .9 3 3 0 0 0 2.9.2c.3-.1.3-.6.1-.8a3.9 3.9 0 0 0-2.2-1.1v1l1.8-.5a.5.5 0 0 0 0-1 16.4 16.4 0 0 0-3.8-1c-.6-.1-1 .7-.4.9a3 3 0 0 0 3.6-.4.6.6 0 0 0-.1-.8 4.8 4.8 0 0 0-3.3-.4c-.6.2-.3 1.2.3 1a3.3 3.3 0 0 1 2.4.3v-.8a2.3 2.3 0 0 1-2.3.3l-.4.9a16.4 16.4 0 0 1 3.8 1v-1l-1.8.5c-.5 0-.5.9 0 1a3 3 0 0 1 1.7.8v-.8a1.7 1.7 0 0 1-1.8-.2v.9a2.1 2.1 0 0 1 2.7.1l.4-.9a50.2 50.2 0 0 0-10.9 1.6c-.6.1-.4 1.1.3 1a22.9 22.9 0 0 0 3.7-1.2.5.5 0 0 0-.4-1 31.3 31.3 0 0 1-6.2 1.6l.4 1c2.4-1.7 5.5-1.1 8.1-2.3l-.5-.9a8.6 8.6 0 0 1-5.9.6l-.2 1a18.5 18.5 0 0 0 8.7-1.9c.6-.3.1-1.2-.5-.9l-3.4 1.3-.9.2c-.1.1-1.1.3-.4.5l.7-.3.8-.3a9.4 9.4 0 0 1 6.4.2.5.5 0 0 0 .6-.8l-.9-1.7a.6.6 0 0 0-1 .1l.6.4a8.6 8.6 0 0 1-.1-1.6h-1a2.2 2.2 0 0 1-.4 1.9h1a2.4 2.4 0 0 1 .3-2H47a1 1 0 0 1-.3 1.6l.7.5a2.9 2.9 0 0 1 .5-2l-1-.2a1.8 1.8 0 0 1-1.3 1.7l.6.5a2.7 2.7 0 0 1 .5-1.8l-1-.4a3.9 3.9 0 0 1-1.7 2.6h.6c-.5-.5.2-1.5.5-1.9l-1-.3a1.8 1.8 0 0 1-.9 1.6l.8.5a2.8 2.8 0 0 1 .6-1.8l-1-.4a3.5 3.5 0 0 1-1.8 1.8l.8.4a3.3 3.3 0 0 1 .7-2.3l-1-.4a3.8 3.8 0 0 1-1.4 1.9l.9.5a6 6 0 0 1 .8-2.1l-1-.4a6.1 6.1 0 0 1-1.5 2.6l.9.4a5.4 5.4 0 0 1 .4-2.2c.3-.6-.4-1-.9-.5a37.6 37.6 0 0 1-2.5 3.1l.8.5a3 3 0 0 1 1.4-1.7l-.8-.6a4.1 4.1 0 0 1-1.2 2c-.2.1-.3.3-.4.1s0-.4 0-.5a2.3 2.3 0 0 1 .6-1.2h-.7c1 1.3-.8 2.6-1.8 3.1s-3 1.4-4.5 2.1l.7.9c.9-1 2.3-1.1 3.5-1.6a4.1 4.1 0 0 0 2.5-2.3c.2-.5-.7-.9-.9-.4a1.9 1.9 0 0 1-1 .8l.6.5c.1-.5.3-.9.7-1l-.6-.7a2.3 2.3 0 0 1-1.5 1.8l.6.5a1.5 1.5 0 0 1 .7-1.4l-.7-.7a3.5 3.5 0 0 1-1.9 1.9l.8.5a2.4 2.4 0 0 1 .7-1.6l-.8-.6a5.5 5.5 0 0 1-1.8 2.2l.8.3a.7.7 0 0 1 .5-1l-.5-.6a3.6 3.6 0 0 1-2 2l.7.5a.9.9 0 0 1 .5-1.1l-.7-.7a4 4 0 0 1-2.2 2.2l.6.3c0-.2.2-.3.4-.3l-.5-.7a2.7 2.7 0 0 1-2.2 1.6l.7.7a1.7 1.7 0 0 1 .8-1.3l-.6-.9-.7.8a1 1 0 0 1-.4.5s-.5.3-.4.1-.5-1-.9-.5z"/><path fill="#2f1912" d="M12.6 166.4a25.2 25.2 0 0 1 8.7-19.1c.5-.4-.2-1.1-.8-.7a25.9 25.9 0 0 0-8.9 19.8c0 .7 1.1.7 1 0z"/><path fill="#2f1912" d="M25.3 143.5a44.6 44.6 0 0 0-9.2 11.1 51.3 51.3 0 0 0-3.4 6.6 26.9 26.9 0 0 0-2.1 7.5 42.3 42.3 0 0 0 .1 9.4c.1.6 1.1.6 1 0a54.8 54.8 0 0 1-.2-8.1 26.2 26.2 0 0 1 1.9-7.8 56.6 56.6 0 0 1 7.2-12.3 41.5 41.5 0 0 1 5.4-5.7c.6-.4-.2-1.1-.7-.7z"/><path fill="#2f1912" d="M17.5 150.8a70.2 70.2 0 0 0-5 13.2 56.8 56.8 0 0 0-1.8 7.1 41.8 41.8 0 0 0-.3 7.1 23.2 23.2 0 0 0 1.3 7.8c.2.6 1.2.3 1-.3a19.3 19.3 0 0 1-1.2-6.7 43.3 43.3 0 0 1 .1-7.2 41.1 41.1 0 0 1 1.7-6.7c.6-2.2 1.2-4.4 2-6.5a46 46 0 0 1 3.1-7.2c.3-.6-.6-1.1-.9-.6z"/><path fill="#2f1912" d="M15.5 154.8a49 49 0 0 0-5.8 26 48 48 0 0 0 1.1 7.6.5.5 0 1 0 1-.3 47.6 47.6 0 0 1 1.5-25.9 53.7 53.7 0 0 1 3.1-6.9c.4-.6-.5-1.1-.9-.5z"/><path fill="#2f1912" d="M15.9 154.7a50.9 50.9 0 0 0-6.2 24.4c0 2.6.3 5.3.1 8-.1.6 1 .6 1 0 .2-2.3 0-4.5 0-6.8a34.3 34.3 0 0 1 .2-6.4 49.5 49.5 0 0 1 2.8-12.1c.9-2.2 1.9-4.4 3-6.5s-.6-1.2-.9-.6z"/><path fill="#2f1912" d="M48.1 138.3a28 28 0 0 0-4.1 0 41.6 41.6 0 0 0-9.8 2 32.9 32.9 0 0 0-11.4 7 37.2 37.2 0 0 0-9.3 14.7 53.6 53.6 0 0 0-2.6 11.2 56.1 56.1 0 0 0-.5 11.6 33.5 33.5 0 0 0 16.2 27 51.2 51.2 0 0 0 12.8 5.4 62.7 62.7 0 0 0 11.3 2.2l6 .3a.2.2 0 0 0 .3 0l-.5-.2.5.7c.4.5 1.3 0 .9-.5a50.6 50.6 0 0 1-7.5-22.3 50 50 0 0 1-.1-6.7.6.6 0 0 0-1.1 0 52.4 52.4 0 0 0 4.6 23.4 50.7 50.7 0 0 0 3.2 6.1l.9-.5c-.3-.5-.5-1-1.1-1h-3.5a84.2 84.2 0 0 1-9.9-1.4A58.4 58.4 0 0 1 31 213a39.8 39.8 0 0 1-11.7-8.6 31.5 31.5 0 0 1-7.1-14.4c-1.6-7.3-.9-15 .7-22.1a40.2 40.2 0 0 1 8-17.1 30.2 30.2 0 0 1 11-8.4 36.8 36.8 0 0 1 10.3-2.9 35.8 35.8 0 0 1 5.7-.2h.2c.7 0 .7-1 0-1.1z"/><path fill="#2f1912" d="M25.5 144.4a3.2 3.2 0 0 0-2.1 1.5.6.6 0 0 0 .2.7c.3.2.5.1.7-.2a12.2 12.2 0 0 1 1.5-1.7 5.2 5.2 0 0 1 1.8-1l-.5-.9a10.9 10.9 0 0 1-1.7 1.3c-.5.2-.1 1.1.4.9a5.1 5.1 0 0 0 1.6-.9c.5-.5-.3-1.2-.8-.7a9.1 9.1 0 0 1-1.9 1.3l.5.8 3.7-2.7a.7.7 0 0 0 .2-.7.5.5 0 0 0-.8-.2l-3.6 2.8a.5.5 0 1 0 .5.8 7.4 7.4 0 0 0 2.2-1.4l-.8-.7a3.3 3.3 0 0 1-1 .6l.4 1a12.4 12.4 0 0 0 1.8-1.4c.4-.4 0-1.1-.5-.9a7.8 7.8 0 0 0-2.2 1.2 10.6 10.6 0 0 0-1.7 2l.9.5a2.3 2.3 0 0 1 1.5-1c.3 0 .4-.4.3-.6s-.3-.4-.6-.4z"/><path fill="#dfb78c" d="M141.1 112.9s-14.9-4.5 2-40.3S131.5 9 111.8 3.7c0 0 27.4 21.1 24.1 48.1s-5.9 52.1 5.2 61.1zm19-16.9s-10.3-3.5 1.3-31.2-7.9-49.2-21.5-53.3c0 0 18.8 16.4 16.5 37.2s-4 40.3 3.7 47.3z"/><path fill="#2f1912" d="M255.2 199.7s-13.2 39-52.9 37c0 0 44.9-15.9 52.9-37z"/></symbol><symbol id="artboard-4" viewBox="0 0 64 64"><path fill="none" stroke="#2f1912" stroke-miterlimit="10" stroke-width=".26" d="M14.2 32.7s-2.1 24.1 4.3 28.1c0 0-18.4 1-18.5-14.8s14.2-13.3 14.2-13.3z"/><path fill="none" stroke="#2f1912" stroke-miterlimit="10" stroke-width=".18" d="M11.7 35.1s-1.8 18.8 2.5 21.5c0 0-11.9.1-11.9-10.6s9.4-10.9 9.4-10.9z"/><g fill="#2f1912"><path d="M12.5 33.6c-.1 1.4-.2 2.8-.4 4.2l1.3.2a10.1 10.1 0 0 1 .3-1.7 4 4 0 0 0 .1-1.9.7.7 0 0 0-1.2-.1 14.2 14.2 0 0 1-.8 1.8 3.7 3.7 0 0 0-.2 1.8.7.7 0 0 0 .8.5.7.7 0 0 0 .5-.8c-.1-.1-.1-.1-.1-.2s.1-.1.1-.2a1.4 1.4 0 0 1 .2-.7c.2-.5.5-1 .7-1.4l-1.2-.2v.2c0-.1-.1.1-.1.1v.2c-.1.2-.1.5-.2.8s-.1 1.2-.2 1.8a.6.6 0 0 0 .6.6.5.5 0 0 0 .7-.5 34.2 34.2 0 0 0 .4-4.5.6.6 0 0 0-.6-.6.7.7 0 0 0-.7.6z"/><path d="M11.7 33.6v4a.7.7 0 0 0 .7.6.6.6 0 0 0 .6-.6v-4a.7.7 0 0 0-.7-.6.6.6 0 0 0-.6.6z"/><path d="M12.2 37.1a.7.7 0 1 0 0-1.3.7.7 0 0 0 0 1.3z"/><path d="M12.3 36.7a.7.7 0 0 0 0-1.3.7.7 0 1 0 0 1.3zm-.5-2.1a.7.7 0 1 0 0-1.3.7.7 0 0 0 0 1.3z"/><path d="M11.7 34a.7.7 0 0 0 0-1.3.7.7 0 1 0 0 1.3z"/><path d="M12.4 33.9a.7.7 0 1 0 0-1.3.7.7 0 0 0 0 1.3z"/><path d="M12.1 33.9a.7.7 0 0 0 0-1.3.7.7 0 1 0 0 1.3z"/><path d="M12.9 33.9a.7.7 0 1 0 0-1.3.7.7 0 0 0 0 1.3z"/><path d="M13.4 33.9a.7.7 0 1 0 0-1.3.7.7 0 0 0 0 1.3z"/><path d="M13.4 34.5a.7.7 0 0 0 0-1.3.7.7 0 1 0 0 1.3z"/><path d="M13.3 35.3a.7.7 0 1 0 0-1.3.7.7 0 0 0 0 1.3zM11.7 33c.2 0 .2-.2 0-.2s-.2.2 0 .2z"/><path d="M13.9 34.4c.1 0 .1-.3 0-.3a.1.1 0 1 0 0 .3zm-6.8 1a27 27 0 0 1 4.7-1.2.4.4 0 0 0 0-.8 29.2 29.2 0 0 0-4.9 1.2c-.5.1-.2.9.2.8z"/><path d="M6.4 35.2a12 12 0 0 1 6.4-1.9c.5-.1.5-.8 0-.8a12.6 12.6 0 0 0-6.8 2 .4.4 0 0 0 .4.7z"/><path d="M7.3 35.1a5.6 5.6 0 0 0 2.2-.3l2.1-.6c.5-.1.3-.9-.2-.8l-2.1.6a6.5 6.5 0 0 1-2 .4c-.5-.1-.5.7 0 .7z"/><path d="M7.7 34.8a24.2 24.2 0 0 1 3.6-1 .4.4 0 0 0 .4-.4c0-.1-.2-.4-.4-.3a17.5 17.5 0 0 0-3.8.9c-.5.2-.3 1 .2.8z"/><path d="M4.8 35.7a9.2 9.2 0 0 1 5.6-1.9c.5-.1.5-.8 0-.8a10.2 10.2 0 0 0-6.2 2.2c-.4.3.2.8.6.5z"/><path d="M6.6 34.5l1.5-.5a11.3 11.3 0 0 1 1.8-.3.4.4 0 0 0 .4-.4.4.4 0 0 0-.4-.4l-2 .3a6.1 6.1 0 0 0-1.7.7c-.5.2-.1.9.4.6z"/><path d="M8.9 33.8h1.7a.4.4 0 1 0 0-.8H9.3c.1 0 .1-.1 0 0h-.4c-.2-.1-.4.2-.4.4s.2.3.4.4zm-3.4 2.9a15.1 15.1 0 0 0 1.8-.9l1.9-.6a8.6 8.6 0 0 1 3.9-.4c.5.1.7-.7.2-.8a9.7 9.7 0 0 0-4.1.4l-1.9.6-2 1c-.5.1-.3.9.2.7z"/><path d="M7 36.4a8.7 8.7 0 0 1 5-1.3.4.4 0 0 0 0-.8 10.1 10.1 0 0 0-5.4 1.4c-.5.2-.1.9.4.7z"/><path d="M8.8 35.6a.4.4 0 0 0 0-.8.4.4 0 0 0 0 .8z"/><path d="M8.6 35.7a.4.4 0 0 0 0-.8.4.4 0 1 0 0 .8z"/><path d="M8.4 35.7a.4.4 0 0 0 0-.8.4.4 0 0 0 0 .8zm.9-.2a.4.4 0 0 0 0-.8.4.4 0 1 0 0 .8z"/><path d="M9.8 35.4a.4.4 0 0 0 0-.8.4.4 0 0 0 0 .8z"/><path d="M10.2 35.3a.4.4 0 0 0 0-.8.4.4 0 0 0 0 .8z"/><path d="M10.6 35.2a.4.4 0 0 0 0-.8.4.4 0 0 0 0 .8zm-8 4.3a12.2 12.2 0 0 1 4.7-4.6c.4-.3 0-1-.4-.7a13.8 13.8 0 0 0-5 4.9c-.3.4.4.8.7.4z"/><path d="M2.5 40.2A8.1 8.1 0 0 1 5 37.5a12.1 12.1 0 0 1 3-2 .4.4 0 0 0-.4-.7 17.7 17.7 0 0 0-3.2 2.1 10.2 10.2 0 0 0-2.6 2.9.4.4 0 0 0 .7.4z"/><path d="M1.5 40.8a5.5 5.5 0 0 1 .8-1.5l1.1-1.2A17.8 17.8 0 0 1 6.1 36a.5.5 0 0 0 .1-.6.4.4 0 0 0-.5-.1 20.9 20.9 0 0 0-2.9 2.3l-1.2 1.3a5.3 5.3 0 0 0-.8 1.7c-.1.5.6.7.7.2z"/><path d="M1.7 40.6a3.7 3.7 0 0 1 .9-1.9 16.7 16.7 0 0 1 1.2-1.6 5 5 0 0 1 3.6-1.6.4.4 0 0 0 0-.8 5.5 5.5 0 0 0-4.1 1.9 13 13 0 0 0-1.5 1.8 4.7 4.7 0 0 0-.9 2.2c.1.5.9.5.8 0z"/><path d="M1.8 40c.1-.1 0 .1.1 0s.1-.2.1-.4l.5-.7-.8-.2c0 .1-.1.1-.1.2l-.4.3a.6.6 0 0 0 0 .6c.2.1.4.2.6 0l.4-.4c.1-.1.1-.2.2-.2a.8.8 0 0 0 .1-.4c0-.2-.1-.4-.3-.4s-.3 0-.4.2l-.5.8a3.2 3.2 0 0 0-.3.6.4.4 0 0 0 .4.4.4.4 0 0 0 .4-.4z"/><path d="M1.9 38.9a.4.4 0 0 0 0-.8.4.4 0 0 0 0 .8z"/><path d="M2.2 38.4a.4.4 0 0 0 0-.8.4.4 0 0 0 0 .8z"/><path d="M2.5 37.9c.6 0 .6-.7 0-.7a.4.4 0 1 0 0 .7z"/><path d="M2.4 38a.4.4 0 0 0 0-.8.4.4 0 0 0 0 .8z"/><path d="M2.1 38.5a.4.4 0 0 0 0-.8.4.4 0 1 0 0 .8zm.7-1.1a.4.4 0 1 0 0-.7.4.4 0 1 0 0 .7z"/><path d="M2.7 37.5a.4.4 0 0 0 0-.8.4.4 0 0 0 0 .8z"/><path d="M3.2 37a.4.4 0 0 0 0-.8.4.4 0 0 0 0 .8z"/><path d="M3.4 36.6c.6 0 .6-.7 0-.7a.4.4 0 1 0 0 .7z"/><path d="M3.8 36.5a.4.4 0 0 0 0-.8.4.4 0 0 0 0 .8z"/><path d="M4 36.1a.4.4 0 0 0 0-.8.4.4 0 0 0 0 .8z"/><path d="M4.4 35.9a.4.4 0 0 0 0-.8.4.4 0 0 0 0 .8zm1.9.9a.4.4 0 0 0 0-.8.4.4 0 1 0 0 .8z"/><path d="M6.6 36.6a.4.4 0 0 0 0-.8.4.4 0 0 0 0 .8z"/><path d="M6.8 36.4a.4.4 0 0 0 0-.8.4.4 0 0 0 0 .8z"/><path d="M7.1 36.3a.4.4 0 1 0 0-.8.4.4 0 0 0 0 .8zm-4.7 5a6.3 6.3 0 0 1 2.6-4l-.5-.6a16.1 16.1 0 0 0-2.4 2.8c-.6 1-.9 2.2-1.6 3.3l.7.2a5.6 5.6 0 0 1 1-2.8c.3-.4-.4-.8-.7-.4A6.8 6.8 0 0 0 .4 43c0 .4.6.5.8.2s1-2.2 1.6-3.2A15.1 15.1 0 0 1 5 37.2c.3-.3-.1-.8-.4-.6a7.7 7.7 0 0 0-3 4.5c-.1.5.7.7.8.2z"/><path d="M1 43v-.6c0-.2 0-.3.1-.4v-.2a4.2 4.2 0 0 1 .4-1.2c.1-.1 0-.4-.2-.5a.4.4 0 0 0-.5.1A5.7 5.7 0 0 0 .2 43a.4.4 0 0 0 .4.4.4.4 0 0 0 .4-.4zm1.3-1.5l.6-1.5.8-1.3a9.4 9.4 0 0 1 1.2-.9 5.1 5.1 0 0 1 1.3-.9l-.4-.7A9.1 9.1 0 0 0 3.7 38a5.4 5.4 0 0 0-1.6 2.4c0 .4.4.7.7.4a23.1 23.1 0 0 0 1.4-1.9 8.5 8.5 0 0 1 1.7-1.6.4.4 0 0 0 .1-.6.4.4 0 0 0-.5-.1 7.3 7.3 0 0 0-1.8 1.7l-.7.9-.8 1 .7.4a4.9 4.9 0 0 1 1.4-2.1 9.5 9.5 0 0 1 1.9-1.6c.5-.3.1-.9-.4-.7l-1.4.9-1.3 1.1a6.7 6.7 0 0 0-.9 1.4c-.2.6-.5 1.1-.7 1.7a.4.4 0 0 0 .8.2z"/><path d="M6.3 36.1h-.1a.1.1 0 0 0-.1.1H6v.2a.1.1 0 0 0 .1.1h.7v-.2c.1 0 .1-.1 0-.1V36h-.1a.1.1 0 0 1-.1-.1h-.1c-.1 0-.2 0-.2.1zm-3.2 1.2a.4.4 0 0 0 0-.8.4.4 0 0 0 0 .8z"/><path d="M2.8 36.6v.2h-.2c0 .1.1.1.1.2a.1.1 0 0 0 .1.1h.6V37a.1.1 0 0 0 .1-.1c0-.1 0-.1-.1-.2h-.6zm-1.5 8c.4-.1.4-.7.4-1l.3-1.1a14.7 14.7 0 0 1 1-2.2l-.7-.4a12.5 12.5 0 0 0-.9 2.5 5.9 5.9 0 0 0-.2 1.3 1.7 1.7 0 0 0 0 1.2c.2.3.6.3.7-.1l.7-2.7a3.7 3.7 0 0 1 .9-2l-.6-.5a12.4 12.4 0 0 0-1 2 3.7 3.7 0 0 0-.3 2.1c.1.4.7.4.7 0l.8-2.6c.2-.4-.5-.7-.7-.2a25.8 25.8 0 0 0-.8 2.6h.7c0-.3.1-.6.1-.9l.3-.9a8.9 8.9 0 0 1 .8-1.7c.3-.4-.3-.8-.6-.5a4.4 4.4 0 0 0-1 2.2c-.2 1-.5 1.9-.7 2.9h.7c-.1-.1 0-.3 0-.4a.7.7 0 0 1 .1-.5 3.6 3.6 0 0 1 .2-1.1 8.3 8.3 0 0 1 .8-2.3c.2-.4-.5-.8-.7-.4a20 20 0 0 0-1 2.1L1 43a3.6 3.6 0 0 1-.2 1.1v-.2c-.2.1-.2.4-.1.6s.3.2.5.1z"/><path d="M1 46.2a8 8 0 0 1 .2-3.1H.4a8.6 8.6 0 0 1 .1 1.6v1.1h.2c0-.2.1-.3.1-.5v-.8a2.2 2.2 0 0 0 .1-.8c.1-.2.1-.4.2-.6L.4 43c.1.7.1 1.4.2 2.1a4.3 4.3 0 0 1 .2 1.1 1.4 1.4 0 0 0 .5.8.4.4 0 0 0 .6-.3 20.9 20.9 0 0 0 0-2.5c0-.5-.7-.6-.8-.2a6.1 6.1 0 0 0 .4 2.7c0 .2.2.3.4.3s.4-.2.3-.4a6.2 6.2 0 0 1 .1-2.7h-.8a12.2 12.2 0 0 0 0 2.7.4.4 0 0 0 .4.4c.2 0 .4-.2.3-.4a24.4 24.4 0 0 1 .1-2.7c0-.4-.7-.5-.8-.1a7.1 7.1 0 0 0-.1 2.9h.8a5.6 5.6 0 0 1-.3-2.2h-.8a17.6 17.6 0 0 1 0 2.3l.6-.2v-.2c0-.2 0-.3-.1-.4s-.1-.6-.1-.9-.1-1.2-.2-1.8a.4.4 0 0 0-.7-.2 1.6 1.6 0 0 0-.3.9c-.1.4-.1.7-.2 1.1a3.7 3.7 0 0 1-.1 1.1c0 .4.2.7.6.7a.8.8 0 0 0 .8-.5 3.4 3.4 0 0 0 0-1 7.9 7.9 0 0 0-.1-2.2.4.4 0 0 0-.8 0 10.2 10.2 0 0 0-.2 3.5.5.5 0 0 0 .5.3c.3-.1.3-.3.3-.5z"/><path d="M.1 46.5c0 1.5-.1 3.1.8 4.4s.8.3.8-.2l-.3-2.3a7.4 7.4 0 0 1 0-2.1H.6c.2.9.3 1.8.5 2.7a5.5 5.5 0 0 0 1 2.2.4.4 0 0 0 .7-.3l-.6-2.2a3.6 3.6 0 0 1-.2-1.1 4.3 4.3 0 0 1-.1-.5v-.3l-.7-.2c.4 1.7.5 3.5 1.6 4.9a.4.4 0 0 0 .7-.3A5.4 5.4 0 0 0 3 50a3 3 0 0 1-.4-1 4.6 4.6 0 0 1-.3-2.3.4.4 0 0 0-.8 0 5 5 0 0 0 .3 2.4c.1.4.3.8.4 1.2a1.9 1.9 0 0 1 .5 1l.7-.3c-1-1.3-1-3.1-1.4-4.7a.4.4 0 0 0-.6-.2c-.4.3-.3.8-.2 1.2a6.9 6.9 0 0 0 .2 1.3 22.7 22.7 0 0 1 .6 2.5l.7-.3a4.9 4.9 0 0 1-.8-2.1c-.2-.9-.3-1.7-.5-2.6s-.6-.3-.8 0a8.1 8.1 0 0 0 0 2.2l.3 2.4.7-.2c-.8-1.1-.7-2.7-.7-4a.4.4 0 0 0-.8 0z"/><path d="M2.2 49.6a.4.4 0 0 0 0-.8.4.4 0 0 0 0 .8zM11.7 38v2.6h.8a8.1 8.1 0 0 1 0-3.1h-.8c-.1 1-.2 2-.2 3s.7.6.8.1l.5-2.3H12c.1 1.1.1 2.1.2 3.2s.2.4.4.4.4-.1.4-.3a16.6 16.6 0 0 0 .3-3.2h-.8l.2 2.7c0 .4.7.6.8.1s-.1-3.4.3-5H13l-.3 4.4a.4.4 0 0 0 .4.4c.2 0 .3-.2.4-.4l.3-4.4c0-.4-.7-.5-.8-.1s-.1 3.3-.4 5h.8l-.2-2.7c0-.5-.7-.5-.8 0s-.1 2-.2 3h.7c-.1-1.1-.1-2.1-.2-3.2s-.7-.5-.8-.1l-.5 2.3h.8c0-1 .1-2 .2-3a.4.4 0 0 0-.4-.4.4.4 0 0 0-.4.4 8.1 8.1 0 0 0 0 3.1c0 .5.7.5.8 0V38c.1-.5-.7-.5-.8 0z"/><path d="M11.7 40.3l-.2 3.9h.8a15.3 15.3 0 0 1-.1-3.7h-.8a9.7 9.7 0 0 1 .3 2.3 9.7 9.7 0 0 0 .1 2.4c.1.3.7.4.7 0a39.3 39.3 0 0 0 .6-4.8h-.8a33.9 33.9 0 0 0 .2 4.5.8.8 0 0 0 .4.4c.1 0 .4-.1.4-.3a22.6 22.6 0 0 0 .1-4.5.4.4 0 0 0-.8 0 15.5 15.5 0 0 1-.1 4.3h.8a33.9 33.9 0 0 1-.2-4.5.4.4 0 0 0-.8 0c-.1 1.5-.3 3-.5 4.5h.7a8.1 8.1 0 0 1 0-2.2 9.9 9.9 0 0 0-.3-2.4c-.1-.5-.8-.3-.8.1a17 17 0 0 0 .1 3.9c.1.4.8.3.8-.1l.2-3.9a.4.4 0 0 0-.8 0z"/><path d="M11.5 47.6v.5h.8v-2.6a10.1 10.1 0 0 0-.2-2.5c-.1-.5-.7-.4-.7.1v3.6h.7a10.5 10.5 0 0 1 0-2.5h-.7a16.2 16.2 0 0 1 .1 2.2v2.3c.1.4.7.6.8.1a31.3 31.3 0 0 0 .4-4.4h-.8a40.7 40.7 0 0 0 .5 4.9.4.4 0 0 0 .7-.1 26.9 26.9 0 0 0 .1-4.9c0-.5-.7-.5-.8 0a38.1 38.1 0 0 0 .4 5.9c.1.5.8.3.8-.2a36.4 36.4 0 0 1-.4-5.7h-.8a40 40 0 0 1 0 4.9h.7a37.3 37.3 0 0 1-.4-4.7.4.4 0 0 0-.8 0 29.8 29.8 0 0 1-.4 4.2h.8v-2.5a9.7 9.7 0 0 0-.2-2.4c0-.3-.7-.3-.7 0a8.1 8.1 0 0 0 0 3.1c0 .4.8.3.7-.2v-3.6h-.8a9.5 9.5 0 0 1 .1 2.4V48a.4.4 0 0 0 .8 0v-.5c.1-.5-.7-.5-.7 0z"/><path d="M13.3 53.6c-.4-1.8-.7-3.5-1-5.3s-.8-.3-.7.1a17.7 17.7 0 0 0 1.1 6 .3.3 0 0 0 .4.2c.2 0 .4-.1.3-.3a49.3 49.3 0 0 1-.5-5.4h-.7a29.9 29.9 0 0 0 1.2 5.8c.2.4.9.3.8-.2l-.9-5c0-.5-.8-.4-.7.1a20.7 20.7 0 0 0 1.2 4.9c.2.4.9.2.8-.2s-.7-3.2-1-4.8-.7-.3-.7.1v.4a.4.4 0 0 0 .8 0v-.4H13a40.5 40.5 0 0 0 .9 4.8l.8-.2a20.3 20.3 0 0 1-1.2-4.7h-.8l.8 5 .8-.2a26.8 26.8 0 0 1-1.3-5.6c0-.5-.7-.6-.7 0a24.7 24.7 0 0 0 .5 5.4h.7a19.1 19.1 0 0 1-1-5.8h-.8l.9 5.3c.1.5.9.3.8-.2z"/><path d="M12.7 54.2a4.5 4.5 0 0 0 1.1 1.9.4.4 0 0 0 .6 0 .5.5 0 0 0 0-.5l-.6-.8a4.1 4.1 0 0 1-.5-.9l-.7.4c.5 1 .9 2.1 2 2.6a.3.3 0 0 0 .4 0c.1-.1.2-.3.1-.4l-.9-2.4-.7.3.6 1.3a4.1 4.1 0 0 0 .7 1.1c.1.2.3.3.4.2s.4-.3.3-.5l-1-2.4c-.1-.2-.3-.4-.5-.3a.4.4 0 0 0-.3.5l1 2.4.7-.3-.6-1.1-.6-1.3c-.2-.4-.9-.1-.7.3l.9 2.4.6-.5h-.3c-.1-.1 0 0-.1 0h-.2l-.4-.6c-.2-.4-.5-.9-.7-1.4a.3.3 0 0 0-.5-.1.4.4 0 0 0-.2.5 5.7 5.7 0 0 0 1.2 1.8l.6-.5a7 7 0 0 1-1-1.6.3.3 0 0 0-.5-.3c-.1.1-.3.3-.2.5zm-.1 4.6a2 2 0 0 0 .1-.7v-.3c.1-.1.1-.1.1-.2v-.2h-.3c.1.1.2.1.2.2h.1c0 .1-.1 0 0 0s0 .1.1.2a.4.4 0 0 0 .5.1.3.3 0 0 0 .2-.4 2 2 0 0 0-.4-.8l-.6.4a.1.1 0 0 0 .1.1v.2l.2.4.3.4.2.2c.1 0 .1 0 0-.1v-.2h-.9a.2.2 0 0 1 .2.2h.3v-.2c0-.2.1-.3.1-.5h-.6c.1.1.1.1.1.2s.1.2.2.2a1 1 0 0 0 .8.5l-.2-.7a.3.3 0 0 0-.5.3c-.1.2.1.4.3.4a2 2 0 0 0 1.1.2c.2 0 .4-.1.3-.4s-.1-.3-.3-.4h-.9l-.2.7a.5.5 0 0 0 .6-.1.5.5 0 0 0 .2-.4c-.1-.2-.2-.3-.4-.3h-.2a1 1 0 0 0-.4-.5.3.3 0 0 0-.6.2c-.1.1-.1.3-.2.5s-.1.4 0 .6.3.4.5.4h1.4a.6.6 0 0 0 .2-.5.9.9 0 0 0-.3-.5h-.1a.1.1 0 0 1-.1-.1 3.5 3.5 0 0 0-.6-.9.5.5 0 0 0-.6-.1 1.1 1.1 0 0 0-.1.5c.1.2.2.3.2.4a.1.1 0 0 0 .1.1l.7-.3a1.5 1.5 0 0 0-.5-.6c-.1-.2-.3-.2-.5-.2a.8.8 0 0 0-.4.4 2.2 2.2 0 0 0-.1.8.3.3 0 0 0-.1.2.9.9 0 0 1-.1.5c0 .2.1.4.3.4s.5 0 .5-.2z"/><path d="M14.1 58.4l.4.3h.1c.1-.1.1-.1 0-.2l-.3-.3a.1.1 0 0 0-.2 0v.2l.8.5v-.2H14c0 .1.1.1.1.2h.9a.1.1 0 0 0 .1-.1H15a.5.5 0 0 0-.4-.2l-.3-.3-.2.2.4.3v-.2l-.3-.2H14z"/><path d="M14.7 58.7h-.9l.9.2h.1c0-.1 0-.2-.1-.2zm-8.4-4.5a10.6 10.6 0 0 1-2-1.7.9.9 0 0 0-1.3 1.3l.9 1.1a.9.9 0 0 0 1.5-1.1 5.3 5.3 0 0 0-1-1.2 1 1 0 0 0-1.3 0 1.1 1.1 0 0 0 0 1.3l1.1 1.5c.6 1 2.2 0 1.6-1l-1.4-1.8-1.3 1.3.7.8 1.5-1.1-1-1.1L3 53.8a11.6 11.6 0 0 0 2.4 2 .9.9 0 0 0 .9-1.6z"/><path d="M5.7 56.5c2.9 1.3 5.6 2.7 8.8 2.4 1.2-.2 1.2-2 0-1.9-2.9.3-5.3-.9-7.8-2.1s-2 1.1-1 1.6z"/><path d="M5.7 54.6h-.1l-1.3 1.2 1.4.9c.9.5 1.9-.7 1.1-1.4l-1.1-.8c-1.1-.5-2 1-.9 1.6a6.3 6.3 0 0 0 2 1c.9.1 1.7-1.2.7-1.7l-1.3-.7a.9.9 0 0 0-1.1 1.4A9 9 0 0 0 9 57.7a.9.9 0 0 0 .7-1.6 2.4 2.4 0 0 0-1.6-.5c-1.1.1-1.1 2 0 1.9s.4 0 .7.1l.7-1.6-1.6-.5a4.1 4.1 0 0 1-1.5-.7l-1.1 1.5 1.3.7.7-1.7a4.8 4.8 0 0 1-1.6-.8l-.9 1.6.7.5 1.1-1.5-1-.6c-.9-.8-2.2.4-1.3 1.3h.1a.9.9 0 1 0 1.3-1.3zm8.1 2.8l-.2-.4-.3-.2h-.9l-.3.3v.3a.3.3 0 0 0 0 .4v.2c0 .1.1.2.2.3l.2.2h.4c.1.1.2.1.4 0h.2l.3-.3v-.7z"/><path d="M12.9 58.4a.9.9 0 1 0 0-1.8.9.9 0 0 0 0 1.8z"/><path d="M12.7 57.7a.4.4 0 0 0 .1.3c0 .1.1.2.2.3l.3.2h.6l.4-.2v-.2a.8.8 0 0 0 .2-.4c0-.1-.1-.2-.1-.3l-.2-.3-.3-.2h-.6l-.4.3-.2.2a.6.6 0 0 0-.1.4zm-2.2-.2v-.4a19903286476637.9 19903286476637.9 0 0 0-.2-.2l-.2-.2h-1l-.2.2h-.2v.4s0 .3.1.3v.4l.2.2h.2c0 .1.2.1.2.1h.6l.3-.2c.1-.1.2-.2.2-.3a.4.4 0 0 0 .1-.3v-.3l-.3-.4H10l-.4-.2h.6v1.6H8.9v-.7.4l.2.3.3.2h.6a.5.5 0 0 0 .4-.2l.2-.2a.7.7 0 0 0 .1-.5z"/><path d="M9.8 56.4h-.2a.1.1 0 0 0-.1.1c-.1 0-.2 0-.2.1h-.2l-.2.2v.5a.6.6 0 0 0 .1.4c0 .1.1.2.1.3l.3.2h.6l.4-.2.2-.2a.9.9 0 0 0 .1-.5v.7l-.2.2h-.1l.3-.2.2-.3c.1-.1.1-.2.1-.4v-.2a.5.5 0 0 0-.2-.4h-.2l-.4-.2z"/><path d="M10.1 58.4a1 1 0 0 0 0-1.9 1 1 0 0 0 0 1.9z"/><path d="M9.2 56.4h-.4l-.3.2-.2.3c0 .1-.1.3-.1.4v.2a.5.5 0 0 0 .2.4l.2.2h.9l.3-.2c.1 0 .1-.1.2-.3V57a.8.8 0 0 0-.2-.4h-.6z"/><ellipse cx="37.1" cy="32.7" rx="25.3" ry="7.8"/></g><ellipse cx="36.9" cy="33.3" fill="#dfb78c" rx="21.6" ry="6"/><path fill="#2f1912" d="M.8 51.1l1 1.6 1.4-1.1a3.6 3.6 0 0 1-.7-1 .9.9 0 0 0-1.6 1c.5.9 1.1 1.8 1.7 2.7L4 53.2 3.1 52a1 1 0 0 0-1.3-.3.8.8 0 0 0-.3 1.2l1.2 1.6c.7.7 2.1-.3 1.5-1.1a26.1 26.1 0 0 1-1.7-2.8l-1.6 1a11.3 11.3 0 0 0 1 1.3c.7.8 2-.2 1.5-1.1l-1-1.6c-.6-1-2.2-.1-1.6.9z"/><path fill="#2f1912" d="M1.9 52.6H2a.3.3 0 0 1 .1.2.1.1 0 0 1 .1.1c-.1-.2-.1-.2-.1-.1a.3.3 0 0 1 .1.2 1 1 0 0 0 1.1.7 1 1 0 0 0 .7-1.1 2.6 2.6 0 0 0-.8-1.3 1 1 0 0 0-1.3 0 1 1 0 0 0 0 1.3z"/><path fill="#2f1912" d="M3.4 55.1h.1l.9-1.6-.3-.2a.9.9 0 0 0-1.3 1.3 10.7 10.7 0 0 0 6.6 3.7c1.1.1 1.6-1.7.5-1.8a8.7 8.7 0 0 1-5.8-3.2l-1.3 1.4a1.5 1.5 0 0 0 .7.5.9.9 0 1 0 .9-1.6h-.1c-1-.6-1.9 1-.9 1.6z"/><path fill="#2f1912" d="M2.1 52.6a13.8 13.8 0 0 0 4.1 3.9c.7.5 1.8-.5 1.2-1.2s-.3-.4-.5-.6l-1.1 1.4 2.7 1.3c1.1.4 1.6-1.4.5-1.8a12 12 0 0 1-2.3-1.1c-.8-.5-1.9.8-1.1 1.5l.2.2 1.3-1.3a10.7 10.7 0 0 1-3.4-3.3c-.6-.9-2.2 0-1.6 1zm12.3 4.1h-.6c-.3-.1-.1.1.5.3l-.5 1.3c-.2.1.1.1 0 0v-1.6h-.6l-.2 1.7c-.1.1-.2 0-.2-.1a.9.9 0 0 0 1.3-1.3 2.5 2.5 0 0 0-1.1-.4.9.9 0 0 0-.9.8.8.8 0 0 0 .6 1 1.9 1.9 0 0 0 1.5 0 .9.9 0 0 0 0-1.7 1.4 1.4 0 0 0-.9 0 .9.9 0 0 0-.6 1.3c.4.7 1 .6 1.7.5a1 1 0 0 0 .9-.9c0-.4-.4-1-.9-.9z"/><path fill="#2f1912" d="M9.3 58.1l1.1.5.5-1.8H10a.9.9 0 1 0-.4 1.7l.9.2c1.1.1 1.1-1.8 0-1.9h-.8c-1-.1-1.2 1.5-.2 1.8a8.7 8.7 0 0 0 3.2.2c1.1-.2.8-1.8-.2-1.8h-1.3c-1 0-1.3 1.6-.2 1.8h1c1.2.2 1.7-1.5.5-1.7a4.7 4.7 0 0 1-1.5-.6l-.6-.4c-.3-.1-.6 0-.8-.2l-.7 1.7 3.3.9a.9.9 0 0 0 .7-1.7 2.5 2.5 0 0 0-1.7-.4l-2-.6a.9.9 0 0 0-1.1.6 1 1 0 0 0 .6 1.2l1.8.5c.4.1 1.1 0 1.5.3l.7-1.7a20.2 20.2 0 0 1-3.3-.9.9.9 0 0 0-.7 1.7l.8.3.7.4a6.4 6.4 0 0 0 1.8.6l.5-1.7-1.1-.2-.2 1.8h1.3l-.3-1.8a5.5 5.5 0 0 1-2.2-.2l-.3 1.8h.8v-1.8H10l-.4 1.7.8.2a.9.9 0 0 0 .5-1.8l-.6-.3c-1-.6-2 1-1 1.6zm-6.5-7.2h-.4a.2.2 0 0 0-.2.2c-.1.1-.2.2-.2.3a.4.4 0 0 0-.1.3v.3c.1.1.1.3.3.4h.1l.5.2h.4l.3-.2.2-.3c0-.1.1-.2.1-.4v-.2a.5.5 0 0 0-.2-.4l-.3-.1z"/><path fill="#2f1912" d="M12.4 56.4H12l-.3.2c-.1.1-.2.2-.2.3a.4.4 0 0 0-.1.3v.3a.8.8 0 0 0 .2.4h1.1l.3-.2.2-.3v-.6a.5.5 0 0 0-.2-.4l-.2-.2z"/><path fill="#2f1912" d="M11.1 58.1a1 1 0 0 0 0-1.9 1 1 0 0 0 0 1.9z"/><path fill="#2f1912" d="M12.8 58c0-.2-.1-.3-.1-.4l-.2-.3-.3-.2h-.6l-.4.2-.2.2a4.3 4.3 0 0 0-.1.5.8.8 0 0 0 .1.4.2.2 0 0 0 .2.2l.3.2h.6c.1-.1.3-.1.4-.3h.1c.1-.2.2-.3.2-.5zm2.2-1.2h-.4l-.3.2-.2.3c0 .1-.1.2-.1.4v.2a.5.5 0 0 0 .2.4l.2.2h.9l.3-.2.2-.3c0-.1.1-.2 0-.3v-.3a.8.8 0 0 0-.2-.4H15z"/><path fill="#2f1912" d="M14.4 56.7h-.1c0 .1-.1.2-.1.3a.4.4 0 0 0-.1.3.6.6 0 0 0 .1.4c0 .1.1.2.1.3h.9a.5.5 0 0 0 .4-.2h.1c.1 0 .1-.1.2-.3s.1-.2 0-.3 0-.3 0-.4l-.2-.3h-.9a.5.5 0 0 0-.4.2z"/><path fill="#2f1912" d="M14.3 57.4l-.2.3a.4.4 0 0 0-.1.3.6.6 0 0 0 .1.4c0 .1.1.2.2.3h.9l.4-.2c.1 0 .2-.1.2-.3a.4.4 0 0 0 .1-.3.6.6 0 0 0-.1-.4c0-.1-.1-.2-.2-.3h-.9z"/><path fill="#2f1912" d="M15.3 59h.4l.3-.2c.1-.1.2-.2.2-.3s.1-.2.1-.3v-.3a.8.8 0 0 0-.2-.4h-.2l-.5-.2H15c-.2.1-.3.1-.3.2s-.2.2-.2.3-.1.2-.1.4v.2c.1.2.1.3.3.4v.2zm-1.6-23.4v.9h.2v-.8a.3.3 0 0 0-.1-.2.2.2 0 0 0-.2.2v.8c0 .1 0 .2.1.2s.1-.1.1-.2a1.4 1.4 0 0 0 0-.9c0-.1 0-.1-.1-.1s-.1 0-.1.1z"/><path fill="#2f1912" d="M13.6 39.8v-2h-.3a13.7 13.7 0 0 0 .2 1.9c0 .1.2.2.2 0a1.3 1.3 0 0 0 .1-.6v-2.4c0-.2-.2-.2-.2 0a5.7 5.7 0 0 0 .1 1.3c0 .2.2.1.2 0a12.1 12.1 0 0 0 0-1.9c-.1-.1-.3-.1-.3 0v.2c0 .1.3.1.3 0v-.2h-.3a10.9 10.9 0 0 1 .1 1.8h.2c0-.5-.1-.9-.1-1.3h-.2V39c0 .2.1.4 0 .6h.2a12.8 12.8 0 0 1-.1-1.9.2.2 0 0 0-.3 0 14.1 14.1 0 0 0 .1 2c0 .1.3.1.2 0z"/><path fill="#2f1912" d="M13.6 42.4v-.9h-.3a2 2 0 0 1 .1.7c0 .2.3.1.3 0v-1.4h-.3a7.7 7.7 0 0 1 .2 1.5c0 .1.2.1.2 0a22.6 22.6 0 0 0 0-2.6c-.1-.1-.3-.2-.3 0a4.7 4.7 0 0 0-.1 1.7c0 .1.2.1.3 0v-1.3a.1.1 0 1 0-.3 0V44c0 .2.2.2.3 0v-2.1h-.3l.2 2.3h.2v-.8c0-.1-.1-.2-.2-.1h-.1c-.2.1 0 .4.1.3h-.1v.8h.2v-2.5c0-.2-.2-.2-.3 0V44h.3a25.4 25.4 0 0 1 0-3.9h-.3a5.6 5.6 0 0 1 0 1.3h.3a4.3 4.3 0 0 1 0-1.6h-.2a22.6 22.6 0 0 1 .1 2.6h.2a8.1 8.1 0 0 0-.1-1.6c-.1-.1-.3-.1-.3.1v1.4h.3a1.3 1.3 0 0 1-.1-.6c0-.1-.3-.1-.3 0v.9c0 .2.3.2.2 0z"/><path fill="#2f1912" d="M13.6 45.3c-.1-.1-.3-.1-.3.1l.2.7c0 .1 0 .1.1.1s.1-.1.1-.2l-.2-1.1h-.2l.2 1c0 .2.3.1.2 0v-1.2h-.2l.3 1c0 .2.3.1.3 0l-.2-1.1h-.2v.6h.1c.1 0 .1-.1.1-.2v-1c0-.1-.3-.1-.3 0v.7h.3l-.2-.8c0-.2-.2-.1-.2 0v.7h.3v-.4c0-.2-.3-.1-.2 0v.9c.1.2.3.1.3-.1l-.2-.8h-.2v.4c.1.2.3.1.3 0V44h-.2v.7c.1.2.3.2.3 0V44h-.3l.2 1h.2v-.6c0-.1-.2-.1-.2.1v1.1h.2l-.3-1c0-.1-.2-.1-.2.1v1.2h.2l-.2-1h-.1c-.1.1-.1.1-.1.2l.2 1.1h.2v-.7h-.3c.1.2.3.1.3-.1z"/><path fill="#2f1912" d="M13.4 46.4a.4.4 0 0 1-.1-.3h-.2a7.5 7.5 0 0 0 .4 1.6h.2l-.2-1.9a.1.1 0 0 0-.3 0l.3 1.6c.1.1.3.1.3-.1s-.1-1-.1-1.5h-.3l.2 1.2c0 .1.2.1.2 0v-1.1h-.3a5.1 5.1 0 0 0 .2 1.3c.1.2.3.2.3 0l-.2-1.7a.2.2 0 1 0-.3 0l.2 1.7h.3a5.1 5.1 0 0 1-.2-1.3c0-.1-.3-.1-.3 0V47h.2v-1.2a.1.1 0 1 0-.3 0 7.6 7.6 0 0 1 .1 1.5h.3l-.3-1.5h-.3l.3 1.9h.2c-.1-.5-.3-1-.4-1.5s-.2-.1-.2 0a.9.9 0 0 0 .1.5c0 .1.3 0 .2-.2z"/><path fill="#2f1912" d="M13.7 48.8l-.2-.9c0-.2-.2-.1-.2 0l.3 1.9h.2a15 15 0 0 1-.2-2.2c0-.1-.3-.1-.3 0a6.4 6.4 0 0 0 .3 2c0 .2.3.1.3 0l-.2-2.1c0-.1-.3-.2-.3 0l.3 1.9c0 .1.3.1.2-.1l-.2-2.3h-.2a25.1 25.1 0 0 0 .4 2.7c0 .2.3.1.2 0l-.4-4.5a.2.2 0 0 0-.3 0l.5 4.5h.2c-.1-.9-.3-1.8-.4-2.7s-.3-.1-.2 0l.2 2.3h.2a11 11 0 0 1-.2-1.8h-.3l.2 2.1h.3a6.9 6.9 0 0 1-.3-2h-.3l.3 2.3c0 .2.3.1.2-.1l-.3-1.8h-.2l.2.9c0 .2.2.1.2 0z"/><path fill="#2f1912" d="M13.7 45.4l.3 2.4c0 .2.2.2.2 0a9.9 9.9 0 0 0-.3-2.4c0-.2-.2-.1-.2 0zm.1 4.2h-.1c0-.2-.3-.1-.2.1l.3 1.6h.2a3.4 3.4 0 0 1-.1-1.4h-.3l.3 1.3c0 .2.3.1.3 0v-1.7h-.3l.2 1.1c0 .2.3.1.3 0v-1H14c.1.6.1 1.2.2 1.7a.3.3 0 0 0 .1.2.2.2 0 0 0 .2-.2l-.3-1.7c0-.2-.2-.2-.2 0v1h.3l-.2-1.1c-.1-.1-.3-.1-.3 0V51h.2l-.2-1.4c0-.1-.3-.1-.3.1a7.7 7.7 0 0 0 .2 1.5c0 .2.3.1.2-.1a4.5 4.5 0 0 0-.3-1.6h-.2c.1.2.4.1.3-.1z"/><path fill="#2f1912" d="M13.9 50.9l.3 1.6h.2l-.3-1.7h-.2l.2 1.7h.3l-.3-1.5h-.3l.4 1.6c0 .2.3.1.3 0v-1.3h-.3l.2.9c0 .2.3.1.3 0v-.5a.1.1 0 0 0-.3 0c.1.9.3 1.9.5 2.9h.2l-.6-2.3c-.1-.2-.3-.1-.3 0a19.6 19.6 0 0 0 1.7 4.8c0 .2.3 0 .2-.1a20.1 20.1 0 0 1-1.6-4.7H14l.7 2.4c0 .1.3.1.2-.1a27 27 0 0 1-.4-2.8h-.3v.5h.3l-.2-1c0-.2-.3-.1-.3 0v1.4h.3l-.2-1.7c0-.2-.3-.1-.3.1l.3 1.4c.1.2.3.1.3 0l-.3-1.8c0-.1-.3-.1-.3.1a11.6 11.6 0 0 0 .4 1.8c0 .1.2.1.2-.1a5.1 5.1 0 0 0-.3-1.7c0-.2-.3-.1-.2.1z"/><path fill="#2f1912" d="M14.9 54.1h-.3a5 5 0 0 1 .5 1.3l.3-.2h-.2a.1.1 0 0 0-.2 0v.2h.2s.1.1.1 0a.1.1 0 0 0 .1-.1l-.5-1.4h-.2a.1.1 0 0 0-.1.1c0 .1 0 .2.1.2h.1a.3.3 0 0 0 .1-.2zm-.4 4.3a4.2 4.2 0 0 0 .9 1.4c.1.1.3 0 .2-.2l-.6-1.1a.2.2 0 0 0-.3.1 3.8 3.8 0 0 0 .9 1.5c.1.1.2 0 .2-.1s-.1-.4-.2-.6l-.4-.8c0-.1-.3 0-.2.1a5.3 5.3 0 0 0 .8 1.5h.2c.1-.1.1-.2 0-.2s-.1-.3-.1-.5l-.3-.8h-.3l.8 1.4a.2.2 0 0 0 .3-.1l-.5-1.5h-.3a6.1 6.1 0 0 1 .7 1.4c.1.1.3 0 .3-.2a6.9 6.9 0 0 1-.5-1.3h-.2l.8 1.3c.1.1.2 0 .2-.2a6.9 6.9 0 0 1-.7-1.5H16l.8 1.3c0 .1.3 0 .2-.1l-.6-1.2-.2.2a8.8 8.8 0 0 0 1.2 1.7c.1.1.3-.1.2-.2a6.6 6.6 0 0 1-1.2-1.7c-.1-.1-.3 0-.2.2l.6 1.1h.2l-.8-1.3c0-.1-.3-.1-.2.1a11.1 11.1 0 0 0 .7 1.6l.2-.2a5.7 5.7 0 0 1-.8-1.3.2.2 0 0 0-.3.1c.2.5.3 1 .5 1.5l.3-.2-.7-1.3c-.1-.1-.3-.1-.3.1l.5 1.4h.2l-.7-1.3c-.1-.2-.3-.1-.3.1l.3.6v.5s.1.2.1.1h.3l-.8-1.3H15l.3.6c.1.2.3.4.3.6h.2a3.2 3.2 0 0 1-.8-1.4h-.2l.6 1.2.2-.2a3.5 3.5 0 0 1-.8-1.3c-.1-.1-.3-.1-.3.1z"/><path fill="#2f1912" d="M15.6 59.6a2 2 0 0 0 .9.9c0 .1.2 0 .1-.1a1 1 0 0 0-.4-.7c-.1-.1-.3.1-.2.2a2.7 2.7 0 0 0 .8.7c.1 0 .3-.1.2-.2a1 1 0 0 0-.4-.5c-.1 0-.3.1-.2.2a.7.7 0 0 0 .6.4c.1 0 .2-.1.1-.2a1.8 1.8 0 0 0-.5-.7h-.1l.4.5c.1.1.3.2.4 0a.1.1 0 0 0 .1-.1l-.5-.6c-.1-.1-.3.1-.2.2a1.3 1.3 0 0 0 .7.6c.1.1.3 0 .2-.1a2.3 2.3 0 0 0-.7-.7c-.1-.1-.2 0-.2.1a1 1 0 0 0 .4.5l.4.4h.1l-1.5-.3c-.1-.1-.2.1-.1.2a2 2 0 0 0 1.5.4c.1 0 .2-.2 0-.3h-.8a.2.2 0 0 0-.1.3c.4.3.9.1 1.4.1s.2-.1.1-.2l-1.2-.7-.2.2.7.4v-.2l-.6-.2h-.4c-.2.2 0 .3.1.2h.5a.4.4 0 0 0 .5.1c.1 0 .1-.2 0-.2l-.6-.4c-.2-.1-.3.1-.2.2l1.3.7v-.2a1.6 1.6 0 0 0-.7 0 .7.7 0 0 1-.6-.2v.3h.8v-.3a1.2 1.2 0 0 1-1.3-.3v.2a4 4 0 0 0 1.5.3.1.1 0 0 0 .1-.1 1 1 0 0 0-.4-.5.9.9 0 0 1-.3-.5l-.2.2.6.6.2-.2a1.8 1.8 0 0 1-.7-.5h-.2l.4.5-.2-.2-.3-.2c-.1-.2-.2 0-.1.1s.3.5.4.8v-.2l-.4-.3-.2.2c.2 0 .3.2.4.3l.2-.2a1.3 1.3 0 0 1-.7-.5H16l.4.5h.2a3 3 0 0 1-.8-.8c-.1-.1-.3 0-.2.1z"/><path fill="#2f1912" d="M15.2 59.1c0-.1-.1-.1-.2-.2s-.3.1-.2.2a4.9 4.9 0 0 0 1.2 1.3h.1a.3.3 0 0 0 0-.4l-.4-.4-.9-.6h-.1c-.2.2.1.5.2.7l.6.6h.2a1 1 0 0 0-.4-.8l-.8-.5c-.1-.1-.3 0-.2.1a2.1 2.1 0 0 0 1 1.3c.1.1.2-.1.2-.2a4.7 4.7 0 0 0-1.5-1.4c-.1 0-.2.1-.1.2a2 2 0 0 0 1.1 1.1.2.2 0 0 0 .2-.2 2.3 2.3 0 0 0-1.4-1c-.1-.1-.2 0-.2.1a1.4 1.4 0 0 0 .9.9.2.2 0 0 0 .2-.2l-.6-.7a1.5 1.5 0 0 0-.7-.3c-.3 0-.3.3-.2.5a.6.6 0 0 0 .5.6c.1.1.2-.1.1-.2l-.4-.4V59c0-.1.2 0 .2 0a1.5 1.5 0 0 1 .8.8l.2-.2a1.1 1.1 0 0 1-.8-.7v.2a1.9 1.9 0 0 1 1.2.9l.2-.2a1.8 1.8 0 0 1-1-.9H14a3.7 3.7 0 0 1 1.3 1.2h.2a2.7 2.7 0 0 1-.9-1.2l-.2.2.7.4a1.8 1.8 0 0 1 .5.7l.2-.2a1 1 0 0 1-.5-.4c-.1 0-.1-.1-.2-.2a.1.1 0 0 0-.1-.1h-.2l.7.5.3.2c0 .1.1.1.1.2h.3A3.8 3.8 0 0 1 15 59v.2c.1.1.3 0 .2-.2z"/><path fill="#2f1912" d="M12 59.3l-.7-.4c-.2 0-.3.2-.1.3a5.4 5.4 0 0 0 1.9.7c.1.1.2-.2 0-.2L11 59c-.1-.1-.2.2 0 .3a13.2 13.2 0 0 0 3 .7h.1c0-.5-.7-.6-1-.7l-1.8-.6a.2.2 0 0 0-.1.3l2.1.7c.6.1 1.3.4 1.8.1s.1-.1.1-.2-1.1-.4-1.5-.5l-2.2-.2c-.1 0-.1.2 0 .2a8.4 8.4 0 0 0 2.7.8c.1 0 .2-.2 0-.2l-3.7-1.2c-.2-.1-.3.2-.1.2a13.9 13.9 0 0 0 3.6 1.1c.1.1.2-.2 0-.2a20.1 20.1 0 0 0-3.5-1c-.2 0-.2.3-.1.3l2.4.6 1.1.3a.6.6 0 0 0 .7-.1c.1 0 .1-.2 0-.2a11.7 11.7 0 0 0-2.6-1c-.1 0-.2.2 0 .3l2.6.7v-.3a11.1 11.1 0 0 1-3.6-.4.2.2 0 0 0-.1.3l2.9.8v-.3a9.5 9.5 0 0 1-3.7-.8v.3l3.4 1c.1 0 .2-.2 0-.3l-3.3-.9c-.2 0-.3.2-.1.3l3.3 1v-.3l-3.6-1c-.2 0-.3.2-.1.3l3.4 1v-.3a12.6 12.6 0 0 1-3.8-1v.3a32 32 0 0 0 4.2 1v-.3a11.1 11.1 0 0 1-4.4-.8c-.2 0-.3.2-.1.3a11.6 11.6 0 0 0 4.5.8c.1 0 .2-.2 0-.3a20.4 20.4 0 0 1-4.1-1 .2.2 0 0 0-.1.3 16.4 16.4 0 0 0 3.8 1c.2 0 .2-.2.1-.3l-3.4-1v.3l3.6 1a.2.2 0 0 0 .1-.3l-3.3-1v.3l3.4.9v-.3a20.7 20.7 0 0 1-3.3-1c-.2 0-.2.2-.1.3a16.1 16.1 0 0 0 3.8.8c.1 0 .2-.3 0-.3a10.5 10.5 0 0 1-2.9-.8v.3a15.5 15.5 0 0 0 3.7.4c.1 0 .2-.2 0-.2l-2.8-.8v.3a12.5 12.5 0 0 1 2.5.9v-.2c-.3.2-.7 0-1-.1l-1-.2-2-.6v.3a23.7 23.7 0 0 1 3.6.9v-.2a14.5 14.5 0 0 1-3.5-1.2v.2l3.8 1.2v-.2l-2.6-.8v.2l1.8.2.9.2c.2 0 .6 0 .7.2H15a3.4 3.4 0 0 1-1 0l-.9-.3-1.8-.6v.3l1.4.4.6.3c.1 0 .6.1.6.3l.2-.2a16.3 16.3 0 0 1-3-.7v.3l2.1.6v-.2a7.1 7.1 0 0 1-1.8-.8v.3l.6.3c.2.1.3-.1.2-.2z"/><path fill="#2f1912" d="M13.9 59.8H13c-.1 0-.1.2 0 .3a6.5 6.5 0 0 0 2.1.4.2.2 0 0 0 0-.3l-.8-.2h-1l1.3.2h1c.2-.1.1-.2 0-.3a12.9 12.9 0 0 1-1.9-.4v.3a3.4 3.4 0 0 1 1.4.2v-.3h-2.6c-.2 0-.2.2-.1.2a9.1 9.1 0 0 0 2.3.3v-.3h-1.5v.2l2.4.3c.2 0 .2-.3.1-.3a16 16 0 0 1-2.3-.3v.3c1 .2 2.1.9 3.2.4s.1-.2 0-.2l-1.9-.3v.2l1.7.2c.1 0 .2-.2 0-.3l-1.3-.4v.3l1 .2c.1 0 .2-.2.1-.2l-.2-.2a.1.1 0 1 0-.2.1l.2.2V60l-.9-.2c-.2 0-.3.3-.1.3l1.3.4v-.3h-1.8c-.1 0-.2.2 0 .2l1.8.3v-.2c-1 .4-2-.3-3-.5s-.3.2-.1.3a16 16 0 0 0 2.3.3v-.3l-2.4-.3c-.1-.1-.2.2 0 .2l1.6.2c.1 0 .1-.3 0-.3a7.8 7.8 0 0 1-2.2-.2v.3H15c.2 0 .2-.3.1-.3l-1.5-.2c-.1 0-.2.2-.1.2s1.4.2 2 .5V60c-.1.1-.4 0-.5 0h-1.7c-.1-.1-.2.2 0 .2l.9.2h.8v-.2a4.5 4.5 0 0 1-2-.4v.2h.9c.1 0 .2-.3 0-.3z"/><path fill="#2f1912" d="M16 60.4h.5v-.2h-2c-.2 0-.2.2-.1.2s1.7 0 2.6.2v-.3a.7.7 0 0 1-1-.4c0-.2-.3-.1-.2 0a.9.9 0 0 0 1.4.7.2.2 0 0 0-.1-.3h-2.6v.2h2c.2 0 .2-.2.1-.3l-.5-.2a.2.2 0 0 0-.1.3zm.5-1.1h-.3a.1.1 0 0 1-.1.1.1.1 0 0 0 .1.1.8.8 0 0 0 .4.4c.1 0 .1 0 .1-.1s.1-.1 0-.2h-.3a.1.1 0 0 0 .1-.1c.1 0 0-.1 0-.1zm-5.1-1h-.9c-.1 0-.2.2-.1.2a2.8 2.8 0 0 0 1.1.8h.1c.1-.1.1-.1 0-.2a3.5 3.5 0 0 0-1.3-.8h-.2a.1.1 0 0 0 .1.1l.5.4h.2a.3.3 0 0 0-.1-.2l-.5-.3v.2a3.6 3.6 0 0 1 1.2.8l.2-.2-1-.7v.2h.9a.2.2 0 0 0 .2-.2z"/><path fill="#2f1912" d="M8.6 58.3h-.2v.2l1.2.3c.1 0 .1-.2 0-.3L8 58c-.2 0-.2.2-.1.3l2.3.7c.1.1.2-.1.1-.2l-1.8-.7c-.2-.1-.3.2-.1.2l2.5 1.1a.2.2 0 0 0 .1-.3L8.9 58v.2l2.1.8a.2.2 0 0 0 .1-.3l-1.4-.6v.2l1.9.6c.1.1.2-.1.1-.2l-1.2-.8v.3l1.8 1v-.3a5.4 5.4 0 0 1-2.2-.4v.3l1.2.3v-.2a6.5 6.5 0 0 1-2-.5v.3a2.3 2.3 0 0 1 .7.3v-.3l-1.8-.4v.2l1.1.5v-.3l-1.4-.5c-.1-.1-.2.2-.1.2a6.1 6.1 0 0 1 1.4.7l.2-.2-1.5-.6c-.1-.1-.2.2-.1.2l1.6.7c.2.1.3-.1.2-.2L8 58.4c-.1 0-.2.2-.1.2l1.6.7v-.2L8 58.5v.2l1.6.5V59a10.6 10.6 0 0 1-2.1-1.1v.3l2.8.7c.2 0 .2-.2.1-.2a15.1 15.1 0 0 0-1.8-.9.2.2 0 0 0-.1.3l2.3.8c.1 0 .2-.2 0-.3l-2.1-.7-.2.2 1.8.8v-.2l-2.8-.8a.2.2 0 0 0-.1.3 15.1 15.1 0 0 0 2.2 1.1.2.2 0 0 0 .1-.3L8 58.4c-.2 0-.3.2-.1.3a12.7 12.7 0 0 0 1.8.6c.1.1.2-.1.1-.2l-1.5-.7v.3l1.4.5.2-.2-1.6-.7v.2l1.4.6c.1.1.2-.2.1-.2l-1.5-.7v.2l1.4.6c.2 0 .3-.2.1-.3l-1.2-.4c-.1-.1-.2.2 0 .2l1.4.5c.2 0 .2-.2.1-.3L9 58.4c-.2 0-.3.2-.1.3l2.1.5a.2.2 0 0 0 .1-.3l-1.2-.4c-.2 0-.2.2-.1.3a6.2 6.2 0 0 0 2.3.4.2.2 0 0 0 .1-.3l-1.9-1c-.1-.1-.3.2-.1.3l1.1.7v-.2L9.5 58a.2.2 0 0 0-.1.3l1.4.6.2-.2-2.1-.7c-.2-.1-.3.2-.1.2l2 1.1v-.2l-2.4-1v.2l1.7.7.2-.2L8 58v.3l1.5.5v-.3a2 2 0 0 1-1.1-.3c-.2 0-.3.2-.1.3h.2c.2 0 .3-.2.1-.3z"/><path fill="#2f1912" d="M2.9 53.9l-.5-.2c-.1 0-.2.1-.1.2l.4.6c.1.1.3-.1.2-.2l-.5-.6c-.2-.1-.3.1-.2.2l.5.6.2-.2-.5-.5c-.1-.1-.3.1-.2.2l.6.6c.1.2.3 0 .2-.2l-.3-.2v.2a10 10 0 0 1 1.5 1.4l.2-.2-1-.8c-.1-.1-.3.1-.2.2l1.7 1.7.2-.3a5.7 5.7 0 0 1-1.5-1.2l-.2.2a21.1 21.1 0 0 0 2.3 1.9v-.2l-.9-.8-.2.2a11.5 11.5 0 0 0 3.3 2.1.1.1 0 1 0 .1-.2l-2.3-1.5c-.1-.1-.2.1-.1.2A9 9 0 0 0 8 58.3c.2 0 .3-.2.2-.3l-1.8-.8c-.1-.1-.3.1-.2.2a5 5 0 0 0 1.7 1.1v-.3a3.3 3.3 0 0 1-1.3-.7v.3l1 .7v-.3a1.4 1.4 0 0 1-.9-.8l-.2.2a8.4 8.4 0 0 0 4 1.4c.1 0 .2-.2 0-.2a4.8 4.8 0 0 1-1.6-.8l-1.4-.7-1.5-.6-1.4-1.1c-.1-.1-.3.1-.2.2a6.6 6.6 0 0 0 2.8 1.6l1.7 1a3.8 3.8 0 0 0 1.6.6v-.2a7.5 7.5 0 0 1-3.8-1.5c-.2 0-.3.1-.2.2a1.7 1.7 0 0 0 1 1c.2.1.2-.2.1-.2l-1-.8c-.1-.1-.3.2-.1.3a3.1 3.1 0 0 0 1.4.7c.1 0 .2-.2 0-.3a3.1 3.1 0 0 1-1.5-1v.2l1.7.8V58a8.6 8.6 0 0 1-2.4-1.1v.2L8 58.6v-.2a11.1 11.1 0 0 1-3.2-2.1c-.1-.1-.3.1-.2.2a3.9 3.9 0 0 0 1 .8c.1.1.2-.1.1-.2l-2.2-1.9c-.1-.1-.3.1-.2.2l1.5 1.3c.2.1.3-.1.2-.2l-1.7-1.7-.2.2 1 .8c.2.1.4-.1.2-.2a10.7 10.7 0 0 0-1.6-1.4c-.1-.1-.2.1-.1.2l.2.2.2-.2-.6-.6-.2.2.5.5c.1.1.3-.1.2-.2l-.5-.6-.2.2.5.6.2-.2-.4-.5-.2.2.4.2c.2 0 .3-.2.2-.3zm10.7 1.6c-.1-.2-.3-.1-.3.1a8.4 8.4 0 0 0 .6 1.4h.2a9.1 9.1 0 0 1-.7-1.4.2.2 0 0 0-.3.1 4.5 4.5 0 0 0 1.4 1.9c0 .1.1.1.2 0v-.2a3.1 3.1 0 0 1-1.3-1.7h-.3l.8 1.3c.1.1.3 0 .2-.1a7.8 7.8 0 0 1-.5-1.4h-.2c0 .2.3.1.2-.1zM2.3 46a8 8 0 0 1 2.2-6.9A8.5 8.5 0 0 1 7.9 37a6.4 6.4 0 0 1 4.3-.4c.2.1.3-.1.2-.2s-2.9-.2-4.2.2a10.3 10.3 0 0 0-3.8 2.2A8.4 8.4 0 0 0 2 46c.1.2.3.1.3 0z"/><path fill="#2f1912" d="M4.5 37.7a2.4 2.4 0 0 0-.2.8c0 .1.1.2.2.1a3.4 3.4 0 0 0 .9-.8h-.3l-.2.6a.2.2 0 0 0 .2.2l.8-.9h-.3v.4c0 .1.1.2.2.1s.5-.4.6-.7h-.2v.2c-.1.2.1.3.2.2l.4-.6c.1-.1 0-.2-.1-.2a5.7 5.7 0 0 0-1.3.8c-.1.1.1.3.2.2a2.1 2.1 0 0 0 .8-.6c0-.1-.1-.3-.3-.2l-.6.7c-.1.1 0 .2.1.2a1.8 1.8 0 0 0 .7-.5c.1-.1 0-.3-.2-.2l-1.9 1 .2.2c.7-1 2-1.2 2.9-2s0-.2-.1-.2l-.6.4c-.2.1-.1.3.1.2a1.2 1.2 0 0 0 .5-.5c.1-.1 0-.2-.1-.2a.8.8 0 0 0-.8.7c0 .1.2.1.2.1a3.9 3.9 0 0 0 1-.8c0-.1-.1-.3-.2-.2a.6.6 0 0 0-.3.6.1.1 0 0 0 .1.1.8.8 0 0 0 .7-.5.3.3 0 0 0-.1-.2c-.3 0-.5.2-.4.4s0 .2.1.1a.6.6 0 0 0 .6-.5c.1-.1-.1-.1-.1-.1a.9.9 0 0 0-.7.3c-.1.1 0 .2.1.3a.8.8 0 0 0 .8-.9h-.2c-.2.1-.4.2-.4.4a.5.5 0 0 0 .2.4c.5.1.9-.6 1-.9a.2.2 0 0 0-.2-.2c-.3.1-.7.4-.3.7s.8-.1 1-.4-.2-.3-.3-.2a1.4 1.4 0 0 0-.2.7c0 .1 0 .2.1.1a.8.8 0 0 0 .8-.6.2.2 0 0 0-.2-.2.5.5 0 0 0-.3.5c0 .1 0 .2.1.2a1.1 1.1 0 0 0 1.1-.7c.1-.1 0-.2-.1-.2s-.5.3-.4.6 0 .1.1.1 1-.1 1.1-.5-.4-.4-.6-.2a.5.5 0 0 0 .1.8c.5.1.8-.4.8-.8s0-.2-.1-.2a.3.3 0 0 0-.2.6c.4.3.7-.2.8-.5s-.2-.2-.2-.1a.6.6 0 0 0-.1.7h.2c.2-.2.3-.6 0-.6s-.3.3-.2.4h.2l.2-.3c0-.2-.2-.3-.3-.2v.3h.2v.2h.2a.4.4 0 0 1 0-.5h-.3a.3.3 0 0 1-.3.3v-.2c-.1.1-.1.3-.2.5s-.6 0-.3-.2-.1.2-.2.2h-.3c-.1-.1-.1-.2.1-.2v-.2a.8.8 0 0 1-.9.5h.1l.2-.2-.2-.2a.5.5 0 0 1-.5.5h.1l.3-.5-.3-.2a.8.8 0 0 1-.2.4h-.7c0-.1 0-.2.2-.2l-.2-.2c0 .2-.1.3-.3.5H8c-.1-.1-.1-.1 0-.2h-.2c.1.3-.2.5-.5.5v.2l.5-.3c-.1.2-.2.2-.4.3h.3l-.2-.2c0 .2-.2.3-.4.3v.2a.5.5 0 0 1 .2-.4l-.2-.2a1.6 1.6 0 0 1-.8.8h.2a.5.5 0 0 1 .5-.5v-.2a.7.7 0 0 1-.4.5v.2l.6-.3-.2-.2c-.9.7-2.2.9-2.9 2s.1.2.2.2l1.8-1.4-.1.1a.7.7 0 0 1-.5.4v.3l.6-.7H6l-.6.5v.2a2.6 2.6 0 0 1 1.1-.7V37l-.4.5.2.2v-.3a.1.1 0 1 0-.2-.1 1.7 1.7 0 0 1-.6.6h.2v-.4a.2.2 0 0 0-.3-.1 1.2 1.2 0 0 1-.6.8l.2.2.2-.7c.1-.1-.2-.2-.2-.1a6 6 0 0 1-.8.8h.2a.7.7 0 0 1 .2-.6c0-.2-.2-.3-.3-.2z"/><path fill="#2f1912" d="M2.6 41.6v.2c0 .1.2.2.2 0 .5-2.1 2.1-3.6 3.7-4.9s0-.3-.2-.2a9.6 9.6 0 0 0-3.7 5.1h.2v-.2c0-.1-.2-.1-.2 0z"/><path fill="#2f1912" d="M2.8 41.8a23.6 23.6 0 0 1 2.6-3.6L7 36.9l.9-.5.4-.2.5-.2c.2.1.2-.2 0-.2h-.4L8 36l-1 .5-1.6 1.4a17.8 17.8 0 0 0-2.8 3.8.1.1 0 1 0 .2.1z"/><path fill="#2f1912" d="M2.3 44a20.7 20.7 0 0 1 1.8-4.7c.1-.2-.2-.3-.3-.1A20.7 20.7 0 0 0 2 43.9c0 .2.3.3.3.1z"/><path fill="#2f1912" d="M2.4 44a12.7 12.7 0 0 1 2.9-6.2c.1-.2-.1-.4-.2-.2a13.7 13.7 0 0 0-3 6.3c0 .2.2.2.3.1zm3.7-7c0 .2 0 .4.2.4s.4-.3.6-.4 0-.3-.1-.2a.8.8 0 0 0-.4.4.2.2 0 0 0 .2.2 1.1 1.1 0 0 0 .7-.6c.1-.1 0-.2-.1-.2s-.4.2-.4.4l.2.2a1.2 1.2 0 0 0 .7-.7c.1-.1 0-.3-.1-.2a.5.5 0 0 0-.3.5c0 .1.1.2.1.1a.8.8 0 0 0 .7-.7c.1 0 0-.1-.1-.1a.4.4 0 0 0-.4.6h.2c.3-.1.4-.4.6-.6s-.1-.3-.2-.2a.9.9 0 0 0-.3.6c0 .1.1.2.2.1a.9.9 0 0 0 .6-.6.2.2 0 0 0-.2-.2.9.9 0 0 0-.3.6.2.2 0 0 0 .2.2.9.9 0 0 0 .5-.7c.1-.1-.1-.2-.2-.1a.5.5 0 0 0-.3.5c0 .1.1.1.2.1a.5.5 0 0 0 .4-.3h-.3c-.1.3-.5.4-.8.5l-.6.3c-.2.2 0 .3.1.3a7.1 7.1 0 0 0 1.5-.8.8.8 0 0 0 .2-1h-.3c-.1.2-.4.9.1.9s.6-.5.7-.7-.1-.3-.2-.2a1 1 0 0 0-.5.6c0 .1.1.2.2.1a2.7 2.7 0 0 0 .7-.8h-.2a1.4 1.4 0 0 0-.2.6c0 .2.2.2.3.1a1.6 1.6 0 0 0 .4-.7c.1-.2-.2-.3-.2-.1a1.4 1.4 0 0 0-.2.6c-.1.1.1.2.2.1l.4-.6c.1-.2-.2-.2-.2-.1a.9.9 0 0 0-.3.7c.1.1.2.2.2.1a.9.9 0 0 0 .6-.6c.1-.1-.1-.2-.2-.1a1.4 1.4 0 0 0-.2.6c0 .1.1.2.2.1a2.1 2.1 0 0 0 .4-.6c0-.2-.2-.2-.3-.1s-.3.6-.1.8.2.1.2 0a1.2 1.2 0 0 0 .6-.8.2.2 0 0 0-.3-.1 1.3 1.3 0 0 0-.1.6.1.1 0 0 0 .1.1c.4-.1.5-.3.6-.7s-.2-.1-.3 0a.7.7 0 0 0-.1.6c0 .1 0 .2.1.1a.5.5 0 0 0 .2-.8c0-.1-.1-.1-.2 0a.9.9 0 0 0-.1.7c0 .1.2.1.2.1a1.1 1.1 0 0 0 .2-.7c-.1-.2-.3-.1-.3 0v.5h.2l.2-.2h-.3l.3.5v-.2a2.5 2.5 0 0 0-1.2-.2 1.5 1.5 0 0 0-1.1.4c-.1.2.1.3.3.3l.6-.2.7-.3v-.2a5.4 5.4 0 0 1-2.1.5c-.2 0-.2.2-.1.2a2.5 2.5 0 0 0 1.7-.1c.2-.1.1-.3-.1-.3s-1.4.2-2 .6-.1.3.1.2a4.2 4.2 0 0 0 1.5-.4V36l-.8.3v.2a12.4 12.4 0 0 1 2.7-.3.2.2 0 0 0 .1-.3.9.9 0 0 0-1 0c-.1 0-.1.1 0 .2a.6.6 0 0 0 .7.1.3.3 0 0 0 .1-.2.9.9 0 0 0-.6-.3v.2h.5c.1 0 .1-.2 0-.3l-1-.2c-.1 0-.3.2-.1.2a.8.8 0 0 0 .9-.1c.1 0 0-.1 0-.2h-.8c-.2.1-.1.3 0 .3a.6.6 0 0 1 .6 0v-.2a.5.5 0 0 1-.6.1v.2l1 .3v-.3l-.5.2c-.1 0-.1.2 0 .2l.5.2v-.2a.5.5 0 0 1-.5 0v.2a.8.8 0 0 1 .7 0v-.2a12.6 12.6 0 0 0-2.7.4c-.2 0-.1.3 0 .2a1.7 1.7 0 0 0 1-.3c.1 0 0-.3-.1-.2l-1.6.4v.2c.6-.4 1.4-.3 2-.5V36a2 2 0 0 1-1.5.2v.2a4.2 4.2 0 0 0 2.2-.5c.1 0 0-.3-.1-.2l-.9.3c-.1.1-.4.1-.3.2h.4a2.2 2.2 0 0 1 1.6 0c.1.1.2-.1.1-.2l-.2-.4h-.1c0-.1-.1-.2 0-.4h-.3a.7.7 0 0 1-.1.5h.3a.6.6 0 0 1 0-.6h-.2c.2.1.1.3 0 .4h.1c0-.2.1-.3.1-.5h-.2a.5.5 0 0 1-.3.5c0-.2.1-.3.1-.5h-.2a1.6 1.6 0 0 1-.4.7h.1c-.1-.1.1-.3.1-.5h-.2l-.2.4h.2a.9.9 0 0 1 .1-.5h-.2l-.5.5h.2a1.4 1.4 0 0 1 .2-.6H10a.9.9 0 0 1-.3.5h.2l.2-.5h-.2a1.6 1.6 0 0 1-.4.7h.2a1.1 1.1 0 0 1 .1-.5c.1-.2-.1-.3-.2-.1a4.6 4.6 0 0 1-.7.7l.3.2a.5.5 0 0 1 .3-.5h-.2a.7.7 0 0 1-.3.5c-.2.1 0-.3.1-.4h-.3c.3.4-.1.7-.4.8l-1.1.5v.1c.5-.4 1.3-.3 1.6-.9s-.2-.3-.3-.1-.1.1-.2.1l.2.2c0-.2 0-.2.2-.3h-.1a.8.8 0 0 1-.4.4h.2a.4.4 0 0 1 .1-.3l-.2-.2a1 1 0 0 1-.4.5h.2c0-.2 0-.3.1-.4l-.2-.2a.9.9 0 0 1-.4.6h.2c-.1-.1 0-.2.1-.3h-.1a1.2 1.2 0 0 1-.5.5h.1l.2-.3h-.2a1 1 0 0 1-.6.5h.3v-.2c-.1.3-.3.4-.6.5h.2l.2-.3-.2-.2h-.4c0-.1-.2-.3-.3-.1z"/><path fill="#2f1912" d="M2.5 43.5a6.4 6.4 0 0 1 2.2-4.8c.1-.1 0-.3-.2-.2a6.5 6.5 0 0 0-2.2 5c0 .2.2.2.2 0z"/><path fill="#2f1912" d="M5.7 37.7a12.9 12.9 0 0 0-2.8 3.8 9.2 9.2 0 0 0-.9 2.3 24.3 24.3 0 0 0 0 2.7.1.1 0 1 0 .3 0 8.2 8.2 0 0 1 0-2.7 9.2 9.2 0 0 1 .9-2.3 13.6 13.6 0 0 1 2.7-3.6c.1-.1 0-.3-.2-.2z"/><path fill="#2f1912" d="M3.7 39.6A22.8 22.8 0 0 0 2.2 44a5.7 5.7 0 0 0-.2 2.2 5.8 5.8 0 0 0 .3 2.3c0 .1.3.1.2-.1a8.5 8.5 0 0 1-.3-2.3 7.8 7.8 0 0 1 .3-2.2A21 21 0 0 1 4 39.7c.1-.1-.2-.3-.3-.1z"/><path fill="#2f1912" d="M3.3 40.6a11.5 11.5 0 0 0-1.2 8.5c0 .2.2.1.2-.1a12 12 0 0 1 1.2-8.3c.1-.1-.2-.3-.2-.1z"/><path fill="#2f1912" d="M3.3 40.6A12.8 12.8 0 0 0 2 44.5a11.1 11.1 0 0 0-.2 1.9v2.4c0 .1.3.1.3 0a30.5 30.5 0 0 1 .1-4.3 13.4 13.4 0 0 1 1.4-3.8c.1-.1-.2-.3-.3-.1z"/><path fill="#2f1912" d="M11.5 36.4a7.4 7.4 0 0 0-3.6.6 8.3 8.3 0 0 0-5.1 5.4c-1.2 3.1-1.4 7 .5 9.9a10 10 0 0 0 5.9 4.1 16.5 16.5 0 0 0 3.2.6h1s.2 0 .2.1 0-.1.2.1.3 0 .2-.2a12.5 12.5 0 0 1-1.9-7.3.1.1 0 0 0-.3 0 13.4 13.4 0 0 0 2 7.5l.2-.2c-.3-.3-.6-.2-1-.2l-2.4-.3a12.2 12.2 0 0 1-6.2-3.1c-2.4-2.5-2.5-6.1-1.9-9.3a9 9 0 0 1 4.9-6.6 7.2 7.2 0 0 1 4.1-.8.1.1 0 0 0 0-.3z"/><path fill="#2f1912" d="M5.8 38a.5.5 0 0 0-.5.3c-.1.1-.1.2 0 .2h.2l.3-.5.5-.2v-.2l-.4.3c-.2 0-.1.3.1.2l.4-.2c.1-.1-.1-.3-.2-.2l-.5.3v.2l.9-.7a.1.1 0 0 0 .1-.1h-.2l-.9.7a.1.1 0 1 0 .1.2c.2 0 .4-.2.6-.3l-.2-.2-.3.2v.2l.5-.4c.1 0 0-.2-.2-.2l-.5.3-.4.5.2.2c.1-.2.2-.3.4-.3s.1-.1 0-.1 0-.1-.1-.1z"/><path fill="#dfb78c" d="M35.1 30s-3.8-1.2.5-10.2-2.9-16.2-7.9-17.5c0 0 6.9 5.4 6 12.2S32.3 27.7 35.1 30zm4.8-4.3s-2.6-.9.3-7.9-2-12.5-5.4-13.5c0 0 4.8 4.1 4.2 9.4s-1 10.2.9 12z"/><path fill="#2f1912" d="M64 52s-3.3 9.8-13.4 9.3c0 0 11.4-4 13.4-9.3z"/></symbol></svg>